{"glyphs":{"0":{"ha":777,"x_min":42,"x_max":734,"o":"m 572 506 q 397 903 572 903 q 214 653 250 903 q 204 517 204 582 q 208 409 204 453 q 220 322 212 366 q 243 245 228 279 q 278 184 258 211 q 397 128 321 128 q 517 185 478 128 q 552 263 544 225 q 564 326 561 301 q 570 384 568 350 q 572 506 572 435 m 42 498 q 46 598 42 549 q 62 701 51 647 q 92 803 74 755 q 137 895 109 851 q 201 970 165 939 q 398 1040 280 1040 q 642 895 553 1040 q 734 505 734 745 q 581 50 734 173 q 398 -8 508 -8 q 146 116 239 -8 q 42 498 42 255 z "},"1":{"ha":612,"x_min":55,"x_max":544,"o":"m 55 949 l 277 1027 l 395 1027 l 395 156 l 544 156 l 544 0 l 67 0 l 67 156 l 233 156 l 233 876 l 101 837 l 55 949 z "},"2":{"ha":812,"x_min":50,"x_max":732,"o":"m 50 0 q 60 130 50 93 q 84 199 71 168 q 115 257 97 230 q 161 318 134 284 q 224 385 189 353 q 382 509 304 458 q 489 584 461 560 q 536 635 517 607 q 570 771 570 684 q 530 859 570 818 q 409 905 488 905 q 260 814 302 905 q 241 718 241 770 l 79 718 q 122 885 79 812 q 244 1000 165 959 q 408 1041 323 1041 q 552 1017 493 1041 q 649 954 610 994 q 732 763 732 871 q 669 582 732 663 q 534 450 618 515 l 484 413 q 317 272 400 352 q 228 156 233 191 l 718 156 l 718 0 l 50 0 z "},"3":{"ha":804,"x_min":35,"x_max":724,"o":"m 35 169 l 143 256 q 309 137 212 169 q 387 124 348 124 q 515 166 467 124 q 562 287 562 208 q 513 406 562 349 q 387 465 463 465 l 243 465 l 243 604 l 387 604 q 520 708 488 604 q 529 766 529 736 q 487 864 529 823 q 377 905 445 905 q 157 798 257 905 l 62 887 q 201 997 109 954 q 408 1041 292 1041 q 520 1017 467 1041 q 610 956 574 993 q 691 781 691 873 q 603 568 691 662 q 564 537 581 545 q 671 445 621 518 q 724 279 724 368 q 610 49 724 135 q 407 -12 530 -12 q 35 169 163 -12 z "},"4":{"ha":875,"x_min":78,"x_max":825,"o":"m 253 374 l 507 374 l 507 766 l 253 374 m 78 238 l 78 370 l 507 1027 l 669 1027 l 669 374 l 825 374 l 825 238 l 669 238 l 669 0 l 507 0 l 507 238 l 78 238 z "},"5":{"ha":718,"x_min":47,"x_max":684,"o":"m 47 197 l 155 275 q 231 168 179 214 q 345 124 280 124 q 465 179 414 124 q 522 359 522 241 q 450 537 522 486 q 374 564 412 564 q 307 553 336 564 q 260 526 279 542 q 218 465 222 491 l 80 465 l 80 1027 l 628 1027 l 628 891 l 242 891 l 242 673 q 288 692 247 683 q 380 701 330 701 q 488 676 431 701 q 588 608 545 652 q 658 500 632 565 q 684 345 684 436 q 643 168 684 253 q 525 35 601 82 q 351 -12 449 -12 q 110 93 208 -12 q 47 197 60 146 z "},"6":{"ha":800,"x_min":56,"x_max":726,"o":"m 564 324 q 564 368 564 324 q 514 466 564 412 q 389 520 465 520 q 273 469 321 520 q 216 361 237 429 q 214 353 214 353 q 270 186 222 243 q 389 130 319 130 q 507 182 454 130 q 564 324 564 237 m 212 577 q 404 657 297 657 q 533 631 473 657 q 635 561 593 605 q 726 332 726 466 q 675 147 726 232 q 393 -7 585 -7 q 141 115 227 -7 q 56 463 56 237 q 165 883 56 734 q 474 1031 274 1031 q 592 1006 538 1031 q 675 950 646 980 l 608 831 q 463 895 549 895 q 287 795 359 895 q 212 577 231 716 z "},"7":{"ha":670,"x_min":45,"x_max":669,"o":"m 45 875 l 45 1027 l 669 1027 l 669 873 l 288 0 l 118 0 l 499 875 l 45 875 z "},"8":{"ha":827,"x_min":58,"x_max":768,"o":"m 403 615 q 568 781 568 691 q 544 842 568 813 q 484 886 520 870 q 416 902 448 902 q 349 885 383 902 q 288 839 314 869 q 262 766 262 808 q 303 682 262 724 q 403 615 344 640 m 405 475 q 275 384 330 444 q 220 275 220 323 q 254 193 220 228 q 432 124 321 124 q 545 165 488 124 q 588 212 571 184 q 606 273 606 241 q 405 475 606 389 m 58 267 q 159 472 58 382 q 271 546 209 516 q 144 642 189 582 q 100 776 100 703 q 141 909 100 849 q 255 1004 182 969 q 406 1038 328 1038 q 543 1016 484 1038 q 643 958 602 994 q 730 783 730 881 q 610 585 730 677 q 543 541 578 559 l 584 520 q 739 384 699 461 q 768 270 768 330 q 740 158 768 210 q 665 68 711 106 q 448 -12 565 -12 q 245 22 331 -12 q 109 121 159 56 q 58 267 58 185 z "},"9":{"ha":800,"x_min":61,"x_max":731,"o":"m 223 695 q 223 651 223 695 q 272 553 223 608 q 397 499 321 499 q 514 551 466 499 q 570 658 550 590 q 573 667 573 667 q 516 833 565 777 q 398 890 468 890 q 280 838 333 890 q 223 695 223 783 m 575 442 q 382 362 490 362 q 254 388 314 362 q 151 458 193 414 q 61 687 61 553 q 111 872 61 787 q 393 1026 202 1026 q 645 904 559 1026 q 731 557 731 783 q 622 136 731 285 q 313 -12 513 -12 q 195 14 249 -12 q 111 69 141 39 l 179 189 q 323 124 238 124 q 500 224 428 124 q 575 442 556 303 z "},"\r":{"ha":1389,"x_min":0,"x_max":0,"o":""}," ":{"ha":347,"x_min":0,"x_max":0,"o":""},"!":{"ha":232,"x_min":33,"x_max":199,"o":"m 33 981 l 197 981 l 172 235 l 58 235 l 33 981 m 34 0 l 34 165 l 199 165 l 199 0 l 34 0 z "},"\"":{"ha":392,"x_min":16,"x_max":396,"o":"m 227 678 l 281 848 l 231 848 l 231 1013 l 396 1013 l 396 879 l 293 678 l 227 678 m 16 678 l 70 848 l 20 848 l 20 1013 l 185 1013 l 185 879 l 82 678 l 16 678 z "},"#":{"ha":918,"x_min":94,"x_max":819,"o":"m 400 442 l 507 442 l 507 606 l 400 606 l 400 442 m 94 305 l 94 442 l 255 442 l 255 606 l 94 606 l 94 743 l 255 743 l 255 1029 l 400 1029 l 400 743 l 507 743 l 507 1029 l 652 1029 l 652 743 l 819 743 l 819 606 l 652 606 l 652 442 l 819 442 l 819 305 l 652 305 l 652 0 l 507 0 l 507 305 l 400 305 l 400 0 l 255 0 l 255 305 l 94 305 z "},"$":{"ha":831,"x_min":101,"x_max":749,"o":"m 487 125 q 587 270 587 140 q 566 374 587 338 q 487 431 546 409 l 487 125 m 254 764 q 269 690 254 720 q 324 643 284 660 l 324 891 q 254 764 254 861 m 158 591 q 146 606 158 591 q 117 666 134 621 q 101 767 101 711 q 126 875 101 822 q 202 970 151 928 q 324 1029 254 1012 l 324 1061 l 487 1061 l 487 1031 q 652 930 591 1009 q 686 880 675 899 l 696 859 l 581 798 q 487 893 558 857 l 487 589 l 524 574 q 675 479 627 534 q 726 402 713 436 q 749 286 749 336 q 741 199 749 235 q 711 125 732 163 q 661 58 690 87 q 487 -11 594 -9 l 487 -149 l 324 -149 l 324 3 q 139 119 211 33 q 114 152 122 140 q 106 165 106 165 l 216 236 q 220 228 216 236 q 232 205 224 219 q 251 178 239 192 q 324 128 278 143 l 324 486 q 225 530 269 498 q 158 591 182 562 z "},"%":{"ha":729,"x_min":10,"x_max":739,"o":"m 161 907 q 148 894 161 907 q 134 842 134 880 q 161 776 134 803 q 227 749 189 749 q 293 776 266 749 q 320 842 320 803 q 293 907 320 880 q 227 935 266 935 q 161 907 189 935 m 90 704 q 61 732 90 704 q 33 842 33 761 q 90 979 33 922 q 228 1036 147 1036 q 365 979 308 1036 q 422 842 422 922 q 365 704 422 761 q 228 647 308 647 q 90 704 147 647 m 454 246 q 440 233 454 246 q 427 180 427 219 q 454 115 427 142 q 519 87 481 87 q 585 115 558 87 q 612 180 612 142 q 585 246 612 219 q 519 273 558 273 q 454 246 481 273 m 382 43 q 353 72 382 43 q 325 180 325 100 q 382 318 325 260 q 520 375 439 375 q 657 318 600 375 q 714 180 714 260 q 657 43 714 100 q 520 -14 600 -14 q 382 43 439 -14 m 10 13 l 612 1074 l 739 1003 l 122 -51 l 10 13 z "},"&":{"ha":966,"x_min":67,"x_max":900,"o":"m 355 817 q 374 670 355 718 q 513 826 513 742 q 493 893 513 863 q 435 924 472 924 q 376 894 398 924 q 355 817 355 863 m 250 416 q 212 303 212 373 q 258 177 212 233 q 373 120 303 120 q 482 134 444 120 q 562 181 521 147 q 501 254 537 208 l 328 488 q 250 416 266 435 m 67 279 q 267 598 67 463 q 227 711 244 640 q 210 833 210 782 q 238 934 210 884 q 317 1017 267 984 q 427 1049 367 1049 q 538 1018 487 1049 q 617 937 590 986 q 644 841 644 888 q 631 756 644 793 q 601 694 619 720 q 552 642 583 669 q 495 598 522 615 l 429 557 q 547 395 472 488 q 651 277 622 302 q 692 498 697 368 l 838 498 q 734 183 838 321 q 868 157 778 155 q 900 158 890 158 l 900 0 q 770 7 793 0 q 728 22 748 14 q 655 75 694 37 q 535 6 602 24 q 384 -12 469 -12 q 227 27 300 -12 q 110 134 153 66 q 67 279 67 201 z "},"'":{"ha":227,"x_min":30,"x_max":199,"o":"m 30 678 l 84 848 l 34 848 l 34 1013 l 199 1013 l 199 879 l 96 678 l 30 678 z "},"(":{"ha":412,"x_min":54,"x_max":412,"o":"m 226 599 q 220 565 226 599 q 215 467 215 532 q 226 335 215 403 q 399 -111 265 94 l 412 -130 l 290 -215 q 243 -143 286 -215 q 197 -62 222 -109 q 147 46 172 -16 q 101 172 121 107 q 67 315 80 237 q 54 467 54 393 q 67 620 54 542 q 100 762 81 699 q 164 929 120 825 q 276 1131 208 1032 l 290 1149 l 412 1064 l 399 1045 q 371 998 391 1034 q 332 925 351 962 q 291 832 313 888 q 253 722 269 777 q 226 599 237 667 z "},")":{"ha":412,"x_min":0,"x_max":358,"o":"m 176 284 q 186 332 176 284 q 197 467 197 379 q 176 650 197 555 q 130 811 155 745 q 70 942 104 877 q 23 1029 37 1007 l 0 1064 l 122 1149 l 148 1114 q 204 1015 163 1090 q 276 865 245 941 q 333 679 307 789 q 358 467 358 570 q 334 257 358 365 q 275 68 309 149 q 146 -180 203 -98 l 122 -215 l 0 -130 l 23 -95 q 70 -7 37 -73 q 130 124 104 58 q 176 284 155 190 z "},"*":{"ha":469,"x_min":16,"x_max":452,"o":"m 16 473 l 50 574 l 184 531 l 184 669 l 286 669 l 286 531 l 420 574 l 452 475 l 318 433 l 397 320 l 317 259 l 235 377 l 151 260 l 68 321 l 153 434 l 16 473 z "},"+":{"ha":682,"x_min":21,"x_max":591,"o":"m 21 429 l 21 575 l 234 575 l 234 788 l 379 788 l 379 575 l 591 575 l 591 429 l 379 429 l 379 216 l 234 216 l 234 429 l 21 429 z "},",":{"ha":301,"x_min":30,"x_max":199,"o":"m 30 -201 l 84 -31 l 34 -31 l 34 134 l 199 134 l 199 0 l 96 -201 l 30 -201 z "},"-":{"ha":347,"x_min":0,"x_max":347,"o":"m 0 331 l 0 454 l 347 454 l 347 331 l 0 331 z "},".":{"ha":233,"x_min":34,"x_max":199,"o":"m 34 0 l 34 165 l 199 165 l 199 0 l 34 0 z "},"/":{"ha":680,"x_min":12,"x_max":661,"o":"m 12 -9 l 529 1096 l 661 1035 l 142 -72 l 12 -9 z "},":":{"ha":233,"x_min":34,"x_max":199,"o":"m 34 551 l 34 715 l 199 715 l 199 551 l 34 551 m 34 0 l 34 165 l 199 165 l 199 0 l 34 0 z "},";":{"ha":232,"x_min":30,"x_max":199,"o":"m 34 551 l 34 715 l 199 715 l 199 551 l 34 551 m 30 -201 l 84 -31 l 34 -31 l 34 134 l 199 134 l 199 0 l 96 -201 l 30 -201 z "},"<":{"ha":698,"x_min":33,"x_max":661,"o":"m 213 505 l 661 146 l 589 60 l 33 505 l 589 949 l 661 863 l 213 505 z "},"=":{"ha":639,"x_min":40,"x_max":599,"o":"m 40 534 l 40 680 l 599 680 l 599 534 l 40 534 m 40 298 l 40 444 l 599 444 l 599 298 l 40 298 z "},">":{"ha":698,"x_min":33,"x_max":661,"o":"m 481 505 l 33 863 l 104 949 l 661 505 l 104 60 l 33 146 l 481 505 z "},"?":{"ha":602,"x_min":50,"x_max":543,"o":"m 158 0 l 158 165 l 323 165 l 323 0 l 158 0 m 50 874 q 158 1004 98 969 q 286 1035 213 1035 q 416 1002 359 1035 q 508 909 473 968 q 543 794 543 850 q 530 697 543 738 q 497 624 517 656 q 453 559 477 591 q 404 499 428 527 q 359 445 379 471 q 313 344 313 387 l 313 233 l 171 233 l 171 335 q 215 473 171 405 q 258 532 235 503 l 306 591 q 378 697 363 659 q 394 776 394 735 q 362 859 394 817 q 285 901 330 901 q 157 803 203 901 l 50 874 z "},"@":{"ha":1099,"x_min":45,"x_max":1055,"o":"m 587 547 q 479 505 517 547 q 441 401 441 463 q 532 279 441 279 q 603 309 567 279 q 644 358 639 339 l 644 532 q 587 547 618 547 m 651 218 q 492 156 601 156 q 322 266 375 156 q 296 381 296 320 q 375 591 296 503 q 567 678 455 678 q 651 656 618 678 l 662 692 l 783 692 l 783 275 q 794 234 783 244 q 816 219 806 223 q 846 213 830 213 q 902 276 878 213 q 926 438 926 340 q 882 621 926 536 q 754 756 838 707 q 559 806 670 806 q 350 746 450 806 q 189 528 227 674 q 175 405 175 473 q 202 270 175 337 q 277 150 229 202 q 398 67 325 98 q 543 37 472 37 q 716 71 666 37 l 732 81 l 800 -10 q 772 -34 800 -18 q 718 -62 744 -51 q 555 -90 652 -90 q 372 -59 458 -90 q 227 22 286 -28 q 125 140 168 73 q 45 416 45 267 q 76 609 45 522 q 159 751 108 695 q 278 846 210 808 q 550 918 405 918 q 809 853 695 918 q 989 674 922 789 q 1055 419 1055 559 q 1005 193 1055 287 q 940 118 981 146 q 833 91 899 91 q 713 123 768 91 q 651 218 659 156 z "},"A":{"ha":766,"x_min":1,"x_max":765,"o":"m 293 434 l 485 434 l 389 766 l 293 434 m 1 0 l 294 1027 l 472 1027 l 765 0 l 608 0 l 524 298 l 254 298 l 170 0 l 1 0 z "},"B":{"ha":779,"x_min":83,"x_max":741,"o":"m 245 602 l 412 602 q 531 655 481 602 q 570 763 570 696 q 412 891 570 891 l 245 891 l 245 602 m 245 136 l 419 136 q 553 181 514 136 q 587 292 587 218 q 541 406 587 352 q 419 463 493 463 l 245 463 l 245 136 m 83 0 l 83 1027 l 414 1027 q 640 956 559 1027 q 718 782 718 888 q 591 559 718 608 q 541 544 570 551 q 682 462 626 528 q 741 279 741 392 q 639 50 741 117 q 419 0 561 0 l 83 0 z "},"C":{"ha":802,"x_min":43,"x_max":775,"o":"m 54 387 q 43 515 43 450 q 53 644 43 581 q 83 767 63 707 q 135 877 103 827 q 209 966 168 928 q 428 1046 297 1046 q 690 880 594 1046 q 753 714 737 800 l 753 713 l 612 675 q 587 782 602 748 q 557 838 572 815 q 524 876 542 861 q 429 910 482 910 q 338 886 376 910 q 275 823 300 862 q 235 732 251 784 q 205 515 205 635 q 357 132 205 195 q 426 119 389 119 q 491 128 463 119 q 540 153 520 138 q 575 189 559 168 q 599 232 590 210 q 614 275 608 253 q 624 349 624 315 l 775 328 q 669 102 745 197 q 427 -18 572 -18 q 138 153 248 -18 q 54 387 77 248 z "},"D":{"ha":833,"x_min":83,"x_max":799,"o":"m 245 136 l 343 136 q 562 239 485 136 q 637 507 637 340 q 434 880 637 823 q 343 891 393 891 l 245 891 l 245 136 m 83 0 l 83 1027 l 326 1027 q 774 728 697 1027 q 799 527 799 633 q 784 349 799 421 q 734 211 770 276 q 646 100 699 146 q 326 0 530 0 l 83 0 z "},"E":{"ha":732,"x_min":83,"x_max":697,"o":"m 83 0 l 83 1027 l 671 1027 l 671 891 l 245 891 l 245 607 l 542 607 l 542 470 l 245 470 l 245 146 l 697 146 l 697 0 l 83 0 z "},"F":{"ha":706,"x_min":83,"x_max":671,"o":"m 83 0 l 83 1027 l 671 1027 l 671 891 l 245 891 l 245 607 l 542 607 l 542 470 l 245 470 l 245 0 l 83 0 z "},"G":{"ha":856,"x_min":42,"x_max":775,"o":"m 630 702 q 446 910 586 910 q 237 741 297 910 q 204 520 204 647 q 334 140 204 215 q 414 119 372 119 q 487 127 457 119 q 536 149 516 136 q 571 183 556 162 q 594 225 586 204 q 607 275 602 246 q 616 382 614 319 l 418 382 l 418 519 l 775 519 l 775 0 l 644 0 l 644 81 q 549 6 600 28 q 420 -18 493 -18 q 288 12 348 -18 q 183 93 227 41 q 106 213 139 144 q 42 522 42 349 q 104 817 42 686 q 293 1017 172 962 q 419 1046 359 1046 q 516 1038 480 1046 q 590 1007 553 1029 q 659 950 628 985 q 768 727 726 873 l 630 702 z "},"H":{"ha":865,"x_min":83,"x_max":782,"o":"m 83 0 l 83 1027 l 245 1027 l 245 608 l 620 608 l 620 1027 l 782 1027 l 782 0 l 620 0 l 620 471 l 245 471 l 245 0 l 83 0 z "},"I":{"ha":296,"x_min":67,"x_max":229,"o":"m 67 0 l 67 1027 l 229 1027 l 229 0 l 67 0 z "},"J":{"ha":616,"x_min":1,"x_max":532,"o":"m 1 197 l 97 246 q 197 132 123 167 q 253 119 227 119 q 294 123 279 119 q 318 133 308 127 q 337 149 329 138 q 351 171 345 160 q 360 197 356 181 q 366 226 363 213 q 369 258 368 239 q 370 326 370 286 l 370 1027 l 532 1027 l 532 286 q 347 -7 532 39 q 260 -18 307 -18 q 176 -6 214 -18 q 113 22 138 5 q 67 63 88 39 q 36 107 47 88 q 16 150 25 125 q 1 197 6 176 z "},"K":{"ha":781,"x_min":83,"x_max":779,"o":"m 83 0 l 83 1027 l 247 1027 l 247 570 l 589 1027 l 760 1027 l 456 627 l 779 0 l 601 0 l 352 490 l 247 352 l 247 0 l 83 0 z "},"L":{"ha":690,"x_min":83,"x_max":670,"o":"m 83 0 l 83 1027 l 245 1027 l 245 156 l 670 156 l 670 0 l 83 0 z "},"M":{"ha":1002,"x_min":79,"x_max":920,"o":"m 237 696 l 237 0 l 79 0 l 79 1027 l 298 1027 l 496 317 l 503 317 l 700 1027 l 920 1027 l 920 0 l 760 0 l 760 696 l 754 696 l 562 0 l 437 0 l 244 696 l 237 696 z "},"N":{"ha":863,"x_min":78,"x_max":783,"o":"m 622 397 l 622 1027 l 783 1027 l 783 0 l 654 0 l 239 788 l 239 0 l 78 0 l 78 1027 l 287 1027 l 622 397 z "},"O":{"ha":864,"x_min":43,"x_max":821,"o":"m 217 657 q 214 637 217 657 q 208 582 210 617 q 205 510 205 547 q 208 437 205 473 q 217 361 210 401 q 235 287 224 321 q 265 221 246 253 q 307 168 283 190 q 438 119 359 119 q 659 511 659 119 q 509 896 659 830 q 437 910 477 910 q 364 896 397 910 q 307 858 330 882 q 265 802 283 835 q 235 733 246 768 q 217 657 224 698 m 50 408 q 43 510 43 459 q 49 612 43 561 q 69 717 55 664 q 104 818 83 770 q 158 908 125 865 q 230 981 190 950 q 439 1046 316 1046 q 711 907 609 1046 q 821 510 821 755 q 715 117 821 260 q 439 -18 616 -18 q 165 117 272 -18 q 50 408 74 231 z "},"P":{"ha":781,"x_min":83,"x_max":746,"o":"m 584 756 q 357 891 584 891 l 245 891 l 245 583 l 357 583 q 523 628 462 583 q 584 756 584 673 m 83 0 l 83 1027 l 434 1027 q 702 918 625 1027 q 746 762 746 854 q 647 510 746 600 q 456 446 574 446 l 245 446 l 245 0 l 83 0 z "},"Q":{"ha":864,"x_min":43,"x_max":821,"o":"m 217 657 q 214 637 217 657 q 208 582 210 617 q 205 510 205 547 q 208 437 205 473 q 217 361 210 401 q 235 287 224 321 q 265 221 246 253 q 307 168 283 190 q 438 119 359 119 q 659 511 659 119 q 509 896 659 830 q 437 910 477 910 q 364 896 397 910 q 307 858 330 882 q 265 802 283 835 q 235 733 246 768 q 217 657 224 698 m 50 408 q 43 510 43 459 q 49 612 43 561 q 69 717 55 664 q 104 818 83 770 q 158 908 125 865 q 230 981 190 950 q 439 1046 316 1046 q 711 907 609 1046 q 821 510 821 755 q 715 117 821 260 q 511 -12 637 12 q 515 -43 513 -38 q 526 -58 519 -52 q 539 -65 532 -64 q 559 -68 546 -66 q 623 -71 575 -71 l 779 -71 l 779 -192 l 684 -192 q 517 -188 545 -192 q 468 -178 490 -183 q 437 -165 446 -172 q 415 -146 427 -158 q 398 -121 402 -135 q 388 -86 393 -106 q 380 -13 382 -62 q 165 117 253 7 q 50 408 74 231 z "},"R":{"ha":760,"x_min":83,"x_max":748,"o":"m 245 583 l 417 583 q 536 621 488 583 q 586 748 586 663 q 359 891 586 891 l 245 891 l 245 583 m 83 0 l 83 1027 l 429 1027 q 730 857 667 1027 q 748 755 748 808 q 736 659 748 702 q 701 578 724 615 q 551 475 650 496 l 741 0 l 575 0 l 397 446 l 245 446 l 245 0 l 83 0 z "},"S":{"ha":706,"x_min":16,"x_max":685,"o":"m 16 263 l 146 306 q 149 296 147 306 q 156 269 151 286 q 171 232 161 252 q 197 192 180 212 q 239 156 215 172 q 370 119 292 119 q 486 157 449 119 q 523 249 523 196 q 512 335 523 302 q 474 393 501 368 q 317 466 429 433 q 63 644 119 524 q 34 793 34 707 q 85 933 34 865 q 337 1046 174 1046 q 549 968 467 1046 q 637 830 608 913 l 650 794 q 659 773 656 778 l 526 726 q 387 902 481 869 q 337 910 363 910 q 196 765 196 910 q 235 663 196 699 q 321 615 268 633 l 353 604 q 384 594 381 595 l 414 584 q 570 512 530 543 q 648 427 630 466 q 685 260 685 348 q 646 119 685 191 q 478 -6 593 24 q 382 -18 434 -18 q 284 -8 330 -18 q 205 18 238 1 q 144 55 172 34 q 97 99 116 76 q 64 146 78 123 q 41 191 50 170 q 27 228 33 212 q 19 254 22 244 q 16 263 17 263 z "},"T":{"ha":720,"x_min":1,"x_max":718,"o":"m 1 891 l 1 1027 l 718 1027 l 718 891 l 441 891 l 441 0 l 279 0 l 279 891 l 1 891 z "},"U":{"ha":837,"x_min":83,"x_max":759,"o":"m 83 304 l 83 1027 l 245 1027 l 245 342 q 356 130 245 171 q 420 119 385 119 q 484 128 455 119 q 530 152 512 138 q 560 188 547 166 q 579 229 573 210 q 589 272 585 247 q 593 342 593 304 l 593 1027 l 759 1027 l 759 304 q 656 58 759 149 q 420 -18 572 -18 q 115 157 191 -18 q 83 304 83 229 z "},"V":{"ha":749,"x_min":1,"x_max":747,"o":"m 374 350 l 576 1027 l 747 1027 l 442 0 l 307 0 l 1 1027 l 173 1027 l 374 350 z "},"W":{"ha":1095,"x_min":1,"x_max":1093,"o":"m 1 1027 l 169 1027 l 319 338 l 326 338 l 473 1027 l 627 1027 l 772 338 l 780 338 l 930 1027 l 1093 1027 l 855 0 l 704 0 l 553 717 l 547 717 l 393 0 l 239 0 l 1 1027 z "},"X":{"ha":750,"x_min":1,"x_max":749,"o":"m 749 0 l 582 0 l 377 363 l 172 0 l 4 0 l 293 511 l 1 1027 l 167 1027 l 372 667 l 570 1027 l 736 1027 l 453 522 l 749 0 z "},"Y":{"ha":761,"x_min":1,"x_max":760,"o":"m 461 475 l 461 0 l 300 0 l 300 475 l 1 1027 l 172 1027 l 380 639 l 589 1027 l 760 1027 l 461 475 z "},"Z":{"ha":785,"x_min":30,"x_max":755,"o":"m 30 0 l 30 92 l 527 887 l 66 887 l 66 1027 l 743 1027 l 743 918 l 273 156 l 755 156 l 755 0 l 30 0 z "},"[":{"ha":420,"x_min":60,"x_max":384,"o":"m 60 -205 l 60 1116 l 384 1116 l 384 1015 l 221 1015 l 221 -103 l 384 -103 l 384 -205 l 60 -205 z "},"\\":{"ha":683,"x_min":13,"x_max":661,"o":"m 661 -9 l 545 -64 l 13 1035 l 144 1096 l 661 -9 z "},"]":{"ha":420,"x_min":36,"x_max":360,"o":"m 360 -205 l 36 -205 l 36 -103 l 199 -103 l 199 1015 l 36 1015 l 36 1116 l 360 1116 l 360 -205 z "},"^":{"ha":431,"x_min":47,"x_max":384,"o":"m 47 812 l 215 981 l 384 812 l 320 749 l 216 853 l 111 748 l 47 812 z "},"_":{"ha":764,"x_min":54,"x_max":710,"o":"m 54 0 l 54 123 l 710 123 l 710 0 l 54 0 z "},"`":{"ha":479,"x_min":104,"x_max":405,"o":"m 104 946 l 183 1029 l 405 800 l 346 742 l 104 946 z "},"a":{"ha":637,"x_min":47,"x_max":598,"o":"m 193 184 q 212 126 193 144 q 261 109 232 109 q 305 112 290 109 q 334 122 319 115 l 359 135 q 383 152 370 141 l 403 168 q 420 183 408 172 l 433 195 l 433 362 q 234 286 281 327 q 193 184 193 250 m 453 0 q 433 63 433 12 l 420 48 q 253 -14 361 -14 q 73 79 121 -14 q 47 185 47 125 q 69 293 47 245 q 138 376 90 340 q 433 482 226 441 q 430 541 433 530 q 423 562 427 552 q 414 576 419 571 q 400 587 408 581 q 381 596 392 593 q 322 603 355 603 q 262 593 290 603 q 217 571 234 583 q 187 543 201 559 q 162 505 170 521 l 67 563 q 119 645 97 625 q 161 681 140 666 q 206 705 182 696 q 322 726 263 726 q 416 719 381 726 q 483 696 451 713 q 534 652 514 680 q 578 475 578 591 l 578 101 q 585 47 578 82 q 598 0 592 13 l 453 0 z "},"b":{"ha":681,"x_min":43,"x_max":649,"o":"m 353 605 q 207 535 274 605 l 207 193 q 216 181 208 193 q 235 159 225 169 q 261 137 245 149 q 340 111 295 111 q 414 123 385 111 q 459 156 442 136 q 486 208 476 176 q 504 336 504 261 q 495 459 504 411 q 472 534 486 507 q 437 578 458 562 q 353 605 404 605 m 207 54 q 196 0 201 0 l 43 0 q 62 97 62 43 l 62 1027 l 207 1027 l 207 668 q 258 707 219 686 q 349 728 296 728 q 446 716 402 728 q 521 684 490 704 q 575 635 552 665 q 612 574 599 606 q 635 501 626 542 q 649 363 649 433 q 639 242 649 292 q 606 146 629 193 q 550 64 583 100 q 357 -12 477 -12 q 207 54 258 -12 z "},"c":{"ha":635,"x_min":40,"x_max":592,"o":"m 40 353 q 133 656 40 566 q 338 728 206 728 q 545 616 470 728 q 578 549 569 581 l 456 495 q 410 583 450 551 q 343 605 383 605 q 185 359 185 605 q 227 174 185 237 q 347 111 268 111 q 437 151 403 111 q 481 227 467 186 l 592 178 q 526 63 576 117 q 343 -12 454 -12 q 40 353 40 -12 z "},"d":{"ha":673,"x_min":40,"x_max":646,"o":"m 482 535 q 336 605 415 605 q 217 534 253 605 q 185 347 185 471 q 230 156 185 209 q 342 111 268 111 q 473 180 421 111 q 482 193 481 193 l 482 535 m 627 97 q 646 0 627 50 l 493 0 q 489 9 491 3 l 482 54 q 332 -12 431 -12 q 83 146 161 -12 q 40 345 40 234 q 168 684 40 603 q 341 728 235 728 q 432 707 393 728 q 482 668 470 686 l 482 1027 l 627 1027 l 627 97 z "},"e":{"ha":635,"x_min":40,"x_max":597,"o":"m 192 442 l 443 442 q 425 534 443 495 q 327 605 389 605 q 261 588 290 605 q 219 545 233 572 q 192 442 192 496 m 78 139 q 68 162 78 139 q 48 234 57 185 q 40 358 40 283 q 58 504 40 433 q 103 616 75 574 q 170 684 131 658 q 328 728 237 728 q 477 677 414 728 q 591 319 597 581 l 185 319 q 258 135 185 182 q 336 111 295 111 q 404 121 377 111 q 448 144 431 131 q 477 174 464 157 q 503 214 496 197 l 595 155 q 488 30 545 67 q 349 -12 425 -12 q 220 7 273 -12 q 133 60 167 27 q 78 139 100 92 z "},"f":{"ha":401,"x_min":1,"x_max":397,"o":"m 344 1038 q 397 1027 394 1038 l 397 906 l 351 906 q 279 893 296 905 q 250 838 250 871 l 250 715 l 397 715 l 397 593 l 250 593 l 250 0 l 104 0 l 104 593 l 1 593 l 1 715 l 104 715 l 104 869 q 344 1038 104 1038 z "},"g":{"ha":684,"x_min":14,"x_max":673,"o":"m 532 277 q 514 259 532 277 q 443 221 496 241 q 336 201 390 201 q 247 214 281 201 q 224 197 241 208 q 193 152 193 176 q 295 108 193 120 q 319 105 314 105 q 343 104 323 104 q 374 103 363 104 q 409 100 385 103 q 454 93 433 98 q 604 37 571 66 q 671 -110 671 -24 q 338 -307 671 -307 q 109 -260 199 -307 q 14 -111 14 -212 q 144 28 14 -21 q 75 64 103 34 q 47 136 47 94 q 152 268 47 222 q 87 348 117 286 q 57 479 57 410 q 96 607 57 549 q 201 696 135 665 q 350 728 268 728 q 428 713 388 728 q 486 684 469 699 q 610 728 544 726 q 642 729 620 729 q 673 730 663 730 l 673 608 l 670 608 q 582 603 604 614 q 575 596 575 600 q 583 572 576 593 q 595 539 591 551 q 606 456 606 501 q 587 362 606 411 q 532 277 568 313 m 341 605 q 310 605 341 605 q 240 570 279 605 q 202 468 202 534 q 237 362 202 401 q 340 324 272 324 q 454 419 428 324 q 461 467 461 443 q 454 514 461 491 q 434 558 448 537 q 341 605 404 605 m 183 -53 q 177 -61 183 -53 q 164 -83 170 -68 q 158 -113 158 -97 q 164 -140 158 -129 q 179 -158 170 -151 q 203 -171 188 -165 q 231 -179 218 -176 q 264 -182 244 -181 q 322 -184 291 -184 q 367 -184 353 -184 q 404 -182 380 -184 q 441 -178 427 -181 q 474 -170 456 -175 q 501 -156 492 -164 q 526 -109 526 -137 q 503 -63 526 -81 q 444 -36 479 -45 q 374 -23 409 -28 q 307 -16 338 -18 q 267 -9 275 -13 q 183 -53 196 -38 z "},"h":{"ha":676,"x_min":81,"x_max":611,"o":"m 611 536 l 611 0 l 466 0 l 466 498 q 436 576 466 547 q 366 605 407 605 q 286 581 326 605 q 226 533 245 557 l 226 0 l 81 0 l 81 1027 l 226 1027 l 226 640 q 409 728 314 728 q 551 683 494 728 q 611 536 611 635 z "},"i":{"ha":294,"x_min":62,"x_max":227,"o":"m 72 0 l 72 715 l 217 715 l 217 0 l 72 0 m 62 778 l 62 943 l 227 943 l 227 778 l 62 778 z "},"j":{"ha":270,"x_min":-41,"x_max":241,"o":"m -41 -112 q 57 -90 27 -112 q 87 15 87 -68 l 87 715 l 232 715 l 232 -5 q 195 -166 232 -120 q 169 -195 180 -184 q 135 -214 157 -206 q 98 -226 113 -222 q 56 -232 83 -230 q -35 -235 20 -235 l -41 -112 m 77 778 l 77 943 l 241 943 l 241 778 l 77 778 z "},"k":{"ha":627,"x_min":84,"x_max":624,"o":"m 84 0 l 84 1027 l 229 1027 l 229 449 l 435 715 l 612 715 l 404 451 l 624 0 l 460 0 l 304 323 l 229 229 l 229 0 l 84 0 z "},"l":{"ha":306,"x_min":84,"x_max":229,"o":"m 84 -2 l 84 1027 l 229 1027 l 229 -2 l 84 -2 z "},"m":{"ha":1082,"x_min":75,"x_max":1017,"o":"m 220 640 q 416 728 308 728 q 528 703 479 728 q 600 627 577 677 q 801 728 701 728 q 949 683 887 728 q 1017 536 1017 635 l 1017 0 l 871 0 l 871 498 q 836 576 871 547 q 759 605 801 605 q 677 581 718 605 q 618 533 637 557 l 618 0 l 473 0 l 473 498 q 443 576 473 547 q 373 605 414 605 q 285 580 332 605 q 220 533 238 555 l 220 0 l 75 0 l 75 715 l 220 715 l 220 640 z "},"n":{"ha":670,"x_min":75,"x_max":605,"o":"m 605 536 l 605 0 l 460 0 l 460 498 q 430 576 460 547 q 360 605 401 605 q 279 581 319 605 q 220 533 239 557 l 220 0 l 75 0 l 75 715 l 220 715 l 220 640 q 302 703 259 679 q 403 728 345 728 q 548 680 491 728 q 605 536 605 632 z "},"o":{"ha":666,"x_min":40,"x_max":626,"o":"m 189 440 q 185 363 185 404 q 189 288 185 321 q 204 222 193 255 q 231 164 214 189 q 334 110 267 110 q 481 357 481 110 q 437 559 481 503 q 334 605 402 605 q 189 440 208 605 m 40 358 q 118 628 40 528 q 334 728 197 728 q 491 682 425 728 q 626 357 626 587 q 447 5 626 71 q 334 -13 397 -13 q 220 5 271 -13 q 137 56 170 24 q 81 136 104 89 q 40 358 40 224 z "},"p":{"ha":698,"x_min":80,"x_max":667,"o":"m 225 180 q 372 111 292 111 q 490 182 454 111 q 522 369 522 244 q 477 559 522 507 q 365 605 439 605 q 235 535 287 605 q 225 522 226 523 l 225 180 m 225 662 q 376 728 277 728 q 624 570 547 728 q 667 371 667 481 q 540 31 667 113 q 366 -12 472 -12 q 276 8 315 -12 q 225 47 237 29 l 225 -278 l 80 -278 l 80 715 l 225 715 l 225 662 z "},"q":{"ha":684,"x_min":40,"x_max":627,"o":"m 482 180 q 482 522 482 180 q 473 535 481 523 q 342 605 421 605 q 230 559 268 605 q 185 369 185 507 q 217 182 185 244 q 336 111 253 111 q 482 180 415 111 m 482 662 l 493 715 l 627 715 l 627 -278 l 482 -278 l 482 47 q 432 8 470 29 q 341 -12 393 -12 q 168 31 235 -12 q 40 371 40 113 q 83 570 40 481 q 332 728 161 728 q 482 662 431 728 z "},"r":{"ha":441,"x_min":75,"x_max":438,"o":"m 75 0 l 75 715 l 220 715 l 220 617 q 232 635 222 621 l 248 659 q 414 728 298 728 q 438 726 426 728 l 438 604 q 260 536 315 602 q 220 459 236 506 l 220 0 l 75 0 z "},"s":{"ha":604,"x_min":45,"x_max":558,"o":"m 45 144 l 146 205 q 190 151 170 171 q 311 103 238 103 q 395 127 370 103 q 418 195 418 150 q 385 273 418 247 q 326 303 355 295 l 262 321 q 103 406 152 353 q 54 547 54 459 q 115 673 54 623 q 302 728 180 728 q 490 653 411 728 q 532 600 524 621 l 448 533 q 353 604 401 591 q 289 612 329 612 q 221 591 250 612 q 193 532 193 571 q 233 461 193 486 q 304 428 269 439 l 366 411 q 544 273 509 370 q 558 180 558 234 q 525 81 558 126 q 436 12 491 37 q 325 -12 381 -12 q 233 -5 269 -12 q 163 18 197 1 q 45 144 97 52 z "},"t":{"ha":416,"x_min":12,"x_max":413,"o":"m 12 593 l 12 715 l 118 715 l 118 977 l 263 977 l 263 715 l 413 715 l 413 593 l 263 593 l 263 209 q 284 130 263 151 q 353 109 304 109 q 393 111 373 109 q 413 115 413 114 l 413 12 q 356 -9 376 -5 q 308 -14 336 -14 q 265 -14 279 -14 q 231 -9 251 -13 q 196 2 211 -5 q 166 23 182 9 q 140 56 151 37 q 118 168 118 99 l 118 593 l 12 593 z "},"u":{"ha":677,"x_min":80,"x_max":610,"o":"m 80 179 l 80 715 l 225 715 l 225 217 q 255 139 225 168 q 325 111 284 111 q 405 135 365 111 q 465 182 446 159 l 465 715 l 610 715 l 610 0 l 465 0 l 465 76 q 282 -12 377 -12 q 140 33 197 -12 q 80 179 80 81 z "},"v":{"ha":611,"x_min":3,"x_max":607,"o":"m 3 715 l 157 715 l 304 211 l 454 715 l 607 715 l 387 0 l 219 0 l 3 715 z "},"w":{"ha":894,"x_min":4,"x_max":891,"o":"m 346 0 l 198 0 l 4 715 l 155 715 l 279 252 l 385 715 l 510 715 l 616 253 l 740 715 l 891 715 l 696 0 l 548 0 l 448 442 l 346 0 z "},"x":{"ha":610,"x_min":1,"x_max":606,"o":"m 1 715 l 157 715 l 290 505 l 428 715 l 583 715 l 366 383 l 606 0 l 450 0 l 301 237 l 158 0 l 1 0 l 222 363 l 1 715 z "},"y":{"ha":612,"x_min":1,"x_max":609,"o":"m 1 715 l 163 715 l 313 286 l 448 715 l 609 715 l 370 -22 q 311 -168 334 -133 q 268 -224 287 -203 q 226 -256 248 -244 q 16 -275 155 -296 q 9 -275 9 -275 l 16 -140 q 82 -151 41 -151 q 148 -140 123 -151 q 188 -112 173 -129 q 214 -74 203 -95 q 231 -33 225 -54 q 241 43 241 9 l 1 715 z "},"z":{"ha":539,"x_min":1,"x_max":536,"o":"m 1 0 l 1 93 l 323 593 l 38 593 l 38 715 l 524 715 l 524 634 l 205 132 l 536 132 l 536 0 l 1 0 z "},"{":{"ha":535,"x_min":83,"x_max":490,"o":"m 83 394 q 83 522 83 394 q 193 563 161 522 q 226 688 226 604 q 199 765 226 722 q 181 811 190 781 q 173 885 173 842 q 183 964 173 927 q 490 1133 227 1133 l 490 1017 q 340 966 388 1017 q 308 918 319 943 q 298 872 298 892 q 311 820 298 852 q 351 671 351 726 q 307 531 351 591 q 196 458 264 471 q 307 385 264 445 q 351 257 351 324 q 311 96 351 190 q 298 43 298 64 q 309 -2 298 23 q 490 -101 349 -101 l 490 -217 q 275 -172 351 -217 q 216 -118 239 -150 q 183 -49 193 -86 q 173 48 173 -12 q 208 164 173 108 q 226 228 226 194 q 193 352 226 311 q 83 394 161 393 z "},"|":{"ha":243,"x_min":43,"x_max":205,"o":"m 43 -96 l 43 1060 l 205 1060 l 205 -96 l 43 -96 z "},"}":{"ha":535,"x_min":45,"x_max":452,"o":"m 452 394 q 342 352 375 393 q 309 228 309 311 q 328 163 309 193 q 362 43 362 109 q 346 -68 362 -23 q 294 -146 330 -113 q 45 -217 220 -217 l 45 -101 q 227 -2 185 -101 q 237 43 237 23 q 224 95 237 64 q 184 257 184 190 q 228 385 184 324 q 339 458 271 445 q 228 531 271 471 q 184 671 184 591 q 224 821 184 726 q 237 872 237 852 q 227 918 237 892 q 195 966 216 943 q 45 1017 148 1017 l 45 1133 q 346 983 293 1133 q 362 890 362 939 q 354 811 362 842 q 336 765 346 781 q 309 688 309 723 q 342 563 309 604 q 452 522 375 522 l 452 394 z "},"~":{"ha":541,"x_min":32,"x_max":509,"o":"m 509 890 q 358 754 461 754 q 257 785 301 754 q 185 815 212 815 q 145 801 159 815 q 120 759 132 787 l 32 800 q 93 898 47 861 q 175 935 138 935 q 239 925 212 935 q 281 903 265 915 q 357 872 325 872 q 395 888 383 872 q 418 932 410 909 l 509 890 z "}," ":{"ha":347,"x_min":0,"x_max":0,"o":""},"¡":{"ha":232,"x_min":33,"x_max":199,"o":"m 199 -115 l 35 -115 l 60 631 l 174 631 l 199 -115 m 198 866 l 198 701 l 33 701 l 33 866 l 198 866 z "},"¢":{"ha":675,"x_min":67,"x_max":618,"o":"m 284 593 q 226 515 239 573 q 212 355 212 458 q 225 197 212 252 q 284 124 239 141 l 284 593 m 67 340 q 67 364 67 340 q 71 422 67 387 q 82 498 74 456 q 106 575 90 539 q 146 643 123 611 q 284 721 195 710 l 284 872 l 429 872 l 429 724 q 505 692 471 715 q 556 640 538 668 q 602 540 594 581 l 605 522 l 488 494 q 457 577 488 540 q 429 600 446 591 l 429 117 q 478 158 457 130 q 505 210 498 187 l 511 233 l 618 194 l 613 175 q 505 24 583 79 q 429 -9 470 -1 l 429 -163 l 284 -163 l 284 -5 q 145 75 195 5 q 81 219 96 143 q 67 340 67 294 z "},"£":{"ha":758,"x_min":16,"x_max":728,"o":"m 262 331 q 241 151 262 171 l 454 151 q 616 203 562 151 q 636 232 629 215 l 728 130 q 726 125 728 130 q 720 114 724 120 q 706 94 717 108 q 683 68 696 79 q 647 44 670 58 q 595 22 623 31 q 435 0 528 0 l 72 0 l 72 90 q 95 191 83 116 q 107 316 107 265 l 107 397 l 16 397 l 16 547 l 107 547 l 107 631 q 139 887 107 814 q 235 998 174 966 q 431 1038 311 1038 q 491 1034 454 1038 q 528 1027 527 1030 l 528 905 l 458 907 q 311 865 349 907 q 280 815 288 839 q 270 773 273 791 q 265 729 267 755 q 262 621 262 686 l 262 547 l 450 547 l 450 397 l 262 397 l 262 331 z "},"¤":{"ha":529,"x_min":31,"x_max":498,"o":"m 201 571 q 187 557 201 571 q 174 505 174 544 q 201 439 174 467 q 267 412 228 412 q 332 439 305 412 q 359 505 359 467 q 332 571 359 544 q 267 598 305 598 q 201 571 228 598 m 100 404 q 72 505 72 449 q 100 606 72 561 l 31 675 l 94 738 l 162 669 q 267 700 208 700 q 367 672 323 700 l 434 739 l 498 675 l 432 608 q 461 505 461 563 q 431 400 461 446 l 497 334 l 434 271 l 367 338 q 267 311 322 311 q 164 340 210 311 l 95 271 l 31 335 l 100 404 z "},"¥":{"ha":761,"x_min":3,"x_max":758,"o":"m 3 1027 l 175 1027 l 380 644 l 586 1027 l 758 1027 l 455 467 l 621 467 l 621 366 l 458 366 l 458 286 l 621 286 l 621 185 l 458 185 l 458 0 l 302 0 l 302 185 l 153 185 l 153 286 l 302 286 l 302 366 l 153 366 l 153 467 l 306 467 l 3 1027 z "},"¦":{"ha":250,"x_min":43,"x_max":205,"o":"m 43 538 l 43 1060 l 205 1060 l 205 538 l 43 538 m 43 -96 l 43 420 l 205 420 l 205 -96 l 43 -96 z "},"§":{"ha":605,"x_min":46,"x_max":559,"o":"m 535 296 q 545 273 541 285 q 559 180 559 234 q 525 81 559 126 q 437 12 492 37 q 326 -12 382 -12 q 234 -5 271 -12 q 163 18 197 1 q 46 144 98 52 l 146 205 q 191 151 170 171 q 312 103 239 103 q 396 127 371 103 q 419 195 419 150 q 386 273 419 247 q 327 303 356 295 l 263 321 q 104 406 153 353 q 54 547 54 459 q 81 637 54 599 q 54 748 54 683 q 116 874 54 823 q 302 928 181 928 q 490 854 412 928 q 533 800 524 822 l 449 734 q 354 805 401 791 q 290 812 330 812 q 222 792 250 812 q 194 732 194 772 q 234 662 194 687 q 305 629 269 640 l 366 612 q 545 474 510 571 q 559 382 559 435 q 535 296 559 335 m 195 546 q 194 532 194 539 q 234 461 194 486 q 305 428 269 439 l 366 411 q 419 393 395 403 q 415 428 418 416 q 404 453 410 443 q 386 473 398 464 q 363 488 373 483 q 336 500 354 494 q 308 510 319 507 l 263 522 q 195 546 226 532 z "},"¨":{"ha":444,"x_min":11,"x_max":433,"o":"m 269 816 l 269 981 l 433 981 l 433 816 l 269 816 m 11 816 l 11 981 l 175 981 l 175 816 l 11 816 z "},"©":{"ha":745,"x_min":40,"x_max":705,"o":"m 513 433 q 376 305 479 305 q 293 334 328 305 q 226 503 226 387 q 262 640 226 583 q 376 701 301 701 q 490 623 454 701 q 505 577 501 597 l 445 563 q 406 633 437 612 q 371 642 391 642 q 333 622 350 642 q 301 503 301 584 q 377 363 301 363 q 444 420 422 363 q 450 441 449 432 l 513 433 m 66 374 q 53 405 66 374 q 40 503 40 436 q 66 632 40 570 q 138 738 93 694 q 244 809 182 783 q 373 836 305 836 q 502 809 440 836 q 608 738 563 783 q 679 632 652 694 q 705 503 705 570 q 679 374 705 436 q 608 268 652 313 q 502 197 563 224 q 373 171 440 171 q 244 197 305 171 q 138 268 182 224 q 66 374 93 313 m 146 636 q 129 606 146 636 q 111 505 111 576 q 146 373 111 433 q 241 278 181 313 q 373 243 302 243 q 504 278 444 243 q 599 373 564 313 q 634 505 634 433 q 599 636 634 576 q 504 731 564 696 q 373 766 444 766 q 241 731 302 766 q 146 636 181 696 z "},"ª":{"ha":376,"x_min":68,"x_max":308,"o":"m 167 762 q 236 799 193 762 l 236 872 q 156 844 182 860 q 131 799 131 828 q 167 762 131 762 m 236 741 q 167 708 203 708 q 113 716 132 708 q 85 738 94 724 q 68 792 68 763 q 106 878 68 850 q 236 924 144 907 q 216 973 236 966 q 189 977 205 977 q 161 972 174 977 q 142 962 149 968 q 129 950 134 957 q 118 934 121 941 l 77 960 q 121 1013 95 998 q 197 1030 150 1030 q 272 1007 245 1030 q 299 921 299 983 l 299 758 q 308 714 299 732 l 245 714 q 236 741 236 720 z "},"«":{"ha":693,"x_min":75,"x_max":595,"o":"m 75 865 l 275 1067 l 345 994 l 217 865 l 346 735 l 274 663 l 75 865 m 324 865 l 525 1067 l 594 994 l 467 865 l 595 735 l 524 663 l 324 865 z "},"¬":{"ha":814,"x_min":54,"x_max":715,"o":"m 54 452 l 54 576 l 715 576 l 715 230 l 593 230 l 593 452 l 54 452 z "},"­":{"ha":766,"x_min":68,"x_max":698,"o":"m 68 452 l 68 553 l 698 553 l 698 452 l 68 452 z "},"®":{"ha":745,"x_min":40,"x_max":705,"o":"m 385 534 q 433 578 433 534 q 416 607 433 600 q 363 615 399 615 l 327 615 l 327 534 l 385 534 m 257 334 l 257 680 l 404 680 q 504 609 481 680 q 509 572 509 593 q 494 518 509 551 q 449 475 479 486 l 510 334 l 431 334 l 368 471 l 327 471 l 327 334 l 257 334 m 66 374 q 53 405 66 374 q 40 503 40 436 q 66 632 40 570 q 138 738 93 694 q 244 809 182 783 q 373 836 305 836 q 502 809 440 836 q 608 738 563 783 q 679 632 652 694 q 705 503 705 570 q 679 374 705 436 q 608 268 652 313 q 502 197 563 224 q 373 171 440 171 q 244 197 305 171 q 138 268 182 224 q 66 374 93 313 m 146 636 q 129 606 146 636 q 111 505 111 576 q 146 373 111 433 q 241 278 181 313 q 373 243 302 243 q 504 278 444 243 q 599 373 564 313 q 634 505 634 433 q 599 636 634 576 q 504 731 564 696 q 373 766 444 766 q 241 731 302 766 q 146 636 181 696 z "},"¯":{"ha":547,"x_min":67,"x_max":480,"o":"m 67 816 l 67 917 l 480 917 l 480 816 l 67 816 z "},"°":{"ha":541,"x_min":76,"x_max":465,"o":"m 205 907 q 191 894 205 907 q 178 842 178 880 q 205 776 178 803 q 271 749 232 749 q 336 776 309 749 q 363 842 363 803 q 336 907 363 880 q 271 935 309 935 q 205 907 232 935 m 133 704 q 105 732 133 704 q 76 842 76 761 q 133 979 76 922 q 271 1036 191 1036 q 408 979 351 1036 q 465 842 465 922 q 408 704 465 761 q 271 647 351 647 q 133 704 191 647 z "},"±":{"ha":621,"x_min":23,"x_max":593,"o":"m 23 128 l 23 274 l 593 274 l 593 128 l 23 128 m 23 542 l 23 688 l 236 688 l 236 901 l 381 901 l 381 688 l 593 688 l 593 542 l 381 542 l 381 329 l 236 329 l 236 542 l 23 542 z "},"²":{"ha":340,"x_min":64,"x_max":271,"o":"m 64 715 q 88 802 64 768 q 159 867 116 839 q 212 909 203 895 q 222 944 222 924 q 209 978 222 965 q 171 991 196 991 q 134 973 145 991 q 122 934 122 956 l 73 934 q 101 1005 73 977 q 174 1032 130 1032 q 245 1006 218 1032 q 271 955 271 981 q 265 914 271 930 q 245 884 258 898 q 198 843 227 863 q 144 798 170 822 q 118 763 119 774 l 267 763 l 267 715 l 64 715 z "},"³":{"ha":346,"x_min":68,"x_max":277,"o":"m 77 982 q 182 1029 110 1029 q 242 1004 217 1029 q 267 952 267 979 q 254 904 267 926 q 229 876 241 882 q 262 847 247 870 q 277 793 277 824 q 252 735 277 762 q 181 709 227 709 q 68 764 108 709 l 101 791 q 168 751 136 751 q 229 800 229 751 q 213 837 229 820 q 175 854 198 854 l 132 854 l 132 896 l 175 896 q 207 911 196 896 q 218 944 218 926 q 206 975 218 962 q 164 987 193 987 q 105 955 136 987 l 77 982 z "},"´":{"ha":451,"x_min":75,"x_max":376,"o":"m 376 947 l 134 743 l 75 801 l 297 1030 l 376 947 z "},"µ":{"ha":693,"x_min":80,"x_max":610,"o":"m 225 -278 l 80 -278 l 80 715 l 225 715 l 225 217 q 255 139 225 168 q 325 111 284 111 q 405 135 365 111 q 465 182 446 159 l 465 715 l 610 715 l 610 0 l 465 0 l 465 76 q 282 -12 377 -12 q 225 -7 252 -12 l 225 -278 z "},"¶":{"ha":773,"x_min":35,"x_max":694,"o":"m 446 551 l 540 551 l 540 891 l 446 891 l 446 551 m 198 766 q 197 730 197 749 q 199 692 197 711 q 207 650 201 673 q 223 607 214 626 q 292 562 247 563 l 292 881 q 198 766 206 873 m 35 720 q 39 780 35 753 q 51 836 42 806 q 74 893 60 866 q 111 945 88 920 q 161 987 133 970 q 316 1027 223 1027 l 694 1027 l 694 0 l 540 0 l 540 414 l 446 414 l 446 0 l 292 0 l 292 414 q 78 556 153 414 q 35 720 35 637 z "},"·":{"ha":233,"x_min":34,"x_max":199,"o":"m 34 505 l 34 669 l 199 669 l 199 505 l 34 505 z "},"¸":{"ha":231,"x_min":4,"x_max":197,"o":"m 132 0 q 197 -146 197 -65 q 121 -225 197 -202 q 4 -235 76 -239 l 4 -132 q 89 -101 89 -132 q 51 0 89 -47 l 132 0 z "},"¹":{"ha":311,"x_min":79,"x_max":227,"o":"m 79 1004 l 146 1027 l 182 1027 l 182 762 l 227 762 l 227 715 l 83 715 l 83 762 l 133 762 l 133 981 l 93 969 l 79 1004 z "},"º":{"ha":385,"x_min":64,"x_max":319,"o":"m 127 872 q 192 764 127 764 q 256 872 256 764 q 242 952 256 924 q 192 980 229 980 q 142 952 156 980 q 127 872 127 924 m 319 872 q 192 711 319 711 q 64 872 64 711 q 98 990 64 946 q 191 1034 132 1034 q 285 989 251 1034 q 319 872 319 945 z "},"»":{"ha":648,"x_min":75,"x_max":595,"o":"m 595 865 l 395 663 l 326 736 l 453 865 l 324 996 l 396 1067 l 595 865 m 346 865 l 145 663 l 76 736 l 203 865 l 75 996 l 146 1067 l 346 865 z "},"¼":{"ha":782,"x_min":39,"x_max":747,"o":"m 462 186 l 588 186 l 588 382 l 462 186 m 374 119 l 374 184 l 588 512 l 669 512 l 669 186 l 747 186 l 747 119 l 669 119 l 669 0 l 588 0 l 588 119 l 374 119 m 39 989 l 150 1027 l 209 1027 l 209 593 l 283 593 l 283 515 l 45 515 l 45 593 l 127 593 l 127 951 l 62 932 l 39 989 m 78 -32 l 585 1054 l 692 1054 l 185 -32 l 78 -32 z "},"½":{"ha":794,"x_min":39,"x_max":755,"o":"m 39 989 l 150 1027 l 209 1027 l 209 593 l 283 593 l 283 515 l 45 515 l 45 593 l 127 593 l 127 951 l 62 932 l 39 989 m 78 -32 l 585 1054 l 692 1054 l 185 -32 l 78 -32 m 414 -9 q 426 77 414 52 q 450 124 437 102 q 482 164 463 145 q 585 248 527 210 q 658 309 642 286 q 674 366 674 332 q 653 421 674 400 q 601 442 631 442 q 552 433 570 442 q 526 408 535 424 q 510 349 510 380 l 429 349 q 477 465 429 420 q 597 510 525 510 q 712 468 669 510 q 755 372 755 427 q 667 224 755 293 q 621 190 653 213 q 548 126 589 166 q 503 69 506 87 l 747 69 l 747 -9 l 414 -9 z "},"¾":{"ha":835,"x_min":41,"x_max":800,"o":"m 515 186 l 641 186 l 641 382 l 515 186 m 427 119 l 427 184 l 641 512 l 722 512 l 722 186 l 800 186 l 800 119 l 722 119 l 722 0 l 641 0 l 641 119 l 427 119 m 131 -32 l 638 1054 l 745 1054 l 238 -32 l 131 -32 m 41 612 l 95 655 q 216 589 144 589 q 280 610 256 589 q 304 666 304 631 q 278 730 304 702 q 216 759 253 759 l 145 759 l 145 828 l 216 828 q 269 852 250 828 q 288 907 288 877 q 267 958 288 937 q 212 978 245 978 q 102 925 153 978 l 54 969 q 123 1024 77 1002 q 227 1046 169 1046 q 327 1004 285 1046 q 368 920 368 963 q 346 840 368 877 q 304 795 324 804 q 359 747 334 785 q 385 674 385 709 q 374 613 385 639 q 345 567 364 588 q 227 522 303 522 q 41 612 104 522 z "},"¿":{"ha":583,"x_min":50,"x_max":543,"o":"m 435 1035 l 435 870 l 271 870 l 271 1035 l 435 1035 m 543 161 q 435 31 495 66 q 308 0 380 0 q 177 33 235 0 q 85 126 120 66 q 50 241 50 185 q 63 338 50 297 q 96 411 75 378 q 140 476 116 444 q 190 536 165 508 q 235 590 214 564 q 280 691 280 648 l 280 802 l 422 802 l 422 700 q 378 562 422 630 q 334 503 358 532 l 287 444 q 215 338 230 376 q 199 259 199 300 q 232 176 199 218 q 309 134 264 134 q 437 232 390 134 l 543 161 z "},"À":{"ha":766,"x_min":1,"x_max":765,"o":"m 293 434 l 485 434 l 389 766 l 293 434 m 1 0 l 294 1027 l 472 1027 l 765 0 l 608 0 l 524 298 l 254 298 l 170 0 l 1 0 z "},"Á":{"ha":766,"x_min":1,"x_max":765,"o":"m 293 434 l 485 434 l 389 766 l 293 434 m 1 0 l 294 1027 l 472 1027 l 765 0 l 608 0 l 524 298 l 254 298 l 170 0 l 1 0 z "},"Â":{"ha":766,"x_min":1,"x_max":765,"o":"m 293 434 l 485 434 l 389 766 l 293 434 m 1 0 l 294 1027 l 472 1027 l 765 0 l 608 0 l 524 298 l 254 298 l 170 0 l 1 0 z "},"Ã":{"ha":766,"x_min":1,"x_max":765,"o":"m 293 434 l 485 434 l 389 766 l 293 434 m 1 0 l 294 1027 l 472 1027 l 765 0 l 608 0 l 524 298 l 254 298 l 170 0 l 1 0 z "},"Ä":{"ha":766,"x_min":1,"x_max":765,"o":"m 431 1129 l 431 1294 l 595 1294 l 595 1129 l 431 1129 m 173 1129 l 173 1294 l 337 1294 l 337 1129 l 173 1129 m 293 434 l 485 434 l 389 766 l 293 434 m 1 0 l 294 1027 l 472 1027 l 765 0 l 608 0 l 524 298 l 254 298 l 170 0 l 1 0 z "},"Å":{"ha":766,"x_min":1,"x_max":765,"o":"m 226 1046 q 169 1184 169 1104 q 225 1321 168 1264 q 363 1379 283 1379 q 500 1321 444 1379 q 557 1184 557 1264 q 500 1046 557 1104 q 473 1023 488 1034 l 765 0 l 608 0 l 524 298 l 254 298 l 170 0 l 1 0 l 288 1004 q 226 1046 254 1019 m 297 1250 q 283 1236 297 1250 q 270 1184 270 1223 q 297 1118 270 1145 q 363 1091 324 1091 q 429 1118 401 1091 q 456 1184 456 1145 q 429 1250 456 1223 q 363 1277 401 1277 q 297 1250 324 1277 m 293 434 l 485 434 l 389 766 l 293 434 z "},"Æ":{"ha":1181,"x_min":1,"x_max":1080,"o":"m 466 434 l 466 891 l 427 891 l 296 434 l 466 434 m 466 298 l 258 298 l 173 0 l 1 0 l 294 1027 l 1054 1027 l 1054 891 l 628 891 l 628 607 l 924 607 l 924 470 l 628 470 l 628 146 l 1080 146 l 1080 0 l 466 0 l 466 298 z "},"Ç":{"ha":802,"x_min":43,"x_max":775,"o":"m 54 387 q 43 515 43 450 q 53 644 43 581 q 83 767 63 707 q 135 877 103 827 q 209 966 168 928 q 428 1046 297 1046 q 690 880 594 1046 q 753 714 737 800 l 753 713 l 612 675 q 587 782 602 748 q 557 838 572 815 q 524 876 542 861 q 429 910 482 910 q 338 886 376 910 q 275 823 300 862 q 235 732 251 784 q 205 515 205 635 q 357 132 205 195 q 426 119 389 119 q 491 128 463 119 q 540 153 520 138 q 575 189 559 168 q 599 232 590 210 q 614 275 608 253 q 624 349 624 315 l 775 328 q 669 102 745 197 q 472 -14 588 1 q 532 -155 532 -78 q 456 -235 532 -212 q 340 -245 412 -249 l 340 -142 q 425 -111 425 -142 q 391 -16 425 -60 q 138 153 237 -1 q 54 387 77 248 z "},"È":{"ha":732,"x_min":83,"x_max":697,"o":"m 83 0 l 83 1027 l 671 1027 l 671 891 l 245 891 l 245 607 l 542 607 l 542 470 l 245 470 l 245 146 l 697 146 l 697 0 l 83 0 z "},"É":{"ha":732,"x_min":83,"x_max":697,"o":"m 83 0 l 83 1027 l 671 1027 l 671 891 l 245 891 l 245 607 l 542 607 l 542 470 l 245 470 l 245 146 l 697 146 l 697 0 l 83 0 z "},"Ê":{"ha":732,"x_min":83,"x_max":697,"o":"m 83 0 l 83 1027 l 671 1027 l 671 891 l 245 891 l 245 607 l 542 607 l 542 470 l 245 470 l 245 146 l 697 146 l 697 0 l 83 0 z "},"Ë":{"ha":732,"x_min":83,"x_max":697,"o":"m 425 1129 l 425 1294 l 589 1294 l 589 1129 l 425 1129 m 168 1129 l 168 1294 l 332 1294 l 332 1129 l 168 1129 m 83 0 l 83 1027 l 671 1027 l 671 891 l 245 891 l 245 607 l 542 607 l 542 470 l 245 470 l 245 146 l 697 146 l 697 0 l 83 0 z "},"Ì":{"ha":296,"x_min":-74,"x_max":229,"o":"m 67 0 l 67 1027 l 229 1027 l 229 0 l 67 0 z "},"Í":{"ha":296,"x_min":67,"x_max":396,"o":"m 67 0 l 67 1027 l 229 1027 l 229 0 l 67 0 z "},"Î":{"ha":296,"x_min":-16,"x_max":321,"o":"m 67 0 l 67 1027 l 229 1027 l 229 0 l 67 0 z "},"Ï":{"ha":296,"x_min":-62,"x_max":359,"o":"m 195 1129 l 195 1294 l 359 1294 l 359 1129 l 195 1129 m -62 1129 l -62 1294 l 102 1294 l 102 1129 l -62 1129 m 67 0 l 67 1027 l 229 1027 l 229 0 l 67 0 z "},"Ð":{"ha":823,"x_min":6,"x_max":791,"o":"m 238 136 l 336 136 q 460 162 406 136 q 545 227 514 188 q 595 317 576 265 q 629 486 629 404 q 622 620 629 568 q 593 724 614 673 q 541 811 573 775 q 336 891 470 891 l 238 891 l 238 565 l 435 565 l 435 442 l 238 442 l 238 136 m 6 442 l 6 565 l 76 565 l 76 1027 l 318 1027 q 766 728 690 1027 q 791 526 791 631 q 777 349 791 421 q 727 211 762 276 q 639 100 692 146 q 318 0 524 0 l 76 0 l 76 442 l 6 442 z "},"Ñ":{"ha":863,"x_min":78,"x_max":783,"o":"m 622 397 l 622 1027 l 783 1027 l 783 0 l 654 0 l 239 788 l 239 0 l 78 0 l 78 1027 l 287 1027 l 622 397 z "},"Ò":{"ha":864,"x_min":43,"x_max":821,"o":"m 217 657 q 214 637 217 657 q 208 582 210 617 q 205 510 205 547 q 208 437 205 473 q 217 361 210 401 q 235 287 224 321 q 265 221 246 253 q 307 168 283 190 q 438 119 359 119 q 659 511 659 119 q 509 896 659 830 q 437 910 477 910 q 364 896 397 910 q 307 858 330 882 q 265 802 283 835 q 235 733 246 768 q 217 657 224 698 m 50 408 q 43 510 43 459 q 49 612 43 561 q 69 717 55 664 q 104 818 83 770 q 158 908 125 865 q 230 981 190 950 q 439 1046 316 1046 q 711 907 609 1046 q 821 510 821 755 q 715 117 821 260 q 439 -18 616 -18 q 165 117 272 -18 q 50 408 74 231 z "},"Ó":{"ha":864,"x_min":43,"x_max":821,"o":"m 217 657 q 214 637 217 657 q 208 582 210 617 q 205 510 205 547 q 208 437 205 473 q 217 361 210 401 q 235 287 224 321 q 265 221 246 253 q 307 168 283 190 q 438 119 359 119 q 659 511 659 119 q 509 896 659 830 q 437 910 477 910 q 364 896 397 910 q 307 858 330 882 q 265 802 283 835 q 235 733 246 768 q 217 657 224 698 m 50 408 q 43 510 43 459 q 49 612 43 561 q 69 717 55 664 q 104 818 83 770 q 158 908 125 865 q 230 981 190 950 q 439 1046 316 1046 q 711 907 609 1046 q 821 510 821 755 q 715 117 821 260 q 439 -18 616 -18 q 165 117 272 -18 q 50 408 74 231 z "},"Ô":{"ha":864,"x_min":43,"x_max":821,"o":"m 217 657 q 214 637 217 657 q 208 582 210 617 q 205 510 205 547 q 208 437 205 473 q 217 361 210 401 q 235 287 224 321 q 265 221 246 253 q 307 168 283 190 q 438 119 359 119 q 659 511 659 119 q 509 896 659 830 q 437 910 477 910 q 364 896 397 910 q 307 858 330 882 q 265 802 283 835 q 235 733 246 768 q 217 657 224 698 m 50 408 q 43 510 43 459 q 49 612 43 561 q 69 717 55 664 q 104 818 83 770 q 158 908 125 865 q 230 981 190 950 q 439 1046 316 1046 q 711 907 609 1046 q 821 510 821 755 q 715 117 821 260 q 439 -18 616 -18 q 165 117 272 -18 q 50 408 74 231 z "},"Õ":{"ha":864,"x_min":43,"x_max":821,"o":"m 217 657 q 214 637 217 657 q 208 582 210 617 q 205 510 205 547 q 208 437 205 473 q 217 361 210 401 q 235 287 224 321 q 265 221 246 253 q 307 168 283 190 q 438 119 359 119 q 659 511 659 119 q 509 896 659 830 q 437 910 477 910 q 364 896 397 910 q 307 858 330 882 q 265 802 283 835 q 235 733 246 768 q 217 657 224 698 m 50 408 q 43 510 43 459 q 49 612 43 561 q 69 717 55 664 q 104 818 83 770 q 158 908 125 865 q 230 981 190 950 q 439 1046 316 1046 q 711 907 609 1046 q 821 510 821 755 q 715 117 821 260 q 439 -18 616 -18 q 165 117 272 -18 q 50 408 74 231 z "},"Ö":{"ha":864,"x_min":43,"x_max":821,"o":"m 488 1129 l 488 1294 l 652 1294 l 652 1129 l 488 1129 m 230 1129 l 230 1294 l 394 1294 l 394 1129 l 230 1129 m 217 657 q 214 637 217 657 q 208 582 210 617 q 205 510 205 547 q 208 437 205 473 q 217 361 210 401 q 235 287 224 321 q 265 221 246 253 q 307 168 283 190 q 438 119 359 119 q 659 511 659 119 q 509 896 659 830 q 437 910 477 910 q 364 896 397 910 q 307 858 330 882 q 265 802 283 835 q 235 733 246 768 q 217 657 224 698 m 50 408 q 43 510 43 459 q 49 612 43 561 q 69 717 55 664 q 104 818 83 770 q 158 908 125 865 q 230 981 190 950 q 439 1046 316 1046 q 711 907 609 1046 q 821 510 821 755 q 715 117 821 260 q 439 -18 616 -18 q 165 117 272 -18 q 50 408 74 231 z "},"×":{"ha":677,"x_min":-3,"x_max":615,"o":"m -3 708 l 100 811 l 306 605 l 512 811 l 615 709 l 409 503 l 614 296 l 511 193 l 306 399 l 100 193 l -3 296 l 203 502 l -3 708 z "},"Ø":{"ha":855,"x_min":39,"x_max":817,"o":"m 201 530 q 201 498 201 530 q 205 424 201 466 q 218 336 209 382 q 226 303 222 319 l 552 866 q 434 910 505 910 q 288 840 340 910 q 218 682 235 772 q 201 530 201 593 m 78 271 q 68 300 78 271 q 48 390 58 330 q 39 506 39 450 q 45 612 39 561 q 65 717 51 664 q 100 818 79 770 q 154 908 121 865 q 226 981 186 950 q 435 1046 312 1046 q 625 991 547 1046 l 674 1077 l 800 1004 l 726 876 q 808 628 787 775 q 817 502 817 569 q 806 365 817 435 q 768 224 795 295 q 699 100 741 153 q 589 15 657 48 q 444 -18 522 -18 q 308 5 367 -18 q 241 40 271 19 l 187 -53 l 63 21 l 138 150 l 132 159 q 78 271 98 211 m 632 715 l 311 160 q 434 119 359 119 q 576 184 527 119 q 640 337 625 250 q 654 486 654 425 q 652 582 654 547 q 644 657 650 616 q 632 715 639 688 z "},"Ù":{"ha":837,"x_min":83,"x_max":759,"o":"m 83 304 l 83 1027 l 245 1027 l 245 342 q 356 130 245 171 q 420 119 385 119 q 484 128 455 119 q 530 152 512 138 q 560 188 547 166 q 579 229 573 210 q 589 272 585 247 q 593 342 593 304 l 593 1027 l 759 1027 l 759 304 q 656 58 759 149 q 420 -18 572 -18 q 115 157 191 -18 q 83 304 83 229 z "},"Ú":{"ha":837,"x_min":83,"x_max":759,"o":"m 83 304 l 83 1027 l 245 1027 l 245 342 q 356 130 245 171 q 420 119 385 119 q 484 128 455 119 q 530 152 512 138 q 560 188 547 166 q 579 229 573 210 q 589 272 585 247 q 593 342 593 304 l 593 1027 l 759 1027 l 759 304 q 656 58 759 149 q 420 -18 572 -18 q 115 157 191 -18 q 83 304 83 229 z "},"Û":{"ha":837,"x_min":83,"x_max":759,"o":"m 83 304 l 83 1027 l 245 1027 l 245 342 q 356 130 245 171 q 420 119 385 119 q 484 128 455 119 q 530 152 512 138 q 560 188 547 166 q 579 229 573 210 q 589 272 585 247 q 593 342 593 304 l 593 1027 l 759 1027 l 759 304 q 656 58 759 149 q 420 -18 572 -18 q 115 157 191 -18 q 83 304 83 229 z "},"Ü":{"ha":837,"x_min":83,"x_max":759,"o":"m 469 1129 l 469 1294 l 633 1294 l 633 1129 l 469 1129 m 211 1129 l 211 1294 l 375 1294 l 375 1129 l 211 1129 m 83 304 l 83 1027 l 245 1027 l 245 342 q 356 130 245 171 q 420 119 385 119 q 484 128 455 119 q 530 152 512 138 q 560 188 547 166 q 579 229 573 210 q 589 272 585 247 q 593 342 593 304 l 593 1027 l 759 1027 l 759 304 q 656 58 759 149 q 420 -18 572 -18 q 115 157 191 -18 q 83 304 83 229 z "},"Ý":{"ha":761,"x_min":1,"x_max":760,"o":"m 461 475 l 461 0 l 300 0 l 300 475 l 1 1027 l 172 1027 l 380 639 l 589 1027 l 760 1027 l 461 475 z "},"Þ":{"ha":781,"x_min":85,"x_max":745,"o":"m 248 352 l 341 352 q 564 445 515 352 q 583 530 583 479 q 551 618 583 581 q 341 690 490 690 l 248 690 l 248 352 m 85 0 l 85 1027 l 248 1027 l 248 826 l 439 826 q 701 688 618 826 q 745 531 745 615 q 645 283 745 372 q 439 216 569 216 l 248 216 l 248 0 l 85 0 z "},"ß":{"ha":815,"x_min":85,"x_max":770,"o":"m 265 535 q 265 573 265 535 q 301 653 265 610 q 414 739 336 696 q 492 833 492 781 q 464 888 492 869 q 402 907 437 907 q 347 902 367 907 q 312 892 328 898 q 286 872 297 886 q 267 845 275 857 q 254 808 259 833 q 246 763 249 782 q 241 707 243 745 q 239 567 239 653 l 239 0 l 85 0 l 85 598 q 94 806 85 764 q 114 882 103 848 q 140 936 124 916 q 179 978 155 956 q 232 1012 202 1000 q 378 1038 303 1038 q 508 1011 454 1038 q 595 936 562 983 q 629 827 629 889 q 597 713 629 765 q 501 631 565 661 q 425 586 435 600 q 405 538 405 559 q 410 503 405 516 q 423 480 416 490 q 445 461 431 471 q 471 446 460 452 q 505 433 483 440 q 539 422 526 425 l 577 411 q 755 273 721 371 q 770 180 770 234 q 736 81 770 126 q 648 12 703 37 q 537 -12 593 -12 q 445 -5 481 -12 q 374 18 409 1 q 257 144 309 52 l 357 205 q 402 151 382 171 q 523 103 450 103 q 607 127 582 103 q 630 195 630 150 q 597 273 630 247 q 538 304 567 295 l 474 321 q 315 406 363 353 q 265 535 265 459 z "},"à":{"ha":637,"x_min":47,"x_max":598,"o":"m 193 184 q 212 126 193 144 q 261 109 232 109 q 305 112 290 109 q 334 122 319 115 l 359 135 q 383 152 370 141 l 403 168 q 420 183 408 172 l 433 195 l 433 362 q 234 286 281 327 q 193 184 193 250 m 453 0 q 433 63 433 12 l 420 48 q 253 -14 361 -14 q 73 79 121 -14 q 47 185 47 125 q 69 293 47 245 q 138 376 90 340 q 433 482 226 441 q 430 541 433 530 q 423 562 427 552 q 414 576 419 571 q 400 587 408 581 q 381 596 392 593 q 322 603 355 603 q 262 593 290 603 q 217 571 234 583 q 187 543 201 559 q 162 505 170 521 l 67 563 q 119 645 97 625 q 161 681 140 666 q 206 705 182 696 q 322 726 263 726 q 416 719 381 726 q 483 696 451 713 q 534 652 514 680 q 578 475 578 591 l 578 101 q 585 47 578 82 q 598 0 592 13 l 453 0 z "},"á":{"ha":637,"x_min":47,"x_max":614,"o":"m 614 978 l 373 774 l 314 832 l 536 1061 l 614 978 m 193 184 q 212 126 193 144 q 261 109 232 109 q 305 112 290 109 q 334 122 319 115 l 359 135 q 383 152 370 141 l 403 168 q 420 183 408 172 l 433 195 l 433 362 q 234 286 281 327 q 193 184 193 250 m 453 0 q 433 63 433 12 l 420 48 q 253 -14 361 -14 q 73 79 121 -14 q 47 185 47 125 q 69 293 47 245 q 138 376 90 340 q 433 482 226 441 q 430 541 433 530 q 423 562 427 552 q 414 576 419 571 q 400 587 408 581 q 381 596 392 593 q 322 603 355 603 q 262 593 290 603 q 217 571 234 583 q 187 543 201 559 q 162 505 170 521 l 67 563 q 119 645 97 625 q 161 681 140 666 q 206 705 182 696 q 322 726 263 726 q 416 719 381 726 q 483 696 451 713 q 534 652 514 680 q 578 475 578 591 l 578 101 q 585 47 578 82 q 598 0 592 13 l 453 0 z "},"â":{"ha":637,"x_min":47,"x_max":598,"o":"m 173 850 l 341 1019 l 510 850 l 446 787 l 342 891 l 237 786 l 173 850 m 193 184 q 212 126 193 144 q 261 109 232 109 q 305 112 290 109 q 334 122 319 115 l 359 135 q 383 152 370 141 l 403 168 q 420 183 408 172 l 433 195 l 433 362 q 234 286 281 327 q 193 184 193 250 m 453 0 q 433 63 433 12 l 420 48 q 253 -14 361 -14 q 73 79 121 -14 q 47 185 47 125 q 69 293 47 245 q 138 376 90 340 q 433 482 226 441 q 430 541 433 530 q 423 562 427 552 q 414 576 419 571 q 400 587 408 581 q 381 596 392 593 q 322 603 355 603 q 262 593 290 603 q 217 571 234 583 q 187 543 201 559 q 162 505 170 521 l 67 563 q 119 645 97 625 q 161 681 140 666 q 206 705 182 696 q 322 726 263 726 q 416 719 381 726 q 483 696 451 713 q 534 652 514 680 q 578 475 578 591 l 578 101 q 585 47 578 82 q 598 0 592 13 l 453 0 z "},"ã":{"ha":637,"x_min":47,"x_max":598,"o":"m 569 939 q 418 804 521 804 q 316 834 361 804 q 245 865 272 865 q 205 850 218 865 q 180 808 191 836 l 92 849 q 152 947 107 911 q 235 984 197 984 q 298 974 272 984 q 341 953 325 964 q 417 922 385 922 q 454 937 443 922 q 478 981 469 958 l 569 939 m 193 184 q 212 126 193 144 q 261 109 232 109 q 305 112 290 109 q 334 122 319 115 l 359 135 q 383 152 370 141 l 403 168 q 420 183 408 172 l 433 195 l 433 362 q 234 286 281 327 q 193 184 193 250 m 453 0 q 433 63 433 12 l 420 48 q 253 -14 361 -14 q 73 79 121 -14 q 47 185 47 125 q 69 293 47 245 q 138 376 90 340 q 433 482 226 441 q 430 541 433 530 q 423 562 427 552 q 414 576 419 571 q 400 587 408 581 q 381 596 392 593 q 322 603 355 603 q 262 593 290 603 q 217 571 234 583 q 187 543 201 559 q 162 505 170 521 l 67 563 q 119 645 97 625 q 161 681 140 666 q 206 705 182 696 q 322 726 263 726 q 416 719 381 726 q 483 696 451 713 q 534 652 514 680 q 578 475 578 591 l 578 101 q 585 47 578 82 q 598 0 592 13 l 453 0 z "},"ä":{"ha":637,"x_min":47,"x_max":598,"o":"m 373 806 l 373 970 l 537 970 l 537 806 l 373 806 m 115 806 l 115 970 l 279 970 l 279 806 l 115 806 m 193 184 q 212 126 193 144 q 261 109 232 109 q 305 112 290 109 q 334 122 319 115 l 359 135 q 383 152 370 141 l 403 168 q 420 183 408 172 l 433 195 l 433 362 q 234 286 281 327 q 193 184 193 250 m 453 0 q 433 63 433 12 l 420 48 q 253 -14 361 -14 q 73 79 121 -14 q 47 185 47 125 q 69 293 47 245 q 138 376 90 340 q 433 482 226 441 q 430 541 433 530 q 423 562 427 552 q 414 576 419 571 q 400 587 408 581 q 381 596 392 593 q 322 603 355 603 q 262 593 290 603 q 217 571 234 583 q 187 543 201 559 q 162 505 170 521 l 67 563 q 119 645 97 625 q 161 681 140 666 q 206 705 182 696 q 322 726 263 726 q 416 719 381 726 q 483 696 451 713 q 534 652 514 680 q 578 475 578 591 l 578 101 q 585 47 578 82 q 598 0 592 13 l 453 0 z "},"å":{"ha":637,"x_min":47,"x_max":598,"o":"m 282 1023 q 269 1010 282 1023 q 255 958 255 996 q 282 892 255 919 q 348 865 309 865 q 414 892 387 865 q 441 958 441 919 q 414 1023 441 996 q 348 1050 387 1050 q 282 1023 309 1050 m 211 820 q 182 848 211 820 q 153 958 153 877 q 211 1095 153 1038 q 348 1152 268 1152 q 486 1095 429 1152 q 543 958 543 1038 q 486 820 543 877 q 348 763 429 763 q 211 820 268 763 m 193 184 q 212 126 193 144 q 261 109 232 109 q 305 112 290 109 q 334 122 319 115 l 359 135 q 383 152 370 141 l 403 168 q 420 183 408 172 l 433 195 l 433 362 q 234 286 281 327 q 193 184 193 250 m 453 0 q 433 63 433 12 l 420 48 q 253 -14 361 -14 q 73 79 121 -14 q 47 185 47 125 q 69 293 47 245 q 138 376 90 340 q 433 482 226 441 q 430 541 433 530 q 423 562 427 552 q 414 576 419 571 q 400 587 408 581 q 381 596 392 593 q 322 603 355 603 q 262 593 290 603 q 217 571 234 583 q 187 543 201 559 q 162 505 170 521 l 67 563 q 119 645 97 625 q 161 681 140 666 q 206 705 182 696 q 322 726 263 726 q 416 719 381 726 q 483 696 451 713 q 534 652 514 680 q 578 475 578 591 l 578 101 q 585 47 578 82 q 598 0 592 13 l 453 0 z "},"æ":{"ha":1044,"x_min":39,"x_max":983,"o":"m 577 444 l 828 444 q 810 534 828 496 q 712 605 774 605 q 594 526 629 605 q 577 444 577 487 m 327 726 q 522 656 466 726 q 713 728 593 728 q 917 616 847 728 q 979 319 983 511 l 570 319 q 643 135 570 182 q 721 111 680 111 q 789 121 762 111 q 833 144 817 131 q 863 174 849 157 q 888 214 880 196 l 980 155 q 873 29 932 68 q 727 -12 810 -12 q 473 121 549 -12 q 467 112 473 121 q 457 97 462 103 l 443 79 q 424 57 434 66 l 400 37 q 244 -14 339 -14 q 63 79 113 -14 q 39 186 39 125 q 59 295 39 248 q 128 379 80 343 q 424 482 215 443 q 421 541 424 530 q 414 562 418 552 q 405 576 410 571 q 391 587 399 581 q 372 596 383 593 q 314 603 346 603 q 253 593 281 603 q 209 571 225 583 q 178 543 192 559 q 153 505 160 521 l 58 563 q 110 645 88 625 q 152 681 131 666 q 197 705 174 696 q 327 726 254 726 m 184 195 q 267 109 184 109 q 318 119 297 109 q 350 135 339 130 q 374 152 361 141 l 394 168 q 412 183 399 172 l 424 195 l 424 362 q 225 286 272 327 q 184 195 184 250 z "},"ç":{"ha":635,"x_min":40,"x_max":592,"o":"m 40 353 q 133 656 40 566 q 338 728 206 728 q 545 616 470 728 q 578 549 569 581 l 456 495 q 410 583 450 551 q 343 605 383 605 q 185 359 185 605 q 227 174 185 237 q 347 111 268 111 q 437 151 403 111 q 481 227 467 186 l 592 178 q 526 63 576 117 q 389 -9 469 3 q 449 -150 450 -73 q 374 -230 449 -207 q 256 -239 329 -243 l 256 -136 q 342 -105 342 -136 q 309 -11 342 -55 q 40 353 40 9 z "},"è":{"ha":635,"x_min":40,"x_max":597,"o":"m 192 442 l 443 442 q 425 534 443 495 q 327 605 389 605 q 261 588 290 605 q 219 545 233 572 q 192 442 192 496 m 78 139 q 68 162 78 139 q 48 234 57 185 q 40 358 40 283 q 58 504 40 433 q 103 616 75 574 q 170 684 131 658 q 328 728 237 728 q 477 677 414 728 q 591 319 597 581 l 185 319 q 258 135 185 182 q 336 111 295 111 q 404 121 377 111 q 448 144 431 131 q 477 174 464 157 q 503 214 496 197 l 595 155 q 488 30 545 67 q 349 -12 425 -12 q 220 7 273 -12 q 133 60 167 27 q 78 139 100 92 z "},"é":{"ha":635,"x_min":40,"x_max":597,"o":"m 192 442 l 443 442 q 425 534 443 495 q 327 605 389 605 q 261 588 290 605 q 219 545 233 572 q 192 442 192 496 m 78 139 q 68 162 78 139 q 48 234 57 185 q 40 358 40 283 q 58 504 40 433 q 103 616 75 574 q 170 684 131 658 q 328 728 237 728 q 477 677 414 728 q 591 319 597 581 l 185 319 q 258 135 185 182 q 336 111 295 111 q 404 121 377 111 q 448 144 431 131 q 477 174 464 157 q 503 214 496 197 l 595 155 q 488 30 545 67 q 349 -12 425 -12 q 220 7 273 -12 q 133 60 167 27 q 78 139 100 92 z "},"ê":{"ha":635,"x_min":40,"x_max":597,"o":"m 192 442 l 443 442 q 425 534 443 495 q 327 605 389 605 q 261 588 290 605 q 219 545 233 572 q 192 442 192 496 m 78 139 q 68 162 78 139 q 48 234 57 185 q 40 358 40 283 q 58 504 40 433 q 103 616 75 574 q 170 684 131 658 q 328 728 237 728 q 477 677 414 728 q 591 319 597 581 l 185 319 q 258 135 185 182 q 336 111 295 111 q 404 121 377 111 q 448 144 431 131 q 477 174 464 157 q 503 214 496 197 l 595 155 q 488 30 545 67 q 349 -12 425 -12 q 220 7 273 -12 q 133 60 167 27 q 78 139 100 92 z "},"ë":{"ha":635,"x_min":40,"x_max":597,"o":"m 376 810 l 376 975 l 540 975 l 540 810 l 376 810 m 118 810 l 118 975 l 282 975 l 282 810 l 118 810 m 192 442 l 443 442 q 425 534 443 495 q 327 605 389 605 q 261 588 290 605 q 219 545 233 572 q 192 442 192 496 m 78 139 q 68 162 78 139 q 48 234 57 185 q 40 358 40 283 q 58 504 40 433 q 103 616 75 574 q 170 684 131 658 q 328 728 237 728 q 477 677 414 728 q 591 319 597 581 l 185 319 q 258 135 185 182 q 336 111 295 111 q 404 121 377 111 q 448 144 431 131 q 477 174 464 157 q 503 214 496 197 l 595 155 q 488 30 545 67 q 349 -12 425 -12 q 220 7 273 -12 q 133 60 167 27 q 78 139 100 92 z "},"ì":{"ha":357,"x_min":-83,"x_max":217,"o":"m 65 0 l 65 715 l 210 715 l 210 0 l 65 0 z "},"í":{"ha":357,"x_min":65,"x_max":387,"o":"m 65 0 l 65 715 l 210 715 l 210 0 l 65 0 z "},"î":{"ha":357,"x_min":-26,"x_max":311,"o":"m 65 0 l 65 715 l 210 715 l 210 0 l 65 0 z "},"ï":{"ha":357,"x_min":-72,"x_max":350,"o":"m 186 810 l 186 975 l 350 975 l 350 810 l 186 810 m -72 810 l -72 975 l 92 975 l 92 810 l -72 810 m 65 0 l 65 715 l 210 715 l 210 0 l 65 0 z "},"ð":{"ha":688,"x_min":40,"x_max":626,"o":"m 189 437 q 185 360 185 402 q 190 284 185 319 q 205 217 194 250 q 232 161 216 184 q 333 111 268 111 q 481 357 481 111 q 437 557 481 499 q 333 605 402 605 q 189 437 205 605 m 40 358 q 118 628 40 528 q 333 728 197 728 q 402 722 382 728 q 439 711 422 717 q 419 771 436 727 q 394 829 402 815 l 273 760 l 225 840 l 349 912 q 282 985 321 948 q 233 1027 243 1021 l 373 1027 q 441 965 397 1015 l 551 1027 l 598 947 l 503 891 q 625 434 616 705 q 626 336 626 394 q 616 225 626 277 q 584 128 606 172 q 528 53 562 83 q 333 -12 456 -12 q 83 136 153 -12 q 40 358 40 225 z "},"ñ":{"ha":670,"x_min":75,"x_max":605,"o":"m 605 536 l 605 0 l 460 0 l 460 498 q 430 576 460 547 q 360 605 401 605 q 279 581 319 605 q 220 533 239 557 l 220 0 l 75 0 l 75 715 l 220 715 l 220 640 q 302 703 259 679 q 403 728 345 728 q 548 680 491 728 q 605 536 605 632 z "},"ò":{"ha":666,"x_min":40,"x_max":626,"o":"m 189 440 q 185 363 185 404 q 189 288 185 321 q 204 222 193 255 q 231 164 214 189 q 334 110 267 110 q 481 357 481 110 q 437 559 481 503 q 334 605 402 605 q 189 440 208 605 m 40 358 q 118 628 40 528 q 334 728 197 728 q 491 682 425 728 q 626 357 626 587 q 447 5 626 71 q 334 -13 397 -13 q 220 5 271 -13 q 137 56 170 24 q 81 136 104 89 q 40 358 40 224 z "},"ó":{"ha":666,"x_min":40,"x_max":626,"o":"m 189 440 q 185 363 185 404 q 189 288 185 321 q 204 222 193 255 q 231 164 214 189 q 334 110 267 110 q 481 357 481 110 q 437 559 481 503 q 334 605 402 605 q 189 440 208 605 m 40 358 q 118 628 40 528 q 334 728 197 728 q 491 682 425 728 q 626 357 626 587 q 447 5 626 71 q 334 -13 397 -13 q 220 5 271 -13 q 137 56 170 24 q 81 136 104 89 q 40 358 40 224 z "},"ô":{"ha":666,"x_min":40,"x_max":626,"o":"m 189 440 q 185 363 185 404 q 189 288 185 321 q 204 222 193 255 q 231 164 214 189 q 334 110 267 110 q 481 357 481 110 q 437 559 481 503 q 334 605 402 605 q 189 440 208 605 m 40 358 q 118 628 40 528 q 334 728 197 728 q 491 682 425 728 q 626 357 626 587 q 447 5 626 71 q 334 -13 397 -13 q 220 5 271 -13 q 137 56 170 24 q 81 136 104 89 q 40 358 40 224 z "},"õ":{"ha":666,"x_min":40,"x_max":626,"o":"m 189 440 q 185 363 185 404 q 189 288 185 321 q 204 222 193 255 q 231 164 214 189 q 334 110 267 110 q 481 357 481 110 q 437 559 481 503 q 334 605 402 605 q 189 440 208 605 m 40 358 q 118 628 40 528 q 334 728 197 728 q 491 682 425 728 q 626 357 626 587 q 447 5 626 71 q 334 -13 397 -13 q 220 5 271 -13 q 137 56 170 24 q 81 136 104 89 q 40 358 40 224 z "},"ö":{"ha":666,"x_min":40,"x_max":626,"o":"m 381 810 l 381 975 l 545 975 l 545 810 l 381 810 m 123 810 l 123 975 l 288 975 l 288 810 l 123 810 m 189 440 q 185 363 185 404 q 189 288 185 321 q 204 222 193 255 q 231 164 214 189 q 334 110 267 110 q 481 357 481 110 q 437 559 481 503 q 334 605 402 605 q 189 440 208 605 m 40 358 q 118 628 40 528 q 334 728 197 728 q 491 682 425 728 q 626 357 626 587 q 447 5 626 71 q 334 -13 397 -13 q 220 5 271 -13 q 137 56 170 24 q 81 136 104 89 q 40 358 40 224 z "},"÷":{"ha":616,"x_min":21,"x_max":591,"o":"m 21 429 l 21 575 l 591 575 l 591 429 l 21 429 m 224 170 l 224 335 l 390 335 l 390 170 l 224 170 m 226 667 l 226 833 l 391 833 l 391 667 l 226 667 z "},"ø":{"ha":728,"x_min":40,"x_max":626,"o":"m 380 599 q 330 605 359 605 q 274 593 300 605 q 231 561 248 581 q 204 508 214 540 q 185 382 185 451 q 192 273 185 313 l 380 599 m 473 469 l 274 124 q 334 110 300 110 q 395 125 368 110 q 438 164 422 140 q 464 221 454 188 q 481 352 481 279 q 473 469 481 424 m 177 -43 l 51 29 l 96 108 q 40 364 40 200 q 118 628 40 528 q 334 728 197 728 q 443 707 393 728 l 475 765 l 602 692 l 557 615 q 626 357 626 516 q 447 5 626 71 q 330 -13 397 -13 q 208 10 262 -13 l 177 -43 z "},"ù":{"ha":677,"x_min":80,"x_max":610,"o":"m 80 179 l 80 715 l 225 715 l 225 217 q 255 139 225 168 q 325 111 284 111 q 405 135 365 111 q 465 182 446 159 l 465 715 l 610 715 l 610 0 l 465 0 l 465 76 q 282 -12 377 -12 q 140 33 197 -12 q 80 179 80 81 z "},"ú":{"ha":677,"x_min":80,"x_max":610,"o":"m 80 179 l 80 715 l 225 715 l 225 217 q 255 139 225 168 q 325 111 284 111 q 405 135 365 111 q 465 182 446 159 l 465 715 l 610 715 l 610 0 l 465 0 l 465 76 q 282 -12 377 -12 q 140 33 197 -12 q 80 179 80 81 z "},"û":{"ha":677,"x_min":80,"x_max":610,"o":"m 80 179 l 80 715 l 225 715 l 225 217 q 255 139 225 168 q 325 111 284 111 q 405 135 365 111 q 465 182 446 159 l 465 715 l 610 715 l 610 0 l 465 0 l 465 76 q 282 -12 377 -12 q 140 33 197 -12 q 80 179 80 81 z "},"ü":{"ha":677,"x_min":80,"x_max":610,"o":"m 393 810 l 393 975 l 557 975 l 557 810 l 393 810 m 136 810 l 136 975 l 300 975 l 300 810 l 136 810 m 80 179 l 80 715 l 225 715 l 225 217 q 255 139 225 168 q 325 111 284 111 q 405 135 365 111 q 465 182 446 159 l 465 715 l 610 715 l 610 0 l 465 0 l 465 76 q 282 -12 377 -12 q 140 33 197 -12 q 80 179 80 81 z "},"ý":{"ha":612,"x_min":1,"x_max":609,"o":"m 1 715 l 163 715 l 313 286 l 448 715 l 609 715 l 370 -22 q 311 -168 334 -133 q 268 -224 287 -203 q 226 -256 248 -244 q 16 -275 155 -296 q 9 -275 9 -275 l 16 -140 q 82 -151 41 -151 q 148 -140 123 -151 q 188 -112 173 -129 q 214 -74 203 -95 q 231 -33 225 -54 q 241 43 241 9 l 1 715 z "},"þ":{"ha":688,"x_min":80,"x_max":658,"o":"m 225 157 q 333 111 263 111 q 478 188 436 111 q 513 369 513 250 q 416 587 513 538 q 347 605 381 605 q 296 600 313 605 q 266 585 279 595 q 225 546 245 569 l 225 157 m 80 -277 l 80 1027 l 225 1027 l 225 654 q 260 690 234 670 q 371 728 312 728 q 477 707 430 728 q 557 651 524 686 q 613 570 589 616 q 658 371 658 480 q 567 69 658 175 q 375 -12 497 -12 q 303 1 338 -12 q 248 28 267 14 q 225 51 228 42 l 225 -277 l 80 -277 z "},"ÿ":{"ha":612,"x_min":1,"x_max":609,"o":"m 353 810 l 353 975 l 517 975 l 517 810 l 353 810 m 95 810 l 95 975 l 259 975 l 259 810 l 95 810 m 1 715 l 163 715 l 313 286 l 448 715 l 609 715 l 370 -22 q 311 -168 334 -133 q 268 -224 287 -203 q 226 -256 248 -244 q 16 -275 155 -296 q 9 -275 9 -275 l 16 -140 q 82 -151 41 -151 q 148 -140 123 -151 q 188 -112 173 -129 q 214 -74 203 -95 q 231 -33 225 -54 q 241 43 241 9 l 1 715 z "},"Ā":{"ha":766,"x_min":1,"x_max":765,"o":"m 211 1103 l 211 1204 l 624 1204 l 624 1103 l 211 1103 m 293 434 l 485 434 l 389 766 l 293 434 m 1 0 l 294 1027 l 472 1027 l 765 0 l 608 0 l 524 298 l 254 298 l 170 0 l 1 0 z "},"ā":{"ha":637,"x_min":47,"x_max":598,"o":"m 111 787 l 111 888 l 524 888 l 524 787 l 111 787 m 193 184 q 212 126 193 144 q 261 109 232 109 q 305 112 290 109 q 334 122 319 115 l 359 135 q 383 152 370 141 l 403 168 q 420 183 408 172 l 433 195 l 433 362 q 234 286 281 327 q 193 184 193 250 m 453 0 q 433 63 433 12 l 420 48 q 253 -14 361 -14 q 73 79 121 -14 q 47 185 47 125 q 69 293 47 245 q 138 376 90 340 q 433 482 226 441 q 430 541 433 530 q 423 562 427 552 q 414 576 419 571 q 400 587 408 581 q 381 596 392 593 q 322 603 355 603 q 262 593 290 603 q 217 571 234 583 q 187 543 201 559 q 162 505 170 521 l 67 563 q 119 645 97 625 q 161 681 140 666 q 206 705 182 696 q 322 726 263 726 q 416 719 381 726 q 483 696 451 713 q 534 652 514 680 q 578 475 578 591 l 578 101 q 585 47 578 82 q 598 0 592 13 l 453 0 z "},"Ă":{"ha":766,"x_min":1,"x_max":765,"o":"m 480 1154 q 457 1138 480 1154 q 385 1122 433 1122 q 291 1154 337 1122 q 227 1242 244 1186 l 296 1282 q 334 1231 309 1252 q 386 1209 359 1209 q 437 1231 412 1209 q 474 1282 461 1252 l 544 1242 q 480 1154 526 1186 m 293 434 l 485 434 l 389 766 l 293 434 m 1 0 l 294 1027 l 472 1027 l 765 0 l 608 0 l 524 298 l 254 298 l 170 0 l 1 0 z "},"ă":{"ha":637,"x_min":47,"x_max":598,"o":"m 380 838 q 357 822 380 838 q 286 806 334 806 q 191 838 237 806 q 127 926 144 870 l 197 966 q 234 915 210 936 q 286 893 259 893 q 337 915 313 893 q 374 966 361 936 l 444 926 q 380 838 427 870 m 193 184 q 212 126 193 144 q 261 109 232 109 q 305 112 290 109 q 334 122 319 115 l 359 135 q 383 152 370 141 l 403 168 q 420 183 408 172 l 433 195 l 433 362 q 234 286 281 327 q 193 184 193 250 m 453 0 q 433 63 433 12 l 420 48 q 253 -14 361 -14 q 73 79 121 -14 q 47 185 47 125 q 69 293 47 245 q 138 376 90 340 q 433 482 226 441 q 430 541 433 530 q 423 562 427 552 q 414 576 419 571 q 400 587 408 581 q 381 596 392 593 q 322 603 355 603 q 262 593 290 603 q 217 571 234 583 q 187 543 201 559 q 162 505 170 521 l 67 563 q 119 645 97 625 q 161 681 140 666 q 206 705 182 696 q 322 726 263 726 q 416 719 381 726 q 483 696 451 713 q 534 652 514 680 q 578 475 578 591 l 578 101 q 585 47 578 82 q 598 0 592 13 l 453 0 z "},"Ą":{"ha":764,"x_min":1,"x_max":785,"o":"m 701 -102 q 785 -133 701 -133 l 785 -236 q 684 -231 713 -239 q 640 -215 655 -222 q 615 -199 625 -208 q 601 -92 579 -164 q 658 -1 616 -42 l 739 -1 q 701 -102 701 -47 m 1 0 l 294 1027 l 472 1027 l 765 0 l 608 0 l 524 298 l 254 298 l 170 0 l 1 0 m 293 434 l 485 434 l 389 766 l 293 434 z "},"ą":{"ha":637,"x_min":47,"x_max":689,"o":"m 604 -101 q 689 -132 604 -132 l 689 -235 q 588 -230 617 -239 q 544 -214 559 -221 q 519 -198 528 -208 q 505 -92 483 -163 q 562 0 520 -41 l 453 0 q 433 63 433 12 l 420 48 q 253 -14 361 -14 q 73 79 121 -14 q 47 185 47 125 q 69 293 47 245 q 138 376 90 340 q 433 482 226 441 q 430 541 433 530 q 423 562 427 552 q 414 576 419 571 q 400 587 408 581 q 381 596 392 593 q 322 603 355 603 q 262 593 290 603 q 217 571 234 583 q 187 543 201 559 q 162 505 170 521 l 67 563 q 119 645 97 625 q 161 681 140 666 q 206 705 182 696 q 322 726 263 726 q 416 719 381 726 q 483 696 451 713 q 534 652 514 680 q 578 475 578 591 l 578 101 q 585 47 578 82 q 598 0 592 13 l 642 0 q 604 -101 604 -47 m 193 184 q 212 126 193 144 q 261 109 232 109 q 305 112 290 109 q 334 122 319 115 l 359 135 q 383 152 370 141 l 403 168 q 420 183 408 172 l 433 195 l 433 362 q 234 286 281 327 q 193 184 193 250 z "},"Ć":{"ha":802,"x_min":43,"x_max":775,"o":"m 707 1294 l 466 1090 l 407 1148 l 629 1377 l 707 1294 m 54 387 q 43 515 43 450 q 53 644 43 581 q 83 767 63 707 q 135 877 103 827 q 209 966 168 928 q 428 1046 297 1046 q 690 880 594 1046 q 753 714 737 800 l 753 713 l 612 675 q 587 782 602 748 q 557 838 572 815 q 524 876 542 861 q 429 910 482 910 q 338 886 376 910 q 275 823 300 862 q 235 732 251 784 q 205 515 205 635 q 357 132 205 195 q 426 119 389 119 q 491 128 463 119 q 540 153 520 138 q 575 189 559 168 q 599 232 590 210 q 614 275 608 253 q 624 349 624 315 l 775 328 q 669 102 745 197 q 427 -18 572 -18 q 138 153 248 -18 q 54 387 77 248 z "},"ć":{"ha":635,"x_min":40,"x_max":626,"o":"m 626 978 l 385 774 l 326 832 l 547 1061 l 626 978 m 40 353 q 133 656 40 566 q 338 728 206 728 q 545 616 470 728 q 578 549 569 581 l 456 495 q 410 583 450 551 q 343 605 383 605 q 185 359 185 605 q 227 174 185 237 q 347 111 268 111 q 437 151 403 111 q 481 227 467 186 l 592 178 q 526 63 576 117 q 343 -12 454 -12 q 40 353 40 -12 z "},"Ĉ":{"ha":802,"x_min":43,"x_max":775,"o":"m 259 1166 l 427 1335 l 596 1166 l 532 1103 l 429 1207 l 323 1102 l 259 1166 m 54 387 q 43 515 43 450 q 53 644 43 581 q 83 767 63 707 q 135 877 103 827 q 209 966 168 928 q 428 1046 297 1046 q 690 880 594 1046 q 753 714 737 800 l 753 713 l 612 675 q 587 782 602 748 q 557 838 572 815 q 524 876 542 861 q 429 910 482 910 q 338 886 376 910 q 275 823 300 862 q 235 732 251 784 q 205 515 205 635 q 357 132 205 195 q 426 119 389 119 q 491 128 463 119 q 540 153 520 138 q 575 189 559 168 q 599 232 590 210 q 614 275 608 253 q 624 349 624 315 l 775 328 q 669 102 745 197 q 427 -18 572 -18 q 138 153 248 -18 q 54 387 77 248 z "},"ĉ":{"ha":635,"x_min":40,"x_max":592,"o":"m 178 850 l 346 1019 l 515 850 l 451 787 l 347 891 l 242 786 l 178 850 m 40 353 q 133 656 40 566 q 338 728 206 728 q 545 616 470 728 q 578 549 569 581 l 456 495 q 410 583 450 551 q 343 605 383 605 q 185 359 185 605 q 227 174 185 237 q 347 111 268 111 q 437 151 403 111 q 481 227 467 186 l 592 178 q 526 63 576 117 q 343 -12 454 -12 q 40 353 40 -12 z "},"Ċ":{"ha":802,"x_min":43,"x_max":775,"o":"m 334 1122 l 334 1286 l 500 1286 l 500 1122 l 334 1122 m 54 387 q 43 515 43 450 q 53 644 43 581 q 83 767 63 707 q 135 877 103 827 q 209 966 168 928 q 428 1046 297 1046 q 690 880 594 1046 q 753 714 737 800 l 753 713 l 612 675 q 587 782 602 748 q 557 838 572 815 q 524 876 542 861 q 429 910 482 910 q 338 886 376 910 q 275 823 300 862 q 235 732 251 784 q 205 515 205 635 q 357 132 205 195 q 426 119 389 119 q 491 128 463 119 q 540 153 520 138 q 575 189 559 168 q 599 232 590 210 q 614 275 608 253 q 624 349 624 315 l 775 328 q 669 102 745 197 q 427 -18 572 -18 q 138 153 248 -18 q 54 387 77 248 z "},"ċ":{"ha":635,"x_min":40,"x_max":592,"o":"m 253 806 l 253 970 l 418 970 l 418 806 l 253 806 m 40 353 q 133 656 40 566 q 338 728 206 728 q 545 616 470 728 q 578 549 569 581 l 456 495 q 410 583 450 551 q 343 605 383 605 q 185 359 185 605 q 227 174 185 237 q 347 111 268 111 q 437 151 403 111 q 481 227 467 186 l 592 178 q 526 63 576 117 q 343 -12 454 -12 q 40 353 40 -12 z "},"Č":{"ha":802,"x_min":43,"x_max":775,"o":"m 596 1290 l 428 1122 l 259 1291 l 323 1353 l 427 1249 l 532 1354 l 596 1290 m 54 387 q 43 515 43 450 q 53 644 43 581 q 83 767 63 707 q 135 877 103 827 q 209 966 168 928 q 428 1046 297 1046 q 690 880 594 1046 q 753 714 737 800 l 753 713 l 612 675 q 587 782 602 748 q 557 838 572 815 q 524 876 542 861 q 429 910 482 910 q 338 886 376 910 q 275 823 300 862 q 235 732 251 784 q 205 515 205 635 q 357 132 205 195 q 426 119 389 119 q 491 128 463 119 q 540 153 520 138 q 575 189 559 168 q 599 232 590 210 q 614 275 608 253 q 624 349 624 315 l 775 328 q 669 102 745 197 q 427 -18 572 -18 q 138 153 248 -18 q 54 387 77 248 z "},"č":{"ha":635,"x_min":40,"x_max":592,"o":"m 515 974 l 347 806 l 178 975 l 241 1037 l 345 933 l 450 1038 l 515 974 m 40 353 q 133 656 40 566 q 338 728 206 728 q 545 616 470 728 q 578 549 569 581 l 456 495 q 410 583 450 551 q 343 605 383 605 q 185 359 185 605 q 227 174 185 237 q 347 111 268 111 q 437 151 403 111 q 481 227 467 186 l 592 178 q 526 63 576 117 q 343 -12 454 -12 q 40 353 40 -12 z "},"Ď":{"ha":833,"x_min":83,"x_max":799,"o":"m 541 1290 l 372 1122 l 203 1291 l 267 1353 l 371 1249 l 476 1354 l 541 1290 m 245 136 l 343 136 q 562 239 485 136 q 637 507 637 340 q 434 880 637 823 q 343 891 393 891 l 245 891 l 245 136 m 83 0 l 83 1027 l 326 1027 q 774 728 697 1027 q 799 527 799 633 q 784 349 799 421 q 734 211 770 276 q 646 100 699 146 q 326 0 530 0 l 83 0 z "},"ď":{"ha":923,"x_min":44,"x_max":847,"o":"m 677 724 l 732 894 l 682 894 l 682 1059 l 847 1059 l 847 925 l 744 724 l 677 724 m 486 535 q 340 605 419 605 q 221 534 257 605 q 189 347 189 471 q 234 156 189 209 q 347 111 272 111 q 477 180 425 111 q 486 193 486 193 l 486 535 m 631 97 q 650 0 631 50 l 497 0 q 493 9 495 3 l 486 54 q 336 -12 435 -12 q 87 146 165 -12 q 44 345 44 234 q 172 684 44 603 q 345 728 239 728 q 436 707 397 728 q 486 668 474 686 l 486 1027 l 631 1027 l 631 97 z "},"Đ":{"ha":827,"x_min":7,"x_max":792,"o":"m 239 136 l 336 136 q 460 162 406 136 q 546 227 515 188 q 596 317 576 265 q 630 486 630 404 q 622 620 630 568 q 594 724 614 673 q 542 811 574 775 q 336 891 471 891 l 239 891 l 239 565 l 436 565 l 436 442 l 239 442 l 239 136 m 7 442 l 7 565 l 77 565 l 77 1027 l 319 1027 q 767 728 691 1027 q 792 526 792 631 q 777 349 792 421 q 727 211 762 276 q 640 100 692 146 q 319 0 524 0 l 77 0 l 77 442 l 7 442 z "},"Ē":{"ha":732,"x_min":83,"x_max":697,"o":"m 205 1103 l 205 1204 l 618 1204 l 618 1103 l 205 1103 m 83 0 l 83 1027 l 671 1027 l 671 891 l 245 891 l 245 607 l 542 607 l 542 470 l 245 470 l 245 146 l 697 146 l 697 0 l 83 0 z "},"ē":{"ha":635,"x_min":40,"x_max":597,"o":"m 153 787 l 153 888 l 566 888 l 566 787 l 153 787 m 192 442 l 443 442 q 425 534 443 495 q 327 605 389 605 q 261 588 290 605 q 219 545 233 572 q 192 442 192 496 m 78 139 q 68 162 78 139 q 48 234 57 185 q 40 358 40 283 q 58 504 40 433 q 103 616 75 574 q 170 684 131 658 q 328 728 237 728 q 477 677 414 728 q 591 319 597 581 l 185 319 q 258 135 185 182 q 336 111 295 111 q 404 121 377 111 q 448 144 431 131 q 477 174 464 157 q 503 214 496 197 l 595 155 q 488 30 545 67 q 349 -12 425 -12 q 220 7 273 -12 q 133 60 167 27 q 78 139 100 92 z "},"Ĕ":{"ha":732,"x_min":83,"x_max":697,"o":"m 474 1154 q 450 1138 474 1154 q 379 1122 427 1122 q 284 1154 331 1122 q 220 1242 238 1186 l 290 1282 q 328 1231 303 1252 q 379 1209 353 1209 q 431 1231 406 1209 q 468 1282 455 1252 l 538 1242 q 474 1154 520 1186 m 83 0 l 83 1027 l 671 1027 l 671 891 l 245 891 l 245 607 l 542 607 l 542 470 l 245 470 l 245 146 l 697 146 l 697 0 l 83 0 z "},"ĕ":{"ha":635,"x_min":40,"x_max":597,"o":"m 422 838 q 399 822 422 838 q 328 806 376 806 q 233 838 279 806 q 169 926 186 870 l 239 966 q 276 915 252 936 q 328 893 301 893 q 379 915 355 893 q 416 966 404 936 l 486 926 q 422 838 469 870 m 192 442 l 443 442 q 425 534 443 495 q 327 605 389 605 q 261 588 290 605 q 219 545 233 572 q 192 442 192 496 m 78 139 q 68 162 78 139 q 48 234 57 185 q 40 358 40 283 q 58 504 40 433 q 103 616 75 574 q 170 684 131 658 q 328 728 237 728 q 477 677 414 728 q 591 319 597 581 l 185 319 q 258 135 185 182 q 336 111 295 111 q 404 121 377 111 q 448 144 431 131 q 477 174 464 157 q 503 214 496 197 l 595 155 q 488 30 545 67 q 349 -12 425 -12 q 220 7 273 -12 q 133 60 167 27 q 78 139 100 92 z "},"Ė":{"ha":732,"x_min":83,"x_max":697,"o":"m 288 1122 l 288 1286 l 454 1286 l 454 1122 l 288 1122 m 83 0 l 83 1027 l 671 1027 l 671 891 l 245 891 l 245 607 l 542 607 l 542 470 l 245 470 l 245 146 l 697 146 l 697 0 l 83 0 z "},"ė":{"ha":635,"x_min":40,"x_max":597,"o":"m 236 806 l 236 970 l 401 970 l 401 806 l 236 806 m 192 442 l 443 442 q 425 534 443 495 q 327 605 389 605 q 261 588 290 605 q 219 545 233 572 q 192 442 192 496 m 78 139 q 68 162 78 139 q 48 234 57 185 q 40 358 40 283 q 58 504 40 433 q 103 616 75 574 q 170 684 131 658 q 328 728 237 728 q 477 677 414 728 q 591 319 597 581 l 185 319 q 258 135 185 182 q 336 111 295 111 q 404 121 377 111 q 448 144 431 131 q 477 174 464 157 q 503 214 496 197 l 595 155 q 488 30 545 67 q 349 -12 425 -12 q 220 7 273 -12 q 133 60 167 27 q 78 139 100 92 z "},"Ę":{"ha":732,"x_min":83,"x_max":707,"o":"m 622 -94 q 707 -125 622 -125 l 707 -229 q 606 -223 635 -232 q 561 -208 576 -214 q 536 -191 546 -201 q 522 -85 500 -157 q 572 0 536 -39 l 83 0 l 83 1027 l 671 1027 l 671 891 l 245 891 l 245 607 l 542 607 l 542 470 l 245 470 l 245 146 l 697 146 l 697 0 l 654 0 q 622 -94 622 -44 z "},"ę":{"ha":635,"x_min":40,"x_max":597,"o":"m 357 -102 q 442 -133 357 -133 l 442 -236 q 341 -231 370 -239 q 297 -215 312 -222 q 272 -199 281 -208 q 258 -93 236 -164 q 305 -10 271 -48 q 220 7 257 -6 q 133 60 167 27 q 78 139 100 92 q 48 234 57 185 q 40 358 40 283 q 58 504 40 433 q 103 616 75 574 q 170 684 131 658 q 328 728 237 728 q 477 677 414 728 q 591 319 597 581 l 185 319 q 258 135 185 182 q 336 111 295 111 q 404 121 377 111 q 448 144 431 131 q 477 174 464 157 q 503 214 496 197 l 595 155 q 488 30 545 67 q 389 -9 441 -1 q 357 -102 357 -52 m 192 442 l 443 442 q 425 534 443 495 q 327 605 389 605 q 261 588 290 605 q 219 545 233 572 q 192 442 192 496 z "},"Ě":{"ha":732,"x_min":83,"x_max":697,"o":"m 550 1290 l 382 1122 l 213 1291 l 277 1353 l 380 1249 l 486 1354 l 550 1290 m 83 0 l 83 1027 l 671 1027 l 671 891 l 245 891 l 245 607 l 542 607 l 542 470 l 245 470 l 245 146 l 697 146 l 697 0 l 83 0 z "},"ě":{"ha":635,"x_min":40,"x_max":597,"o":"m 498 974 l 330 806 l 161 975 l 224 1037 l 328 933 l 433 1038 l 498 974 m 192 442 l 443 442 q 425 534 443 495 q 327 605 389 605 q 261 588 290 605 q 219 545 233 572 q 192 442 192 496 m 78 139 q 68 162 78 139 q 48 234 57 185 q 40 358 40 283 q 58 504 40 433 q 103 616 75 574 q 170 684 131 658 q 328 728 237 728 q 477 677 414 728 q 591 319 597 581 l 185 319 q 258 135 185 182 q 336 111 295 111 q 404 121 377 111 q 448 144 431 131 q 477 174 464 157 q 503 214 496 197 l 595 155 q 488 30 545 67 q 349 -12 425 -12 q 220 7 273 -12 q 133 60 167 27 q 78 139 100 92 z "},"Ĝ":{"ha":856,"x_min":42,"x_max":775,"o":"m 271 1166 l 439 1335 l 608 1166 l 544 1103 l 440 1207 l 335 1102 l 271 1166 m 630 702 q 446 910 586 910 q 237 741 297 910 q 204 520 204 647 q 334 140 204 215 q 414 119 372 119 q 487 127 457 119 q 536 149 516 136 q 571 183 556 162 q 594 225 586 204 q 607 275 602 246 q 616 382 614 319 l 418 382 l 418 519 l 775 519 l 775 0 l 644 0 l 644 81 q 549 6 600 28 q 420 -18 493 -18 q 288 12 348 -18 q 183 93 227 41 q 106 213 139 144 q 42 522 42 349 q 104 817 42 686 q 293 1017 172 962 q 419 1046 359 1046 q 516 1038 480 1046 q 590 1007 553 1029 q 659 950 628 985 q 768 727 726 873 l 630 702 z "},"ĝ":{"ha":684,"x_min":14,"x_max":673,"o":"m 158 846 l 326 1014 l 495 845 l 431 783 l 328 886 l 222 781 l 158 846 m 532 277 q 514 259 532 277 q 443 221 496 241 q 336 201 390 201 q 247 214 281 201 q 224 197 241 208 q 193 152 193 176 q 295 108 193 120 q 319 105 314 105 q 343 104 323 104 q 374 103 363 104 q 409 100 385 103 q 454 93 433 98 q 604 37 571 66 q 671 -110 671 -24 q 338 -307 671 -307 q 109 -260 199 -307 q 14 -111 14 -212 q 144 28 14 -21 q 75 64 103 34 q 47 136 47 94 q 152 268 47 222 q 87 348 117 286 q 57 479 57 410 q 96 607 57 549 q 201 696 135 665 q 350 728 268 728 q 428 713 388 728 q 486 684 469 699 q 610 728 544 726 q 642 729 620 729 q 673 730 663 730 l 673 608 l 670 608 q 582 603 604 614 q 575 596 575 600 q 583 572 576 593 q 595 539 591 551 q 606 456 606 501 q 587 362 606 411 q 532 277 568 313 m 341 605 q 310 605 341 605 q 240 570 279 605 q 202 468 202 534 q 237 362 202 401 q 340 324 272 324 q 454 419 428 324 q 461 467 461 443 q 454 514 461 491 q 434 558 448 537 q 341 605 404 605 m 183 -53 q 177 -61 183 -53 q 164 -83 170 -68 q 158 -113 158 -97 q 164 -140 158 -129 q 179 -158 170 -151 q 203 -171 188 -165 q 231 -179 218 -176 q 264 -182 244 -181 q 322 -184 291 -184 q 367 -184 353 -184 q 404 -182 380 -184 q 441 -178 427 -181 q 474 -170 456 -175 q 501 -156 492 -164 q 526 -109 526 -137 q 503 -63 526 -81 q 444 -36 479 -45 q 374 -23 409 -28 q 307 -16 338 -18 q 267 -9 275 -13 q 183 -53 196 -38 z "},"Ğ":{"ha":856,"x_min":42,"x_max":775,"o":"m 532 1154 q 509 1138 532 1154 q 437 1122 486 1122 q 343 1154 389 1122 q 279 1242 296 1186 l 349 1282 q 386 1231 361 1252 q 438 1209 411 1209 q 489 1231 465 1209 q 526 1282 513 1252 l 596 1242 q 532 1154 578 1186 m 630 702 q 446 910 586 910 q 237 741 297 910 q 204 520 204 647 q 334 140 204 215 q 414 119 372 119 q 487 127 457 119 q 536 149 516 136 q 571 183 556 162 q 594 225 586 204 q 607 275 602 246 q 616 382 614 319 l 418 382 l 418 519 l 775 519 l 775 0 l 644 0 l 644 81 q 549 6 600 28 q 420 -18 493 -18 q 288 12 348 -18 q 183 93 227 41 q 106 213 139 144 q 42 522 42 349 q 104 817 42 686 q 293 1017 172 962 q 419 1046 359 1046 q 516 1038 480 1046 q 590 1007 553 1029 q 659 950 628 985 q 768 727 726 873 l 630 702 z "},"ğ":{"ha":684,"x_min":14,"x_max":673,"o":"m 415 839 q 392 823 415 839 q 321 807 369 807 q 226 839 273 807 q 162 928 180 871 l 232 967 q 270 916 245 937 q 321 895 294 895 q 372 916 348 895 q 410 967 397 937 l 479 928 q 415 839 462 871 m 532 277 q 514 259 532 277 q 443 221 496 241 q 336 201 390 201 q 247 214 281 201 q 224 197 241 208 q 193 152 193 176 q 295 108 193 120 q 319 105 314 105 q 343 104 323 104 q 374 103 363 104 q 409 100 385 103 q 454 93 433 98 q 604 37 571 66 q 671 -110 671 -24 q 338 -307 671 -307 q 109 -260 199 -307 q 14 -111 14 -212 q 144 28 14 -21 q 75 64 103 34 q 47 136 47 94 q 152 268 47 222 q 87 348 117 286 q 57 479 57 410 q 96 607 57 549 q 201 696 135 665 q 350 728 268 728 q 428 713 388 728 q 486 684 469 699 q 610 728 544 726 q 642 729 620 729 q 673 730 663 730 l 673 608 l 670 608 q 582 603 604 614 q 575 596 575 600 q 583 572 576 593 q 595 539 591 551 q 606 456 606 501 q 587 362 606 411 q 532 277 568 313 m 341 605 q 310 605 341 605 q 240 570 279 605 q 202 468 202 534 q 237 362 202 401 q 340 324 272 324 q 454 419 428 324 q 461 467 461 443 q 454 514 461 491 q 434 558 448 537 q 341 605 404 605 m 183 -53 q 177 -61 183 -53 q 164 -83 170 -68 q 158 -113 158 -97 q 164 -140 158 -129 q 179 -158 170 -151 q 203 -171 188 -165 q 231 -179 218 -176 q 264 -182 244 -181 q 322 -184 291 -184 q 367 -184 353 -184 q 404 -182 380 -184 q 441 -178 427 -181 q 474 -170 456 -175 q 501 -156 492 -164 q 526 -109 526 -137 q 503 -63 526 -81 q 444 -36 479 -45 q 374 -23 409 -28 q 307 -16 338 -18 q 267 -9 275 -13 q 183 -53 196 -38 z "},"Ġ":{"ha":856,"x_min":42,"x_max":775,"o":"m 346 1122 l 346 1286 l 511 1286 l 511 1122 l 346 1122 m 630 702 q 446 910 586 910 q 237 741 297 910 q 204 520 204 647 q 334 140 204 215 q 414 119 372 119 q 487 127 457 119 q 536 149 516 136 q 571 183 556 162 q 594 225 586 204 q 607 275 602 246 q 616 382 614 319 l 418 382 l 418 519 l 775 519 l 775 0 l 644 0 l 644 81 q 549 6 600 28 q 420 -18 493 -18 q 288 12 348 -18 q 183 93 227 41 q 106 213 139 144 q 42 522 42 349 q 104 817 42 686 q 293 1017 172 962 q 419 1046 359 1046 q 516 1038 480 1046 q 590 1007 553 1029 q 659 950 628 985 q 768 727 726 873 l 630 702 z "},"ġ":{"ha":684,"x_min":14,"x_max":673,"o":"m 227 807 l 227 972 l 393 972 l 393 807 l 227 807 m 532 277 q 514 259 532 277 q 443 221 496 241 q 336 201 390 201 q 247 214 281 201 q 224 197 241 208 q 193 152 193 176 q 295 108 193 120 q 319 105 314 105 q 343 104 323 104 q 374 103 363 104 q 409 100 385 103 q 454 93 433 98 q 604 37 571 66 q 671 -110 671 -24 q 338 -307 671 -307 q 109 -260 199 -307 q 14 -111 14 -212 q 144 28 14 -21 q 75 64 103 34 q 47 136 47 94 q 152 268 47 222 q 87 348 117 286 q 57 479 57 410 q 96 607 57 549 q 201 696 135 665 q 350 728 268 728 q 428 713 388 728 q 486 684 469 699 q 610 728 544 726 q 642 729 620 729 q 673 730 663 730 l 673 608 l 670 608 q 582 603 604 614 q 575 596 575 600 q 583 572 576 593 q 595 539 591 551 q 606 456 606 501 q 587 362 606 411 q 532 277 568 313 m 341 605 q 310 605 341 605 q 240 570 279 605 q 202 468 202 534 q 237 362 202 401 q 340 324 272 324 q 454 419 428 324 q 461 467 461 443 q 454 514 461 491 q 434 558 448 537 q 341 605 404 605 m 183 -53 q 177 -61 183 -53 q 164 -83 170 -68 q 158 -113 158 -97 q 164 -140 158 -129 q 179 -158 170 -151 q 203 -171 188 -165 q 231 -179 218 -176 q 264 -182 244 -181 q 322 -184 291 -184 q 367 -184 353 -184 q 404 -182 380 -184 q 441 -178 427 -181 q 474 -170 456 -175 q 501 -156 492 -164 q 526 -109 526 -137 q 503 -63 526 -81 q 444 -36 479 -45 q 374 -23 409 -28 q 307 -16 338 -18 q 267 -9 275 -13 q 183 -53 196 -38 z "},"Ģ":{"ha":856,"x_min":42,"x_max":775,"o":"m 359 -396 l 414 -227 l 363 -227 l 363 -62 l 529 -62 l 529 -195 l 426 -396 l 359 -396 m 630 702 q 446 910 586 910 q 237 741 297 910 q 204 520 204 647 q 334 140 204 215 q 414 119 372 119 q 487 127 457 119 q 536 149 516 136 q 571 183 556 162 q 594 225 586 204 q 607 275 602 246 q 616 382 614 319 l 418 382 l 418 519 l 775 519 l 775 0 l 644 0 l 644 81 q 549 6 600 28 q 420 -18 493 -18 q 288 12 348 -18 q 183 93 227 41 q 106 213 139 144 q 42 522 42 349 q 104 817 42 686 q 293 1017 172 962 q 419 1046 359 1046 q 516 1038 480 1046 q 590 1007 553 1029 q 659 950 628 985 q 768 727 726 873 l 630 702 z "},"ģ":{"ha":684,"x_min":14,"x_max":673,"o":"m 304 725 l 358 895 l 308 895 l 308 1059 l 473 1059 l 473 926 l 370 725 l 304 725 m 532 277 q 514 259 532 277 q 443 221 496 241 q 336 201 390 201 q 247 214 281 201 q 224 197 241 208 q 193 152 193 176 q 295 108 193 120 q 319 105 314 105 q 343 104 323 104 q 374 103 363 104 q 409 100 385 103 q 454 93 433 98 q 604 37 571 66 q 671 -110 671 -24 q 338 -307 671 -307 q 109 -260 199 -307 q 14 -111 14 -212 q 144 28 14 -21 q 75 64 103 34 q 47 136 47 94 q 152 268 47 222 q 87 348 117 286 q 57 479 57 410 q 96 607 57 549 q 201 696 135 665 q 350 728 268 728 q 428 713 388 728 q 486 684 469 699 q 610 728 544 726 q 642 729 620 729 q 673 730 663 730 l 673 608 l 670 608 q 582 603 604 614 q 575 596 575 600 q 583 572 576 593 q 595 539 591 551 q 606 456 606 501 q 587 362 606 411 q 532 277 568 313 m 341 605 q 310 605 341 605 q 240 570 279 605 q 202 468 202 534 q 237 362 202 401 q 340 324 272 324 q 454 419 428 324 q 461 467 461 443 q 454 514 461 491 q 434 558 448 537 q 341 605 404 605 m 183 -53 q 177 -61 183 -53 q 164 -83 170 -68 q 158 -113 158 -97 q 164 -140 158 -129 q 179 -158 170 -151 q 203 -171 188 -165 q 231 -179 218 -176 q 264 -182 244 -181 q 322 -184 291 -184 q 367 -184 353 -184 q 404 -182 380 -184 q 441 -178 427 -181 q 474 -170 456 -175 q 501 -156 492 -164 q 526 -109 526 -137 q 503 -63 526 -81 q 444 -36 479 -45 q 374 -23 409 -28 q 307 -16 338 -18 q 267 -9 275 -13 q 183 -53 196 -38 z "},"Ĥ":{"ha":865,"x_min":83,"x_max":782,"o":"m 268 1166 l 436 1335 l 605 1166 l 541 1103 l 437 1207 l 332 1102 l 268 1166 m 83 0 l 83 1027 l 245 1027 l 245 608 l 620 608 l 620 1027 l 782 1027 l 782 0 l 620 0 l 620 471 l 245 471 l 245 0 l 83 0 z "},"ĥ":{"ha":676,"x_min":81,"x_max":611,"o":"m 181 1155 l 349 1323 l 518 1154 l 454 1092 l 351 1196 l 245 1090 l 181 1155 m 611 536 l 611 0 l 466 0 l 466 498 q 436 576 466 547 q 366 605 407 605 q 286 581 326 605 q 226 533 245 557 l 226 0 l 81 0 l 81 1027 l 226 1027 l 226 640 q 409 728 314 728 q 551 683 494 728 q 611 536 611 635 z "},"Ĩ":{"ha":296,"x_min":-87,"x_max":390,"o":"m 390 1255 q 239 1120 342 1120 q 137 1150 182 1120 q 66 1181 93 1181 q 26 1166 39 1181 q 1 1124 12 1152 l -87 1165 q -27 1263 -72 1227 q 56 1300 18 1300 q 119 1290 93 1300 q 162 1269 146 1280 q 238 1238 205 1238 q 275 1253 264 1238 q 299 1297 290 1274 l 390 1255 m 67 0 l 67 1027 l 229 1027 l 229 0 l 67 0 z "},"ĩ":{"ha":357,"x_min":-98,"x_max":380,"o":"m 380 939 q 229 804 332 804 q 127 834 172 804 q 56 865 83 865 q 16 850 29 865 q -9 808 2 836 l -98 849 q -37 947 -82 911 q 45 984 8 984 q 109 974 83 984 q 152 953 136 964 q 228 922 195 922 q 265 937 254 922 q 289 981 280 958 l 380 939 m 65 0 l 65 715 l 210 715 l 210 0 l 65 0 z "},"Ī":{"ha":296,"x_min":-24,"x_max":389,"o":"m -24 1103 l -24 1204 l 389 1204 l 389 1103 l -24 1103 m 67 0 l 67 1027 l 229 1027 l 229 0 l 67 0 z "},"ī":{"ha":357,"x_min":-34,"x_max":379,"o":"m -34 787 l -34 888 l 379 888 l 379 787 l -34 787 m 65 0 l 65 715 l 210 715 l 210 0 l 65 0 z "},"Ĭ":{"ha":296,"x_min":-8,"x_max":309,"o":"m 245 1154 q 222 1138 245 1154 q 151 1122 199 1122 q 56 1154 102 1122 q -8 1242 9 1186 l 62 1282 q 99 1231 75 1252 q 151 1209 124 1209 q 202 1231 178 1209 q 239 1282 227 1252 l 309 1242 q 245 1154 292 1186 m 67 0 l 67 1027 l 229 1027 l 229 0 l 67 0 z "},"ĭ":{"ha":357,"x_min":-18,"x_max":299,"o":"m 235 838 q 212 822 235 838 q 140 806 189 806 q 46 838 92 806 q -18 926 -1 870 l 52 966 q 89 915 64 936 q 141 893 114 893 q 192 915 168 893 q 229 966 216 936 l 299 926 q 235 838 281 870 m 65 0 l 65 715 l 210 715 l 210 0 l 65 0 z "},"Į":{"ha":296,"x_min":67,"x_max":276,"o":"m 191 -94 q 276 -125 191 -125 l 276 -229 q 175 -223 204 -232 q 131 -208 146 -214 q 106 -191 115 -201 q 91 -85 69 -157 q 149 7 106 -35 l 229 7 q 191 -94 191 -40 m 67 0 l 67 1027 l 229 1027 l 229 0 l 67 0 z "},"į":{"ha":294,"x_min":62,"x_max":272,"o":"m 187 -94 q 272 -125 187 -125 l 272 -229 q 171 -223 200 -232 q 126 -208 142 -214 q 102 -191 111 -201 q 87 -85 65 -157 q 144 7 102 -35 l 225 7 q 187 -94 187 -40 m 72 0 l 72 715 l 217 715 l 217 0 l 72 0 m 62 778 l 62 943 l 227 943 l 227 778 l 62 778 z "},"İ":{"ha":296,"x_min":59,"x_max":229,"o":"m 59 1122 l 59 1286 l 224 1286 l 224 1122 l 59 1122 m 67 0 l 67 1027 l 229 1027 l 229 0 l 67 0 z "},"ı":{"ha":357,"x_min":65,"x_max":210,"o":"m 65 0 l 65 715 l 210 715 l 210 0 l 65 0 z "},"Ĳ":{"ha":905,"x_min":74,"x_max":823,"o":"m 292 197 l 387 246 q 488 132 413 167 q 544 119 517 119 q 584 123 570 119 q 609 133 598 127 q 627 149 619 138 q 641 171 635 160 q 650 197 646 181 q 656 226 654 213 q 659 258 658 239 q 661 326 661 286 l 661 1027 l 823 1027 l 823 286 q 637 -7 823 39 q 550 -18 597 -18 q 466 -6 504 -18 q 404 22 429 5 q 358 63 378 39 q 326 107 337 88 q 307 150 315 125 q 292 197 296 176 m 74 0 l 74 1027 l 236 1027 l 236 0 l 74 0 z "},"ĳ":{"ha":503,"x_min":68,"x_max":499,"o":"m 217 -112 q 315 -90 285 -112 q 345 15 345 -68 l 345 715 l 490 715 l 490 -5 q 452 -166 490 -120 q 426 -195 438 -184 q 393 -214 414 -206 q 356 -226 371 -222 q 313 -232 341 -230 q 222 -235 277 -235 l 217 -112 m 335 778 l 335 943 l 499 943 l 499 778 l 335 778 m 78 0 l 78 715 l 223 715 l 223 0 l 78 0 m 68 778 l 68 943 l 233 943 l 233 778 l 68 778 z "},"Ĵ":{"ha":616,"x_min":1,"x_max":640,"o":"m 302 1166 l 471 1335 l 640 1166 l 576 1103 l 472 1207 l 367 1102 l 302 1166 m 1 197 l 97 246 q 197 132 123 167 q 253 119 227 119 q 294 123 279 119 q 318 133 308 127 q 337 149 329 138 q 351 171 345 160 q 360 197 356 181 q 366 226 363 213 q 369 258 368 239 q 370 326 370 286 l 370 1027 l 532 1027 l 532 286 q 347 -7 532 39 q 260 -18 307 -18 q 176 -6 214 -18 q 113 22 138 5 q 67 63 88 39 q 36 107 47 88 q 16 150 25 125 q 1 197 6 176 z "},"Ķ":{"ha":781,"x_min":83,"x_max":779,"o":"m 355 -385 l 410 -216 l 359 -216 l 359 -51 l 525 -51 l 525 -184 l 422 -385 l 355 -385 m 83 0 l 83 1027 l 247 1027 l 247 570 l 589 1027 l 760 1027 l 456 627 l 779 0 l 601 0 l 352 490 l 247 352 l 247 0 l 83 0 z "},"ķ":{"ha":627,"x_min":84,"x_max":624,"o":"m 278 -385 l 332 -216 l 282 -216 l 282 -51 l 448 -51 l 448 -184 l 345 -385 l 278 -385 m 84 0 l 84 1027 l 229 1027 l 229 449 l 435 715 l 612 715 l 404 451 l 624 0 l 460 0 l 304 323 l 229 229 l 229 0 l 84 0 z "},"Ĺ":{"ha":690,"x_min":83,"x_max":670,"o":"m 417 1294 l 176 1090 l 117 1148 l 338 1377 l 417 1294 m 83 0 l 83 1027 l 245 1027 l 245 156 l 670 156 l 670 0 l 83 0 z "},"ĺ":{"ha":306,"x_min":84,"x_max":412,"o":"m 412 1282 l 171 1078 l 112 1137 l 334 1366 l 412 1282 m 84 -2 l 84 1027 l 229 1027 l 229 -2 l 84 -2 z "},"Ļ":{"ha":690,"x_min":83,"x_max":670,"o":"m 286 -385 l 340 -216 l 290 -216 l 290 -51 l 455 -51 l 455 -184 l 352 -385 l 286 -385 m 83 0 l 83 1027 l 245 1027 l 245 156 l 670 156 l 670 0 l 83 0 z "},"ļ":{"ha":306,"x_min":53,"x_max":229,"o":"m 53 -387 l 107 -217 l 57 -217 l 57 -52 l 222 -52 l 222 -186 l 119 -387 l 53 -387 m 84 -2 l 84 1027 l 229 1027 l 229 -2 l 84 -2 z "},"Ľ":{"ha":690,"x_min":83,"x_max":670,"o":"m 256 710 l 310 880 l 260 880 l 260 1044 l 425 1044 l 425 911 l 322 710 l 256 710 m 83 0 l 83 1027 l 245 1027 l 245 156 l 670 156 l 670 0 l 83 0 z "},"ľ":{"ha":430,"x_min":92,"x_max":416,"o":"m 247 725 l 301 895 l 251 895 l 251 1059 l 416 1059 l 416 926 l 313 725 l 247 725 m 92 -2 l 92 1027 l 237 1027 l 237 -2 l 92 -2 z "},"Ŀ":{"ha":690,"x_min":83,"x_max":670,"o":"m 282 440 l 282 605 l 448 605 l 448 440 l 282 440 m 83 0 l 83 1027 l 245 1027 l 245 156 l 670 156 l 670 0 l 83 0 z "},"ŀ":{"ha":487,"x_min":92,"x_max":473,"o":"m 308 505 l 308 669 l 473 669 l 473 505 l 308 505 m 92 -2 l 92 1027 l 237 1027 l 237 -2 l 92 -2 z "},"Ń":{"ha":863,"x_min":78,"x_max":783,"o":"m 715 1294 l 473 1090 l 414 1148 l 636 1377 l 715 1294 m 622 397 l 622 1027 l 783 1027 l 783 0 l 654 0 l 239 788 l 239 0 l 78 0 l 78 1027 l 287 1027 l 622 397 z "},"ń":{"ha":670,"x_min":75,"x_max":623,"o":"m 623 978 l 381 774 l 322 832 l 544 1061 l 623 978 m 605 536 l 605 0 l 460 0 l 460 498 q 430 576 460 547 q 360 605 401 605 q 279 581 319 605 q 220 533 239 557 l 220 0 l 75 0 l 75 715 l 220 715 l 220 640 q 302 703 259 679 q 403 728 345 728 q 548 680 491 728 q 605 536 605 632 z "},"Ņ":{"ha":863,"x_min":78,"x_max":783,"o":"m 355 -385 l 410 -216 l 359 -216 l 359 -51 l 525 -51 l 525 -184 l 422 -385 l 355 -385 m 622 397 l 622 1027 l 783 1027 l 783 0 l 654 0 l 239 788 l 239 0 l 78 0 l 78 1027 l 287 1027 l 622 397 z "},"ņ":{"ha":670,"x_min":75,"x_max":605,"o":"m 263 -385 l 317 -216 l 267 -216 l 267 -51 l 433 -51 l 433 -184 l 330 -385 l 263 -385 m 605 536 l 605 0 l 460 0 l 460 498 q 430 576 460 547 q 360 605 401 605 q 279 581 319 605 q 220 533 239 557 l 220 0 l 75 0 l 75 715 l 220 715 l 220 640 q 302 703 259 679 q 403 728 345 728 q 548 680 491 728 q 605 536 605 632 z "},"Ň":{"ha":863,"x_min":78,"x_max":783,"o":"m 604 1290 l 435 1122 l 267 1291 l 330 1353 l 434 1249 l 539 1354 l 604 1290 m 622 397 l 622 1027 l 783 1027 l 783 0 l 654 0 l 239 788 l 239 0 l 78 0 l 78 1027 l 287 1027 l 622 397 z "},"ň":{"ha":670,"x_min":75,"x_max":605,"o":"m 511 974 l 343 806 l 174 975 l 238 1037 l 342 933 l 447 1038 l 511 974 m 605 536 l 605 0 l 460 0 l 460 498 q 430 576 460 547 q 360 605 401 605 q 279 581 319 605 q 220 533 239 557 l 220 0 l 75 0 l 75 715 l 220 715 l 220 640 q 302 703 259 679 q 403 728 345 728 q 548 680 491 728 q 605 536 605 632 z "},"ŉ":{"ha":772,"x_min":33,"x_max":714,"o":"m 714 536 l 714 0 l 569 0 l 569 498 q 539 576 569 547 q 469 605 510 605 q 389 581 429 605 q 329 533 349 557 l 329 0 l 184 0 l 184 715 l 329 715 l 329 640 q 411 703 368 679 q 512 728 454 728 q 657 680 600 728 q 714 536 714 632 m 33 678 l 87 848 l 37 848 l 37 1013 l 202 1013 l 202 879 l 99 678 l 33 678 z "},"Ō":{"ha":864,"x_min":43,"x_max":821,"o":"m 267 1103 l 267 1204 l 680 1204 l 680 1103 l 267 1103 m 217 657 q 214 637 217 657 q 208 582 210 617 q 205 510 205 547 q 208 437 205 473 q 217 361 210 401 q 235 287 224 321 q 265 221 246 253 q 307 168 283 190 q 438 119 359 119 q 659 511 659 119 q 509 896 659 830 q 437 910 477 910 q 364 896 397 910 q 307 858 330 882 q 265 802 283 835 q 235 733 246 768 q 217 657 224 698 m 50 408 q 43 510 43 459 q 49 612 43 561 q 69 717 55 664 q 104 818 83 770 q 158 908 125 865 q 230 981 190 950 q 439 1046 316 1046 q 711 907 609 1046 q 821 510 821 755 q 715 117 821 260 q 439 -18 616 -18 q 165 117 272 -18 q 50 408 74 231 z "},"ō":{"ha":666,"x_min":40,"x_max":626,"o":"m 161 787 l 161 888 l 574 888 l 574 787 l 161 787 m 189 440 q 185 363 185 404 q 189 288 185 321 q 204 222 193 255 q 231 164 214 189 q 334 110 267 110 q 481 357 481 110 q 437 559 481 503 q 334 605 402 605 q 189 440 208 605 m 40 358 q 118 628 40 528 q 334 728 197 728 q 491 682 425 728 q 626 357 626 587 q 447 5 626 71 q 334 -13 397 -13 q 220 5 271 -13 q 137 56 170 24 q 81 136 104 89 q 40 358 40 224 z "},"Ŏ":{"ha":864,"x_min":43,"x_max":821,"o":"m 535 1154 q 512 1138 535 1154 q 441 1122 489 1122 q 346 1154 393 1122 q 282 1242 300 1186 l 352 1282 q 390 1231 365 1252 q 441 1209 414 1209 q 492 1231 468 1209 q 530 1282 517 1252 l 600 1242 q 535 1154 582 1186 m 217 657 q 214 637 217 657 q 208 582 210 617 q 205 510 205 547 q 208 437 205 473 q 217 361 210 401 q 235 287 224 321 q 265 221 246 253 q 307 168 283 190 q 438 119 359 119 q 659 511 659 119 q 509 896 659 830 q 437 910 477 910 q 364 896 397 910 q 307 858 330 882 q 265 802 283 835 q 235 733 246 768 q 217 657 224 698 m 50 408 q 43 510 43 459 q 49 612 43 561 q 69 717 55 664 q 104 818 83 770 q 158 908 125 865 q 230 981 190 950 q 439 1046 316 1046 q 711 907 609 1046 q 821 510 821 755 q 715 117 821 260 q 439 -18 616 -18 q 165 117 272 -18 q 50 408 74 231 z "},"ŏ":{"ha":666,"x_min":40,"x_max":626,"o":"m 430 838 q 407 822 430 838 q 336 806 384 806 q 241 838 288 806 q 177 926 195 870 l 247 966 q 284 915 260 936 q 336 893 309 893 q 387 915 363 893 q 425 966 412 936 l 494 926 q 430 838 477 870 m 189 440 q 185 363 185 404 q 189 288 185 321 q 204 222 193 255 q 231 164 214 189 q 334 110 267 110 q 481 357 481 110 q 437 559 481 503 q 334 605 402 605 q 189 440 208 605 m 40 358 q 118 628 40 528 q 334 728 197 728 q 491 682 425 728 q 626 357 626 587 q 447 5 626 71 q 334 -13 397 -13 q 220 5 271 -13 q 137 56 170 24 q 81 136 104 89 q 40 358 40 224 z "},"Ő":{"ha":864,"x_min":43,"x_max":821,"o":"m 217 657 q 214 637 217 657 q 208 582 210 617 q 205 510 205 547 q 208 437 205 473 q 217 361 210 401 q 235 287 224 321 q 265 221 246 253 q 307 168 283 190 q 438 119 359 119 q 659 511 659 119 q 509 896 659 830 q 437 910 477 910 q 364 896 397 910 q 307 858 330 882 q 265 802 283 835 q 235 733 246 768 q 217 657 224 698 m 50 408 q 43 510 43 459 q 49 612 43 561 q 69 717 55 664 q 104 818 83 770 q 158 908 125 865 q 230 981 190 950 q 439 1046 316 1046 q 711 907 609 1046 q 821 510 821 755 q 715 117 821 260 q 439 -18 616 -18 q 165 117 272 -18 q 50 408 74 231 z "},"ő":{"ha":666,"x_min":40,"x_max":626,"o":"m 189 440 q 185 363 185 404 q 189 288 185 321 q 204 222 193 255 q 231 164 214 189 q 334 110 267 110 q 481 357 481 110 q 437 559 481 503 q 334 605 402 605 q 189 440 208 605 m 40 358 q 118 628 40 528 q 334 728 197 728 q 491 682 425 728 q 626 357 626 587 q 447 5 626 71 q 334 -13 397 -13 q 220 5 271 -13 q 137 56 170 24 q 81 136 104 89 q 40 358 40 224 z "},"Œ":{"ha":1173,"x_min":42,"x_max":1138,"o":"m 524 146 l 524 891 l 437 891 q 264 790 324 891 q 204 511 204 688 q 363 157 204 214 q 437 146 397 146 l 524 146 m 439 0 q 164 128 271 0 q 49 409 73 237 q 42 510 42 459 q 48 611 42 561 q 68 713 54 662 q 104 810 83 765 q 157 896 125 856 q 229 965 189 937 q 439 1027 315 1027 l 1112 1027 l 1112 891 l 686 891 l 686 607 l 983 607 l 983 470 l 686 470 l 686 146 l 1138 146 l 1138 0 l 439 0 z "},"œ":{"ha":1076,"x_min":40,"x_max":1038,"o":"m 633 444 l 884 444 q 865 534 884 496 q 768 605 830 605 q 650 526 684 605 q 633 444 633 487 m 40 358 q 118 628 40 528 q 334 728 197 728 q 551 624 471 728 q 769 728 624 728 q 972 616 903 728 q 1034 319 1038 511 l 626 319 q 699 135 626 182 q 777 111 736 111 q 845 121 818 111 q 888 144 872 131 q 918 174 905 157 q 943 214 936 196 l 1036 155 q 929 29 987 68 q 783 -12 866 -12 q 554 83 631 -12 q 334 -13 480 -13 q 81 136 151 -13 q 40 358 40 224 m 189 440 q 185 363 185 404 q 189 288 185 321 q 204 222 193 255 q 231 164 214 189 q 334 110 267 110 q 481 357 481 110 q 437 559 481 503 q 334 605 402 605 q 189 440 208 605 z "},"Ŕ":{"ha":760,"x_min":83,"x_max":748,"o":"m 555 1294 l 314 1090 l 255 1148 l 477 1377 l 555 1294 m 245 583 l 417 583 q 536 621 488 583 q 586 748 586 663 q 359 891 586 891 l 245 891 l 245 583 m 83 0 l 83 1027 l 429 1027 q 730 857 667 1027 q 748 755 748 808 q 736 659 748 702 q 701 578 724 615 q 551 475 650 496 l 741 0 l 575 0 l 397 446 l 245 446 l 245 0 l 83 0 z "},"ŕ":{"ha":441,"x_min":75,"x_max":539,"o":"m 539 978 l 298 774 l 239 832 l 460 1061 l 539 978 m 75 0 l 75 715 l 220 715 l 220 617 q 232 635 222 621 l 248 659 q 414 728 298 728 q 438 726 426 728 l 438 604 q 260 536 315 602 q 220 459 236 506 l 220 0 l 75 0 z "},"Ŗ":{"ha":760,"x_min":83,"x_max":748,"o":"m 337 -385 l 391 -216 l 341 -216 l 341 -51 l 507 -51 l 507 -184 l 404 -385 l 337 -385 m 245 583 l 417 583 q 536 621 488 583 q 586 748 586 663 q 359 891 586 891 l 245 891 l 245 583 m 83 0 l 83 1027 l 429 1027 q 730 857 667 1027 q 748 755 748 808 q 736 659 748 702 q 701 578 724 615 q 551 475 650 496 l 741 0 l 575 0 l 397 446 l 245 446 l 245 0 l 83 0 z "},"ŗ":{"ha":441,"x_min":57,"x_max":438,"o":"m 57 -385 l 111 -216 l 61 -216 l 61 -51 l 227 -51 l 227 -184 l 123 -385 l 57 -385 m 75 0 l 75 715 l 220 715 l 220 617 q 232 635 222 621 l 248 659 q 414 728 298 728 q 438 726 426 728 l 438 604 q 260 536 315 602 q 220 459 236 506 l 220 0 l 75 0 z "},"Ř":{"ha":760,"x_min":83,"x_max":748,"o":"m 558 1290 l 390 1122 l 221 1291 l 285 1353 l 389 1249 l 494 1354 l 558 1290 m 245 583 l 417 583 q 536 621 488 583 q 586 748 586 663 q 359 891 586 891 l 245 891 l 245 583 m 83 0 l 83 1027 l 429 1027 q 730 857 667 1027 q 748 755 748 808 q 736 659 748 702 q 701 578 724 615 q 551 475 650 496 l 741 0 l 575 0 l 397 446 l 245 446 l 245 0 l 83 0 z "},"ř":{"ha":441,"x_min":75,"x_max":438,"o":"m 428 974 l 260 806 l 91 975 l 155 1037 l 258 933 l 363 1038 l 428 974 m 75 0 l 75 715 l 220 715 l 220 617 q 232 635 222 621 l 248 659 q 414 728 298 728 q 438 726 426 728 l 438 604 q 260 536 315 602 q 220 459 236 506 l 220 0 l 75 0 z "},"Ś":{"ha":706,"x_min":16,"x_max":685,"o":"m 586 1326 l 345 1122 l 286 1180 l 507 1409 l 586 1326 m 16 263 l 146 306 q 149 296 147 306 q 156 269 151 286 q 171 232 161 252 q 197 192 180 212 q 239 156 215 172 q 370 119 292 119 q 486 157 449 119 q 523 249 523 196 q 512 335 523 302 q 474 393 501 368 q 317 466 429 433 q 63 644 119 524 q 34 793 34 707 q 85 933 34 865 q 337 1046 174 1046 q 549 968 467 1046 q 637 830 608 913 l 650 794 q 659 773 656 778 l 526 726 q 387 902 481 869 q 337 910 363 910 q 196 765 196 910 q 235 663 196 699 q 321 615 268 633 l 353 604 q 384 594 381 595 l 414 584 q 570 512 530 543 q 648 427 630 466 q 685 260 685 348 q 646 119 685 191 q 478 -6 593 24 q 382 -18 434 -18 q 284 -8 330 -18 q 205 18 238 1 q 144 55 172 34 q 97 99 116 76 q 64 146 78 123 q 41 191 50 170 q 27 228 33 212 q 19 254 22 244 q 16 263 17 263 z "},"ś":{"ha":604,"x_min":45,"x_max":576,"o":"m 576 978 l 334 774 l 275 832 l 497 1061 l 576 978 m 45 144 l 146 205 q 190 151 170 171 q 311 103 238 103 q 395 127 370 103 q 418 195 418 150 q 385 273 418 247 q 326 303 355 295 l 262 321 q 103 406 152 353 q 54 547 54 459 q 115 673 54 623 q 302 728 180 728 q 490 653 411 728 q 532 600 524 621 l 448 533 q 353 604 401 591 q 289 612 329 612 q 221 591 250 612 q 193 532 193 571 q 233 461 193 486 q 304 428 269 439 l 366 411 q 544 273 509 370 q 558 180 558 234 q 525 81 558 126 q 436 12 491 37 q 325 -12 381 -12 q 233 -5 269 -12 q 163 18 197 1 q 45 144 97 52 z "},"Ŝ":{"ha":706,"x_min":16,"x_max":685,"o":"m 173 1166 l 341 1335 l 510 1166 l 446 1103 l 342 1207 l 237 1102 l 173 1166 m 16 263 l 146 306 q 149 296 147 306 q 156 269 151 286 q 171 232 161 252 q 197 192 180 212 q 239 156 215 172 q 370 119 292 119 q 486 157 449 119 q 523 249 523 196 q 512 335 523 302 q 474 393 501 368 q 317 466 429 433 q 63 644 119 524 q 34 793 34 707 q 85 933 34 865 q 337 1046 174 1046 q 549 968 467 1046 q 637 830 608 913 l 650 794 q 659 773 656 778 l 526 726 q 387 902 481 869 q 337 910 363 910 q 196 765 196 910 q 235 663 196 699 q 321 615 268 633 l 353 604 q 384 594 381 595 l 414 584 q 570 512 530 543 q 648 427 630 466 q 685 260 685 348 q 646 119 685 191 q 478 -6 593 24 q 382 -18 434 -18 q 284 -8 330 -18 q 205 18 238 1 q 144 55 172 34 q 97 99 116 76 q 64 146 78 123 q 41 191 50 170 q 27 228 33 212 q 19 254 22 244 q 16 263 17 263 z "},"ŝ":{"ha":604,"x_min":45,"x_max":558,"o":"m 127 850 l 296 1019 l 465 850 l 401 787 l 297 891 l 192 786 l 127 850 m 45 144 l 146 205 q 190 151 170 171 q 311 103 238 103 q 395 127 370 103 q 418 195 418 150 q 385 273 418 247 q 326 303 355 295 l 262 321 q 103 406 152 353 q 54 547 54 459 q 115 673 54 623 q 302 728 180 728 q 490 653 411 728 q 532 600 524 621 l 448 533 q 353 604 401 591 q 289 612 329 612 q 221 591 250 612 q 193 532 193 571 q 233 461 193 486 q 304 428 269 439 l 366 411 q 544 273 509 370 q 558 180 558 234 q 525 81 558 126 q 436 12 491 37 q 325 -12 381 -12 q 233 -5 269 -12 q 163 18 197 1 q 45 144 97 52 z "},"Ş":{"ha":706,"x_min":16,"x_max":685,"o":"m 16 263 l 146 306 q 149 296 147 306 q 156 269 151 286 q 171 232 161 252 q 197 192 180 212 q 239 156 215 172 q 370 119 292 119 q 486 157 449 119 q 523 249 523 196 q 512 335 523 302 q 474 393 501 368 q 317 466 429 433 q 63 644 119 524 q 34 793 34 707 q 85 933 34 865 q 337 1046 174 1046 q 549 968 467 1046 q 637 830 608 913 l 650 794 q 659 773 656 778 l 526 726 q 387 902 481 869 q 337 910 363 910 q 196 765 196 910 q 235 663 196 699 q 321 615 268 633 l 353 604 q 384 594 381 595 l 414 584 q 570 512 530 543 q 648 427 630 466 q 685 260 685 348 q 646 119 685 191 q 478 -6 593 24 q 429 -15 454 -12 q 484 -150 484 -76 q 408 -229 484 -206 q 291 -239 363 -243 l 291 -136 q 376 -105 376 -136 q 347 -16 376 -58 q 284 -8 314 -14 q 205 18 238 1 q 144 55 172 34 q 97 99 116 76 q 64 146 78 123 q 41 191 50 170 q 27 228 33 212 q 19 254 22 244 q 16 263 17 263 z "},"ş":{"ha":604,"x_min":45,"x_max":558,"o":"m 45 144 l 146 205 q 190 151 170 171 q 311 103 238 103 q 395 127 370 103 q 418 195 418 150 q 385 273 418 247 q 326 303 355 295 l 262 321 q 103 406 152 353 q 54 547 54 459 q 115 673 54 623 q 302 728 180 728 q 490 653 411 728 q 532 600 524 621 l 448 533 q 353 604 401 591 q 289 612 329 612 q 221 591 250 612 q 193 532 193 571 q 233 461 193 486 q 304 428 269 439 l 366 411 q 544 273 509 370 q 558 180 558 234 q 525 81 558 126 q 436 12 491 37 q 359 -10 398 -5 q 416 -146 416 -71 q 340 -226 416 -203 q 223 -236 295 -239 l 223 -133 q 308 -102 308 -133 q 277 -11 308 -53 q 233 -5 252 -9 q 163 18 197 1 q 45 144 97 52 z "},"Š":{"ha":706,"x_min":16,"x_max":685,"o":"m 510 1290 l 342 1122 l 173 1291 l 237 1353 l 340 1249 l 446 1354 l 510 1290 m 16 263 l 146 306 q 149 296 147 306 q 156 269 151 286 q 171 232 161 252 q 197 192 180 212 q 239 156 215 172 q 370 119 292 119 q 486 157 449 119 q 523 249 523 196 q 512 335 523 302 q 474 393 501 368 q 317 466 429 433 q 63 644 119 524 q 34 793 34 707 q 85 933 34 865 q 337 1046 174 1046 q 549 968 467 1046 q 637 830 608 913 l 650 794 q 659 773 656 778 l 526 726 q 387 902 481 869 q 337 910 363 910 q 196 765 196 910 q 235 663 196 699 q 321 615 268 633 l 353 604 q 384 594 381 595 l 414 584 q 570 512 530 543 q 648 427 630 466 q 685 260 685 348 q 646 119 685 191 q 478 -6 593 24 q 382 -18 434 -18 q 284 -8 330 -18 q 205 18 238 1 q 144 55 172 34 q 97 99 116 76 q 64 146 78 123 q 41 191 50 170 q 27 228 33 212 q 19 254 22 244 q 16 263 17 263 z "},"š":{"ha":604,"x_min":45,"x_max":558,"o":"m 465 974 l 296 806 l 127 975 l 191 1037 l 295 933 l 400 1038 l 465 974 m 45 144 l 146 205 q 190 151 170 171 q 311 103 238 103 q 395 127 370 103 q 418 195 418 150 q 385 273 418 247 q 326 303 355 295 l 262 321 q 103 406 152 353 q 54 547 54 459 q 115 673 54 623 q 302 728 180 728 q 490 653 411 728 q 532 600 524 621 l 448 533 q 353 604 401 591 q 289 612 329 612 q 221 591 250 612 q 193 532 193 571 q 233 461 193 486 q 304 428 269 439 l 366 411 q 544 273 509 370 q 558 180 558 234 q 525 81 558 126 q 436 12 491 37 q 325 -12 381 -12 q 233 -5 269 -12 q 163 18 197 1 q 45 144 97 52 z "},"Ţ":{"ha":720,"x_min":1,"x_max":718,"o":"m 1 891 l 1 1027 l 718 1027 l 718 891 l 441 891 l 441 0 l 403 0 q 462 -139 462 -62 q 386 -218 462 -195 q 269 -229 342 -232 l 269 -125 q 354 -94 354 -125 q 321 0 354 -44 l 279 0 l 279 891 l 1 891 z "},"ţ":{"ha":416,"x_min":12,"x_max":413,"o":"m 12 593 l 12 715 l 118 715 l 118 977 l 263 977 l 263 715 l 413 715 l 413 593 l 263 593 l 263 209 q 284 130 263 151 q 353 109 304 109 q 393 111 373 109 q 413 115 413 114 l 413 12 q 357 -9 376 -5 q 313 -14 338 -14 q 366 -148 366 -75 q 291 -227 366 -204 q 174 -237 246 -241 l 174 -134 q 258 -103 258 -134 q 224 -7 258 -52 q 196 3 208 -3 q 166 23 182 9 q 140 56 151 37 q 118 168 118 99 l 118 593 l 12 593 z "},"Ť":{"ha":720,"x_min":1,"x_max":718,"o":"m 532 1290 l 364 1122 l 195 1291 l 259 1353 l 363 1249 l 468 1354 l 532 1290 m 1 891 l 1 1027 l 718 1027 l 718 891 l 441 891 l 441 0 l 279 0 l 279 891 l 1 891 z "},"ť":{"ha":575,"x_min":13,"x_max":562,"o":"m 393 725 l 447 895 l 397 895 l 397 1059 l 562 1059 l 562 926 l 459 725 l 393 725 m 13 593 l 13 715 l 119 715 l 119 977 l 264 977 l 264 715 l 414 715 l 414 593 l 264 593 l 264 209 q 285 130 264 151 q 355 109 306 109 q 394 111 374 109 q 414 115 414 114 l 414 12 q 358 -9 378 -5 q 309 -14 338 -14 q 266 -14 280 -14 q 232 -9 252 -13 q 198 2 212 -5 q 168 23 183 9 q 142 56 152 37 q 119 168 119 99 l 119 593 l 13 593 z "},"Ũ":{"ha":837,"x_min":83,"x_max":759,"o":"m 662 1255 q 511 1120 614 1120 q 409 1150 454 1120 q 338 1181 365 1181 q 298 1166 311 1181 q 273 1124 284 1152 l 184 1165 q 245 1263 200 1227 q 328 1300 290 1300 q 391 1290 365 1300 q 434 1269 418 1280 q 510 1238 477 1238 q 547 1253 536 1238 q 571 1297 562 1274 l 662 1255 m 83 304 l 83 1027 l 245 1027 l 245 342 q 356 130 245 171 q 420 119 385 119 q 484 128 455 119 q 530 152 512 138 q 560 188 547 166 q 579 229 573 210 q 589 272 585 247 q 593 342 593 304 l 593 1027 l 759 1027 l 759 304 q 656 58 759 149 q 420 -18 572 -18 q 115 157 191 -18 q 83 304 83 229 z "},"ũ":{"ha":677,"x_min":80,"x_max":610,"o":"m 587 939 q 436 804 539 804 q 335 834 379 804 q 263 865 290 865 q 223 850 237 865 q 198 808 210 836 l 110 849 q 171 947 125 911 q 253 984 216 984 q 317 974 290 984 q 359 953 343 964 q 435 922 403 922 q 473 937 461 922 q 496 981 488 958 l 587 939 m 80 179 l 80 715 l 225 715 l 225 217 q 255 139 225 168 q 325 111 284 111 q 405 135 365 111 q 465 182 446 159 l 465 715 l 610 715 l 610 0 l 465 0 l 465 76 q 282 -12 377 -12 q 140 33 197 -12 q 80 179 80 81 z "},"Ū":{"ha":837,"x_min":83,"x_max":759,"o":"m 248 1103 l 248 1204 l 661 1204 l 661 1103 l 248 1103 m 83 304 l 83 1027 l 245 1027 l 245 342 q 356 130 245 171 q 420 119 385 119 q 484 128 455 119 q 530 152 512 138 q 560 188 547 166 q 579 229 573 210 q 589 272 585 247 q 593 342 593 304 l 593 1027 l 759 1027 l 759 304 q 656 58 759 149 q 420 -18 572 -18 q 115 157 191 -18 q 83 304 83 229 z "},"ū":{"ha":677,"x_min":80,"x_max":610,"o":"m 174 787 l 174 888 l 587 888 l 587 787 l 174 787 m 80 179 l 80 715 l 225 715 l 225 217 q 255 139 225 168 q 325 111 284 111 q 405 135 365 111 q 465 182 446 159 l 465 715 l 610 715 l 610 0 l 465 0 l 465 76 q 282 -12 377 -12 q 140 33 197 -12 q 80 179 80 81 z "},"Ŭ":{"ha":837,"x_min":83,"x_max":759,"o":"m 517 1154 q 494 1138 517 1154 q 422 1122 471 1122 q 328 1154 374 1122 q 264 1242 281 1186 l 334 1282 q 371 1231 347 1252 q 423 1209 396 1209 q 474 1231 450 1209 q 511 1282 498 1252 l 581 1242 q 517 1154 564 1186 m 83 304 l 83 1027 l 245 1027 l 245 342 q 356 130 245 171 q 420 119 385 119 q 484 128 455 119 q 530 152 512 138 q 560 188 547 166 q 579 229 573 210 q 589 272 585 247 q 593 342 593 304 l 593 1027 l 759 1027 l 759 304 q 656 58 759 149 q 420 -18 572 -18 q 115 157 191 -18 q 83 304 83 229 z "},"ŭ":{"ha":677,"x_min":80,"x_max":610,"o":"m 443 838 q 419 822 443 838 q 348 806 396 806 q 253 838 300 806 q 189 926 207 870 l 259 966 q 297 915 272 936 q 348 893 321 893 q 399 915 375 893 q 437 966 424 936 l 507 926 q 443 838 489 870 m 80 179 l 80 715 l 225 715 l 225 217 q 255 139 225 168 q 325 111 284 111 q 405 135 365 111 q 465 182 446 159 l 465 715 l 610 715 l 610 0 l 465 0 l 465 76 q 282 -12 377 -12 q 140 33 197 -12 q 80 179 80 81 z "},"Ů":{"ha":837,"x_min":83,"x_max":759,"o":"m 390 1364 q 376 1351 390 1364 q 363 1299 363 1337 q 390 1233 363 1260 q 456 1206 417 1206 q 522 1233 494 1206 q 549 1299 549 1260 q 522 1364 549 1337 q 456 1392 494 1392 q 390 1364 417 1392 m 318 1161 q 290 1190 318 1161 q 261 1299 261 1218 q 318 1436 261 1379 q 456 1493 376 1493 q 593 1436 536 1493 q 650 1299 650 1379 q 593 1161 650 1218 q 456 1104 536 1104 q 318 1161 376 1104 m 83 304 l 83 1027 l 245 1027 l 245 342 q 356 130 245 171 q 420 119 385 119 q 484 128 455 119 q 530 152 512 138 q 560 188 547 166 q 579 229 573 210 q 589 272 585 247 q 593 342 593 304 l 593 1027 l 759 1027 l 759 304 q 656 58 759 149 q 420 -18 572 -18 q 115 157 191 -18 q 83 304 83 229 z "},"ů":{"ha":677,"x_min":80,"x_max":610,"o":"m 315 998 q 302 984 315 998 q 288 932 288 970 q 315 866 288 893 q 381 839 342 839 q 447 866 420 839 q 474 932 474 893 q 447 998 474 970 q 381 1025 420 1025 q 315 998 342 1025 m 244 794 q 215 823 244 794 q 186 932 186 851 q 244 1069 186 1013 q 381 1126 301 1126 q 519 1069 462 1126 q 576 932 576 1013 q 519 794 576 851 q 381 737 462 737 q 244 794 301 737 m 80 179 l 80 715 l 225 715 l 225 217 q 255 139 225 168 q 325 111 284 111 q 405 135 365 111 q 465 182 446 159 l 465 715 l 610 715 l 610 0 l 465 0 l 465 76 q 282 -12 377 -12 q 140 33 197 -12 q 80 179 80 81 z "},"Ű":{"ha":837,"x_min":83,"x_max":759,"o":"m 83 304 l 83 1027 l 245 1027 l 245 342 q 356 130 245 171 q 420 119 385 119 q 484 128 455 119 q 530 152 512 138 q 560 188 547 166 q 579 229 573 210 q 589 272 585 247 q 593 342 593 304 l 593 1027 l 759 1027 l 759 304 q 656 58 759 149 q 420 -18 572 -18 q 115 157 191 -18 q 83 304 83 229 z "},"ű":{"ha":677,"x_min":80,"x_max":610,"o":"m 80 179 l 80 715 l 225 715 l 225 217 q 255 139 225 168 q 325 111 284 111 q 405 135 365 111 q 465 182 446 159 l 465 715 l 610 715 l 610 0 l 465 0 l 465 76 q 282 -12 377 -12 q 140 33 197 -12 q 80 179 80 81 z "},"ų":{"ha":677,"x_min":80,"x_max":680,"o":"m 595 -102 q 680 -133 595 -133 l 680 -236 q 578 -231 608 -239 q 534 -215 549 -222 q 509 -199 519 -208 q 494 -93 473 -164 q 552 -1 510 -42 l 633 -1 q 595 -102 595 -47 m 80 179 l 80 715 l 225 715 l 225 217 q 255 139 225 168 q 325 111 284 111 q 405 135 365 111 q 465 182 446 159 l 465 715 l 610 715 l 610 0 l 465 0 l 465 76 q 282 -12 377 -12 q 140 33 197 -12 q 80 179 80 81 z "},"Ŵ":{"ha":1095,"x_min":1,"x_max":1093,"o":"m 382 1166 l 551 1335 l 720 1166 l 656 1103 l 552 1207 l 447 1102 l 382 1166 m 1 1027 l 169 1027 l 319 338 l 326 338 l 473 1027 l 627 1027 l 772 338 l 780 338 l 930 1027 l 1093 1027 l 855 0 l 704 0 l 553 717 l 547 717 l 393 0 l 239 0 l 1 1027 z "},"ŵ":{"ha":894,"x_min":4,"x_max":891,"o":"m 295 850 l 463 1019 l 632 850 l 568 787 l 465 891 l 359 786 l 295 850 m 346 0 l 198 0 l 4 715 l 155 715 l 279 252 l 385 715 l 510 715 l 616 253 l 740 715 l 891 715 l 696 0 l 548 0 l 448 442 l 346 0 z "},"Ŷ":{"ha":761,"x_min":1,"x_max":760,"o":"m 216 1166 l 384 1335 l 553 1166 l 489 1103 l 385 1207 l 280 1102 l 216 1166 m 461 475 l 461 0 l 300 0 l 300 475 l 1 1027 l 172 1027 l 380 639 l 589 1027 l 760 1027 l 461 475 z "},"ŷ":{"ha":612,"x_min":1,"x_max":609,"o":"m 140 850 l 309 1019 l 477 850 l 414 787 l 310 891 l 205 786 l 140 850 m 1 715 l 163 715 l 313 286 l 448 715 l 609 715 l 370 -22 q 311 -168 334 -133 q 268 -224 287 -203 q 226 -256 248 -244 q 16 -275 155 -296 q 9 -275 9 -275 l 16 -140 q 82 -151 41 -151 q 148 -140 123 -151 q 188 -112 173 -129 q 214 -74 203 -95 q 231 -33 225 -54 q 241 43 241 9 l 1 715 z "},"Ÿ":{"ha":761,"x_min":1,"x_max":760,"o":"m 427 1122 l 427 1286 l 591 1286 l 591 1122 l 427 1122 m 170 1122 l 170 1286 l 334 1286 l 334 1122 l 170 1122 m 461 475 l 461 0 l 300 0 l 300 475 l 1 1027 l 172 1027 l 380 639 l 589 1027 l 760 1027 l 461 475 z "},"Ź":{"ha":785,"x_min":30,"x_max":755,"o":"m 653 1294 l 412 1090 l 353 1148 l 574 1377 l 653 1294 m 30 0 l 30 92 l 527 887 l 66 887 l 66 1027 l 743 1027 l 743 918 l 273 156 l 755 156 l 755 0 l 30 0 z "},"ź":{"ha":539,"x_min":1,"x_max":564,"o":"m 564 978 l 323 774 l 264 832 l 486 1061 l 564 978 m 1 0 l 1 93 l 323 593 l 38 593 l 38 715 l 524 715 l 524 634 l 205 132 l 536 132 l 536 0 l 1 0 z "},"Ż":{"ha":785,"x_min":30,"x_max":755,"o":"m 314 1122 l 314 1286 l 479 1286 l 479 1122 l 314 1122 m 30 0 l 30 92 l 527 887 l 66 887 l 66 1027 l 743 1027 l 743 918 l 273 156 l 755 156 l 755 0 l 30 0 z "},"ż":{"ha":539,"x_min":1,"x_max":536,"o":"m 191 806 l 191 970 l 357 970 l 357 806 l 191 806 m 1 0 l 1 93 l 323 593 l 38 593 l 38 715 l 524 715 l 524 634 l 205 132 l 536 132 l 536 0 l 1 0 z "},"Ž":{"ha":785,"x_min":30,"x_max":755,"o":"m 577 1290 l 409 1122 l 240 1291 l 304 1353 l 408 1249 l 513 1354 l 577 1290 m 30 0 l 30 92 l 527 887 l 66 887 l 66 1027 l 743 1027 l 743 918 l 273 156 l 755 156 l 755 0 l 30 0 z "},"ž":{"ha":539,"x_min":1,"x_max":536,"o":"m 453 974 l 285 806 l 116 975 l 180 1037 l 283 933 l 389 1038 l 453 974 m 1 0 l 1 93 l 323 593 l 38 593 l 38 715 l 524 715 l 524 634 l 205 132 l 536 132 l 536 0 l 1 0 z "},"ſ":{"ha":414,"x_min":-4,"x_max":392,"o":"m 338 1038 q 392 1027 389 1038 l 392 906 l 346 906 q 274 893 291 905 q 244 838 244 871 l 244 0 l 99 0 l 99 593 l -4 593 l -4 715 l 99 715 l 99 869 q 338 1038 99 1038 z "},"Ɔ":{"ha":802,"x_min":29,"x_max":762,"o":"m 751 642 q 762 513 762 578 q 751 385 762 448 q 721 261 741 321 q 669 151 701 201 q 595 62 637 100 q 376 -18 507 -18 q 114 148 210 -18 q 51 314 67 229 l 51 315 l 192 353 q 218 247 203 280 q 248 190 233 213 q 280 153 262 168 q 375 118 322 118 q 467 142 429 118 q 529 205 505 166 q 570 296 553 244 q 600 513 600 393 q 448 896 600 833 q 378 909 415 909 q 313 900 342 909 q 264 875 284 890 q 230 839 245 860 q 205 797 214 818 q 191 753 196 775 q 180 680 180 713 l 29 701 q 136 926 60 831 q 378 1046 232 1046 q 666 876 557 1046 q 751 642 728 780 z "},"Ɖ":{"ha":823,"x_min":6,"x_max":791,"o":"m 238 136 l 336 136 q 460 162 406 136 q 545 227 514 188 q 595 317 576 265 q 629 486 629 404 q 622 620 629 568 q 593 724 614 673 q 541 811 573 775 q 336 891 470 891 l 238 891 l 238 565 l 435 565 l 435 442 l 238 442 l 238 136 m 6 442 l 6 565 l 76 565 l 76 1027 l 318 1027 q 766 728 690 1027 q 791 526 791 631 q 777 349 791 421 q 727 211 762 276 q 639 100 692 146 q 318 0 524 0 l 76 0 l 76 442 l 6 442 z "},"Ɩ":{"ha":296,"x_min":67,"x_max":229,"o":"m 67 0 l 67 1027 l 229 1027 l 229 0 l 67 0 z "},"ǀ":{"ha":243,"x_min":43,"x_max":205,"o":"m 43 -96 l 43 1060 l 205 1060 l 205 -96 l 43 -96 z "},"ǁ":{"ha":479,"x_min":47,"x_max":446,"o":"m 283 -96 l 283 1060 l 446 1060 l 446 -96 l 283 -96 m 47 -96 l 47 1060 l 210 1060 l 210 -96 l 47 -96 z "},"ǃ":{"ha":232,"x_min":36,"x_max":203,"o":"m 36 981 l 201 981 l 176 235 l 62 235 l 36 981 m 37 0 l 37 165 l 203 165 l 203 0 l 37 0 z "},"Ǆ":{"ha":1608,"x_min":92,"x_max":1586,"o":"m 1409 1290 l 1240 1122 l 1072 1291 l 1135 1353 l 1239 1249 l 1344 1354 l 1409 1290 m 861 0 l 861 92 l 1358 887 l 898 887 l 898 1027 l 1575 1027 l 1575 918 l 1105 156 l 1586 156 l 1586 0 l 861 0 m 254 136 l 351 136 q 570 239 493 136 q 645 507 645 340 q 442 880 645 823 q 351 891 401 891 l 254 891 l 254 136 m 92 0 l 92 1027 l 334 1027 q 783 728 705 1027 q 807 527 807 633 q 792 349 807 421 q 743 211 778 276 q 654 100 707 146 q 334 0 538 0 l 92 0 z "},"ǅ":{"ha":1359,"x_min":92,"x_max":1367,"o":"m 1284 974 l 1116 806 l 947 975 l 1011 1037 l 1115 933 l 1220 1038 l 1284 974 m 833 0 l 833 93 l 1154 593 l 869 593 l 869 715 l 1355 715 l 1355 634 l 1036 132 l 1367 132 l 1367 0 l 833 0 m 254 136 l 351 136 q 570 239 493 136 q 645 507 645 340 q 442 880 645 823 q 351 891 401 891 l 254 891 l 254 136 m 92 0 l 92 1027 l 334 1027 q 783 728 705 1027 q 807 527 807 633 q 792 349 807 421 q 743 211 778 276 q 654 100 707 146 q 334 0 538 0 l 92 0 z "},"ǆ":{"ha":1198,"x_min":44,"x_max":1207,"o":"m 1124 974 l 956 806 l 787 975 l 851 1037 l 955 933 l 1060 1038 l 1124 974 m 673 0 l 673 93 l 994 593 l 709 593 l 709 715 l 1195 715 l 1195 634 l 876 132 l 1207 132 l 1207 0 l 673 0 m 486 535 q 340 605 419 605 q 221 534 257 605 q 189 347 189 471 q 234 156 189 209 q 347 111 272 111 q 477 180 425 111 q 486 193 486 193 l 486 535 m 631 97 q 650 0 631 50 l 497 0 q 493 9 495 3 l 486 54 q 336 -12 435 -12 q 87 146 165 -12 q 44 345 44 234 q 172 684 44 603 q 345 728 239 728 q 436 707 397 728 q 486 668 474 686 l 486 1027 l 631 1027 l 631 97 z "},"Ǉ":{"ha":1255,"x_min":92,"x_max":1172,"o":"m 641 197 l 736 246 q 837 132 762 167 q 893 119 867 119 q 933 123 919 119 q 958 133 947 127 q 977 149 968 138 q 990 171 985 160 q 999 197 996 181 q 1005 226 1003 213 q 1008 258 1007 239 q 1010 326 1010 286 l 1010 1027 l 1172 1027 l 1172 286 q 987 -7 1172 39 q 900 -18 946 -18 q 815 -6 853 -18 q 753 22 778 5 q 707 63 728 39 q 675 107 686 88 q 656 150 665 125 q 641 197 646 176 m 92 0 l 92 1027 l 254 1027 l 254 156 l 678 156 l 678 0 l 92 0 z "},"ǈ":{"ha":918,"x_min":92,"x_max":914,"o":"m 632 -112 q 730 -90 700 -112 q 760 15 760 -68 l 760 715 l 905 715 l 905 -5 q 867 -166 905 -120 q 841 -195 853 -184 q 808 -214 829 -206 q 771 -226 786 -222 q 728 -232 756 -230 q 637 -235 692 -235 l 632 -112 m 750 778 l 750 943 l 914 943 l 914 778 l 750 778 m 92 0 l 92 1027 l 254 1027 l 254 156 l 678 156 l 678 0 l 92 0 z "},"ǉ":{"ha":519,"x_min":92,"x_max":515,"o":"m 233 -112 q 331 -90 301 -112 q 361 15 361 -68 l 361 715 l 506 715 l 506 -5 q 469 -166 506 -120 q 443 -195 454 -184 q 409 -214 431 -206 q 372 -226 387 -222 q 330 -232 357 -230 q 239 -235 294 -235 l 233 -112 m 351 778 l 351 943 l 515 943 l 515 778 l 351 778 m 92 -2 l 92 1027 l 237 1027 l 237 -2 l 92 -2 z "},"Ǌ":{"ha":1471,"x_min":86,"x_max":1389,"o":"m 858 197 l 954 246 q 1054 132 979 167 q 1110 119 1084 119 q 1150 123 1136 119 q 1175 133 1164 127 q 1194 149 1185 138 q 1207 171 1202 160 q 1216 197 1213 181 q 1222 226 1220 213 q 1225 258 1224 239 q 1227 326 1227 286 l 1227 1027 l 1389 1027 l 1389 286 q 1204 -7 1389 39 q 1117 -18 1163 -18 q 1033 -6 1070 -18 q 970 22 995 5 q 924 63 945 39 q 892 107 903 88 q 873 150 882 125 q 858 197 863 176 m 630 397 l 630 1027 l 791 1027 l 791 0 l 663 0 l 248 788 l 248 0 l 86 0 l 86 1027 l 295 1027 l 630 397 z "},"ǋ":{"ha":1102,"x_min":86,"x_max":1098,"o":"m 816 -112 q 913 -90 884 -112 q 943 15 943 -68 l 943 715 l 1088 715 l 1088 -5 q 1051 -166 1088 -120 q 1025 -195 1037 -184 q 991 -214 1013 -206 q 955 -226 970 -222 q 912 -232 940 -230 q 821 -235 876 -235 l 816 -112 m 934 778 l 934 943 l 1098 943 l 1098 778 l 934 778 m 630 397 l 630 1027 l 791 1027 l 791 0 l 663 0 l 248 788 l 248 0 l 86 0 l 86 1027 l 295 1027 l 630 397 z "},"ǌ":{"ha":911,"x_min":82,"x_max":907,"o":"m 625 -112 q 722 -90 692 -112 q 752 15 752 -68 l 752 715 l 897 715 l 897 -5 q 860 -166 897 -120 q 834 -195 846 -184 q 800 -214 822 -206 q 764 -226 779 -222 q 721 -232 749 -230 q 630 -235 685 -235 l 625 -112 m 743 778 l 743 943 l 907 943 l 907 778 l 743 778 m 612 536 l 612 0 l 467 0 l 467 498 q 438 576 467 547 q 368 605 408 605 q 287 581 327 605 q 227 533 247 557 l 227 0 l 82 0 l 82 715 l 227 715 l 227 640 q 310 703 267 679 q 410 728 353 728 q 555 680 498 728 q 612 536 612 632 z "},"Ǎ":{"ha":766,"x_min":1,"x_max":765,"o":"m 555 1290 l 387 1122 l 218 1291 l 282 1353 l 386 1249 l 491 1354 l 555 1290 m 293 434 l 485 434 l 389 766 l 293 434 m 1 0 l 294 1027 l 472 1027 l 765 0 l 608 0 l 524 298 l 254 298 l 170 0 l 1 0 z "},"ǎ":{"ha":637,"x_min":47,"x_max":598,"o":"m 456 974 l 288 806 l 119 975 l 182 1037 l 286 933 l 391 1038 l 456 974 m 193 184 q 212 126 193 144 q 261 109 232 109 q 305 112 290 109 q 334 122 319 115 l 359 135 q 383 152 370 141 l 403 168 q 420 183 408 172 l 433 195 l 433 362 q 234 286 281 327 q 193 184 193 250 m 453 0 q 433 63 433 12 l 420 48 q 253 -14 361 -14 q 73 79 121 -14 q 47 185 47 125 q 69 293 47 245 q 138 376 90 340 q 433 482 226 441 q 430 541 433 530 q 423 562 427 552 q 414 576 419 571 q 400 587 408 581 q 381 596 392 593 q 322 603 355 603 q 262 593 290 603 q 217 571 234 583 q 187 543 201 559 q 162 505 170 521 l 67 563 q 119 645 97 625 q 161 681 140 666 q 206 705 182 696 q 322 726 263 726 q 416 719 381 726 q 483 696 451 713 q 534 652 514 680 q 578 475 578 591 l 578 101 q 585 47 578 82 q 598 0 592 13 l 453 0 z "},"Ǐ":{"ha":296,"x_min":-16,"x_max":321,"o":"m 321 1290 l 153 1122 l -16 1291 l 47 1353 l 151 1249 l 256 1354 l 321 1290 m 67 0 l 67 1027 l 229 1027 l 229 0 l 67 0 z "},"ǐ":{"ha":357,"x_min":-26,"x_max":311,"o":"m 311 974 l 142 806 l -26 975 l 37 1037 l 141 933 l 246 1038 l 311 974 m 65 0 l 65 715 l 210 715 l 210 0 l 65 0 z "},"Ǒ":{"ha":864,"x_min":43,"x_max":821,"o":"m 611 1290 l 443 1122 l 274 1291 l 338 1353 l 441 1249 l 547 1354 l 611 1290 m 217 657 q 214 637 217 657 q 208 582 210 617 q 205 510 205 547 q 208 437 205 473 q 217 361 210 401 q 235 287 224 321 q 265 221 246 253 q 307 168 283 190 q 438 119 359 119 q 659 511 659 119 q 509 896 659 830 q 437 910 477 910 q 364 896 397 910 q 307 858 330 882 q 265 802 283 835 q 235 733 246 768 q 217 657 224 698 m 50 408 q 43 510 43 459 q 49 612 43 561 q 69 717 55 664 q 104 818 83 770 q 158 908 125 865 q 230 981 190 950 q 439 1046 316 1046 q 711 907 609 1046 q 821 510 821 755 q 715 117 821 260 q 439 -18 616 -18 q 165 117 272 -18 q 50 408 74 231 z "},"ǒ":{"ha":666,"x_min":40,"x_max":626,"o":"m 506 974 l 338 806 l 169 975 l 233 1037 l 336 933 l 441 1038 l 506 974 m 189 440 q 185 363 185 404 q 189 288 185 321 q 204 222 193 255 q 231 164 214 189 q 334 110 267 110 q 481 357 481 110 q 437 559 481 503 q 334 605 402 605 q 189 440 208 605 m 40 358 q 118 628 40 528 q 334 728 197 728 q 491 682 425 728 q 626 357 626 587 q 447 5 626 71 q 334 -13 397 -13 q 220 5 271 -13 q 137 56 170 24 q 81 136 104 89 q 40 358 40 224 z "},"Ǔ":{"ha":837,"x_min":83,"x_max":759,"o":"m 593 1290 l 425 1122 l 256 1291 l 320 1353 l 424 1249 l 529 1354 l 593 1290 m 83 304 l 83 1027 l 245 1027 l 245 342 q 356 130 245 171 q 420 119 385 119 q 484 128 455 119 q 530 152 512 138 q 560 188 547 166 q 579 229 573 210 q 589 272 585 247 q 593 342 593 304 l 593 1027 l 759 1027 l 759 304 q 656 58 759 149 q 420 -18 572 -18 q 115 157 191 -18 q 83 304 83 229 z "},"ǔ":{"ha":677,"x_min":80,"x_max":610,"o":"m 518 974 l 350 806 l 181 975 l 245 1037 l 349 933 l 454 1038 l 518 974 m 80 179 l 80 715 l 225 715 l 225 217 q 255 139 225 168 q 325 111 284 111 q 405 135 365 111 q 465 182 446 159 l 465 715 l 610 715 l 610 0 l 465 0 l 465 76 q 282 -12 377 -12 q 140 33 197 -12 q 80 179 80 81 z "},"Ǖ":{"ha":837,"x_min":83,"x_max":759,"o":"m 221 1377 l 221 1478 l 634 1478 l 634 1377 l 221 1377 m 469 1129 l 469 1294 l 633 1294 l 633 1129 l 469 1129 m 211 1129 l 211 1294 l 375 1294 l 375 1129 l 211 1129 m 83 304 l 83 1027 l 245 1027 l 245 342 q 356 130 245 171 q 420 119 385 119 q 484 128 455 119 q 530 152 512 138 q 560 188 547 166 q 579 229 573 210 q 589 272 585 247 q 593 342 593 304 l 593 1027 l 759 1027 l 759 304 q 656 58 759 149 q 420 -18 572 -18 q 115 157 191 -18 q 83 304 83 229 z "},"ǖ":{"ha":677,"x_min":80,"x_max":610,"o":"m 145 1058 l 145 1159 l 558 1159 l 558 1058 l 145 1058 m 393 810 l 393 975 l 557 975 l 557 810 l 393 810 m 136 810 l 136 975 l 300 975 l 300 810 l 136 810 m 80 179 l 80 715 l 225 715 l 225 217 q 255 139 225 168 q 325 111 284 111 q 405 135 365 111 q 465 182 446 159 l 465 715 l 610 715 l 610 0 l 465 0 l 465 76 q 282 -12 377 -12 q 140 33 197 -12 q 80 179 80 81 z "},"Ǘ":{"ha":837,"x_min":83,"x_max":759,"o":"m 469 1129 l 469 1294 l 633 1294 l 633 1129 l 469 1129 m 211 1129 l 211 1294 l 375 1294 l 375 1129 l 211 1129 m 83 304 l 83 1027 l 245 1027 l 245 342 q 356 130 245 171 q 420 119 385 119 q 484 128 455 119 q 530 152 512 138 q 560 188 547 166 q 579 229 573 210 q 589 272 585 247 q 593 342 593 304 l 593 1027 l 759 1027 l 759 304 q 656 58 759 149 q 420 -18 572 -18 q 115 157 191 -18 q 83 304 83 229 z "},"ǘ":{"ha":677,"x_min":80,"x_max":610,"o":"m 393 810 l 393 975 l 557 975 l 557 810 l 393 810 m 136 810 l 136 975 l 300 975 l 300 810 l 136 810 m 80 179 l 80 715 l 225 715 l 225 217 q 255 139 225 168 q 325 111 284 111 q 405 135 365 111 q 465 182 446 159 l 465 715 l 610 715 l 610 0 l 465 0 l 465 76 q 282 -12 377 -12 q 140 33 197 -12 q 80 179 80 81 z "},"Ǚ":{"ha":837,"x_min":83,"x_max":759,"o":"m 594 1545 l 426 1377 l 257 1546 l 321 1608 l 425 1504 l 530 1609 l 594 1545 m 469 1129 l 469 1294 l 633 1294 l 633 1129 l 469 1129 m 211 1129 l 211 1294 l 375 1294 l 375 1129 l 211 1129 m 83 304 l 83 1027 l 245 1027 l 245 342 q 356 130 245 171 q 420 119 385 119 q 484 128 455 119 q 530 152 512 138 q 560 188 547 166 q 579 229 573 210 q 589 272 585 247 q 593 342 593 304 l 593 1027 l 759 1027 l 759 304 q 656 58 759 149 q 420 -18 572 -18 q 115 157 191 -18 q 83 304 83 229 z "},"ǚ":{"ha":677,"x_min":80,"x_max":610,"o":"m 518 1226 l 350 1058 l 181 1227 l 245 1289 l 349 1185 l 454 1291 l 518 1226 m 393 810 l 393 975 l 557 975 l 557 810 l 393 810 m 136 810 l 136 975 l 300 975 l 300 810 l 136 810 m 80 179 l 80 715 l 225 715 l 225 217 q 255 139 225 168 q 325 111 284 111 q 405 135 365 111 q 465 182 446 159 l 465 715 l 610 715 l 610 0 l 465 0 l 465 76 q 282 -12 377 -12 q 140 33 197 -12 q 80 179 80 81 z "},"Ǜ":{"ha":837,"x_min":83,"x_max":759,"o":"m 469 1129 l 469 1294 l 633 1294 l 633 1129 l 469 1129 m 211 1129 l 211 1294 l 375 1294 l 375 1129 l 211 1129 m 83 304 l 83 1027 l 245 1027 l 245 342 q 356 130 245 171 q 420 119 385 119 q 484 128 455 119 q 530 152 512 138 q 560 188 547 166 q 579 229 573 210 q 589 272 585 247 q 593 342 593 304 l 593 1027 l 759 1027 l 759 304 q 656 58 759 149 q 420 -18 572 -18 q 115 157 191 -18 q 83 304 83 229 z "},"ǜ":{"ha":677,"x_min":80,"x_max":610,"o":"m 393 810 l 393 975 l 557 975 l 557 810 l 393 810 m 136 810 l 136 975 l 300 975 l 300 810 l 136 810 m 80 179 l 80 715 l 225 715 l 225 217 q 255 139 225 168 q 325 111 284 111 q 405 135 365 111 q 465 182 446 159 l 465 715 l 610 715 l 610 0 l 465 0 l 465 76 q 282 -12 377 -12 q 140 33 197 -12 q 80 179 80 81 z "},"ǝ":{"ha":635,"x_min":26,"x_max":583,"o":"z "},"Ǟ":{"ha":766,"x_min":1,"x_max":765,"o":"m 183 1377 l 183 1478 l 596 1478 l 596 1377 l 183 1377 m 431 1129 l 431 1294 l 595 1294 l 595 1129 l 431 1129 m 173 1129 l 173 1294 l 337 1294 l 337 1129 l 173 1129 m 293 434 l 485 434 l 389 766 l 293 434 m 1 0 l 294 1027 l 472 1027 l 765 0 l 608 0 l 524 298 l 254 298 l 170 0 l 1 0 z "},"ǟ":{"ha":637,"x_min":47,"x_max":598,"o":"m 125 1053 l 125 1154 l 538 1154 l 538 1053 l 125 1053 m 373 806 l 373 970 l 537 970 l 537 806 l 373 806 m 115 806 l 115 970 l 279 970 l 279 806 l 115 806 m 193 184 q 212 126 193 144 q 261 109 232 109 q 305 112 290 109 q 334 122 319 115 l 359 135 q 383 152 370 141 l 403 168 q 420 183 408 172 l 433 195 l 433 362 q 234 286 281 327 q 193 184 193 250 m 453 0 q 433 63 433 12 l 420 48 q 253 -14 361 -14 q 73 79 121 -14 q 47 185 47 125 q 69 293 47 245 q 138 376 90 340 q 433 482 226 441 q 430 541 433 530 q 423 562 427 552 q 414 576 419 571 q 400 587 408 581 q 381 596 392 593 q 322 603 355 603 q 262 593 290 603 q 217 571 234 583 q 187 543 201 559 q 162 505 170 521 l 67 563 q 119 645 97 625 q 161 681 140 666 q 206 705 182 696 q 322 726 263 726 q 416 719 381 726 q 483 696 451 713 q 534 652 514 680 q 578 475 578 591 l 578 101 q 585 47 578 82 q 598 0 592 13 l 453 0 z "},"Ǡ":{"ha":766,"x_min":1,"x_max":765,"o":"m 184 1369 l 184 1470 l 597 1470 l 597 1369 l 184 1369 z "},"ǡ":{"ha":637,"x_min":47,"x_max":598,"o":"m 85 1053 l 85 1154 l 498 1154 l 498 1053 l 85 1053 z "},"Ǣ":{"ha":1181,"x_min":1,"x_max":1080,"o":"m 489 1103 l 489 1204 l 902 1204 l 902 1103 l 489 1103 m 466 434 l 466 891 l 427 891 l 296 434 l 466 434 m 466 298 l 258 298 l 173 0 l 1 0 l 294 1027 l 1054 1027 l 1054 891 l 628 891 l 628 607 l 924 607 l 924 470 l 628 470 l 628 146 l 1080 146 l 1080 0 l 466 0 l 466 298 z "},"ǣ":{"ha":1044,"x_min":39,"x_max":983,"o":"m 358 787 l 358 888 l 771 888 l 771 787 l 358 787 m 577 444 l 828 444 q 810 534 828 496 q 712 605 774 605 q 594 526 629 605 q 577 444 577 487 m 327 726 q 522 656 466 726 q 713 728 593 728 q 917 616 847 728 q 979 319 983 511 l 570 319 q 643 135 570 182 q 721 111 680 111 q 789 121 762 111 q 833 144 817 131 q 863 174 849 157 q 888 214 880 196 l 980 155 q 873 29 932 68 q 727 -12 810 -12 q 473 121 549 -12 q 467 112 473 121 q 457 97 462 103 l 443 79 q 424 57 434 66 l 400 37 q 244 -14 339 -14 q 63 79 113 -14 q 39 186 39 125 q 59 295 39 248 q 128 379 80 343 q 424 482 215 443 q 421 541 424 530 q 414 562 418 552 q 405 576 410 571 q 391 587 399 581 q 372 596 383 593 q 314 603 346 603 q 253 593 281 603 q 209 571 225 583 q 178 543 192 559 q 153 505 160 521 l 58 563 q 110 645 88 625 q 152 681 131 666 q 197 705 174 696 q 327 726 254 726 m 184 195 q 267 109 184 109 q 318 119 297 109 q 350 135 339 130 q 374 152 361 141 l 394 168 q 412 183 399 172 l 424 195 l 424 362 q 225 286 272 327 q 184 195 184 250 z "},"Ǧ":{"ha":856,"x_min":42,"x_max":775,"o":"m 608 1290 l 439 1122 l 271 1291 l 334 1353 l 438 1249 l 543 1354 l 608 1290 m 630 702 q 446 910 586 910 q 237 741 297 910 q 204 520 204 647 q 334 140 204 215 q 414 119 372 119 q 487 127 457 119 q 536 149 516 136 q 571 183 556 162 q 594 225 586 204 q 607 275 602 246 q 616 382 614 319 l 418 382 l 418 519 l 775 519 l 775 0 l 644 0 l 644 81 q 549 6 600 28 q 420 -18 493 -18 q 288 12 348 -18 q 183 93 227 41 q 106 213 139 144 q 42 522 42 349 q 104 817 42 686 q 293 1017 172 962 q 419 1046 359 1046 q 516 1038 480 1046 q 590 1007 553 1029 q 659 950 628 985 q 768 727 726 873 l 630 702 z "},"ǧ":{"ha":684,"x_min":14,"x_max":673,"o":"m 495 975 l 327 807 l 158 976 l 222 1038 l 326 935 l 431 1040 l 495 975 m 532 277 q 514 259 532 277 q 443 221 496 241 q 336 201 390 201 q 247 214 281 201 q 224 197 241 208 q 193 152 193 176 q 295 108 193 120 q 319 105 314 105 q 343 104 323 104 q 374 103 363 104 q 409 100 385 103 q 454 93 433 98 q 604 37 571 66 q 671 -110 671 -24 q 338 -307 671 -307 q 109 -260 199 -307 q 14 -111 14 -212 q 144 28 14 -21 q 75 64 103 34 q 47 136 47 94 q 152 268 47 222 q 87 348 117 286 q 57 479 57 410 q 96 607 57 549 q 201 696 135 665 q 350 728 268 728 q 428 713 388 728 q 486 684 469 699 q 610 728 544 726 q 642 729 620 729 q 673 730 663 730 l 673 608 l 670 608 q 582 603 604 614 q 575 596 575 600 q 583 572 576 593 q 595 539 591 551 q 606 456 606 501 q 587 362 606 411 q 532 277 568 313 m 341 605 q 310 605 341 605 q 240 570 279 605 q 202 468 202 534 q 237 362 202 401 q 340 324 272 324 q 454 419 428 324 q 461 467 461 443 q 454 514 461 491 q 434 558 448 537 q 341 605 404 605 m 183 -53 q 177 -61 183 -53 q 164 -83 170 -68 q 158 -113 158 -97 q 164 -140 158 -129 q 179 -158 170 -151 q 203 -171 188 -165 q 231 -179 218 -176 q 264 -182 244 -181 q 322 -184 291 -184 q 367 -184 353 -184 q 404 -182 380 -184 q 441 -178 427 -181 q 474 -170 456 -175 q 501 -156 492 -164 q 526 -109 526 -137 q 503 -63 526 -81 q 444 -36 479 -45 q 374 -23 409 -28 q 307 -16 338 -18 q 267 -9 275 -13 q 183 -53 196 -38 z "},"Ǩ":{"ha":781,"x_min":83,"x_max":779,"o":"m 585 1290 l 417 1122 l 248 1291 l 312 1353 l 416 1249 l 521 1354 l 585 1290 m 83 0 l 83 1027 l 247 1027 l 247 570 l 589 1027 l 760 1027 l 456 627 l 779 0 l 601 0 l 352 490 l 247 352 l 247 0 l 83 0 z "},"ǩ":{"ha":627,"x_min":84,"x_max":624,"o":"m 508 1278 l 340 1110 l 171 1279 l 235 1341 l 338 1238 l 444 1343 l 508 1278 m 84 0 l 84 1027 l 229 1027 l 229 449 l 435 715 l 612 715 l 404 451 l 624 0 l 460 0 l 304 323 l 229 229 l 229 0 l 84 0 z "},"Ǫ":{"ha":864,"x_min":43,"x_max":821,"o":"m 458 -105 q 543 -136 458 -136 l 543 -239 q 442 -234 471 -243 q 398 -218 413 -225 q 374 -202 383 -212 q 359 -96 337 -168 q 405 -16 372 -53 q 165 117 261 -3 q 50 408 74 231 q 43 510 43 459 q 49 612 43 561 q 69 717 55 664 q 104 818 83 770 q 158 908 125 865 q 230 981 190 950 q 439 1046 316 1046 q 711 907 609 1046 q 821 510 821 755 q 715 117 821 260 q 488 -15 630 2 q 458 -105 458 -57 m 217 657 q 214 637 217 657 q 208 582 210 617 q 205 510 205 547 q 208 437 205 473 q 217 361 210 401 q 235 287 224 321 q 265 221 246 253 q 307 168 283 190 q 438 119 359 119 q 659 511 659 119 q 509 896 659 830 q 437 910 477 910 q 364 896 397 910 q 307 858 330 882 q 265 802 283 835 q 235 733 246 768 q 217 657 224 698 z "},"ǫ":{"ha":666,"x_min":40,"x_max":626,"o":"m 355 -102 q 439 -134 355 -134 l 439 -237 q 338 -231 368 -240 q 294 -216 309 -222 q 269 -199 279 -209 q 255 -94 233 -165 q 302 -12 269 -49 q 220 5 258 -8 q 137 56 170 24 q 81 136 104 89 q 40 358 40 224 q 118 628 40 528 q 334 728 197 728 q 491 682 425 728 q 626 357 626 587 q 447 5 626 71 q 387 -9 418 -5 q 355 -102 355 -53 m 189 440 q 185 363 185 404 q 189 288 185 321 q 204 222 193 255 q 231 164 214 189 q 334 110 267 110 q 481 357 481 110 q 437 559 481 503 q 334 605 402 605 q 189 440 208 605 z "},"Ǭ":{"ha":864,"x_min":43,"x_max":821,"o":"m 267 1103 l 267 1204 l 680 1204 l 680 1103 l 267 1103 m 458 -105 q 543 -136 458 -136 l 543 -239 q 442 -234 471 -243 q 398 -218 413 -225 q 374 -202 383 -212 q 359 -96 337 -168 q 405 -16 372 -53 q 165 117 261 -3 q 50 408 74 231 q 43 510 43 459 q 49 612 43 561 q 69 717 55 664 q 104 818 83 770 q 158 908 125 865 q 230 981 190 950 q 439 1046 316 1046 q 711 907 609 1046 q 821 510 821 755 q 715 117 821 260 q 488 -15 630 2 q 458 -105 458 -57 m 217 657 q 214 637 217 657 q 208 582 210 617 q 205 510 205 547 q 208 437 205 473 q 217 361 210 401 q 235 287 224 321 q 265 221 246 253 q 307 168 283 190 q 438 119 359 119 q 659 511 659 119 q 509 896 659 830 q 437 910 477 910 q 364 896 397 910 q 307 858 330 882 q 265 802 283 835 q 235 733 246 768 q 217 657 224 698 z "},"ǭ":{"ha":666,"x_min":40,"x_max":626,"o":"m 161 787 l 161 888 l 574 888 l 574 787 l 161 787 m 355 -102 q 439 -134 355 -134 l 439 -237 q 338 -231 368 -240 q 294 -216 309 -222 q 269 -199 279 -209 q 255 -94 233 -165 q 302 -12 269 -49 q 220 5 258 -8 q 137 56 170 24 q 81 136 104 89 q 40 358 40 224 q 118 628 40 528 q 334 728 197 728 q 491 682 425 728 q 626 357 626 587 q 447 5 626 71 q 387 -9 418 -5 q 355 -102 355 -53 m 189 440 q 185 363 185 404 q 189 288 185 321 q 204 222 193 255 q 231 164 214 189 q 334 110 267 110 q 481 357 481 110 q 437 559 481 503 q 334 605 402 605 q 189 440 208 605 z "},"Ǳ":{"ha":1608,"x_min":92,"x_max":1586,"o":"m 861 0 l 861 92 l 1358 887 l 898 887 l 898 1027 l 1575 1027 l 1575 918 l 1105 156 l 1586 156 l 1586 0 l 861 0 m 254 136 l 351 136 q 570 239 493 136 q 645 507 645 340 q 442 880 645 823 q 351 891 401 891 l 254 891 l 254 136 m 92 0 l 92 1027 l 334 1027 q 783 728 705 1027 q 807 527 807 633 q 792 349 807 421 q 743 211 778 276 q 654 100 707 146 q 334 0 538 0 l 92 0 z "},"ǲ":{"ha":1359,"x_min":92,"x_max":1367,"o":"m 833 0 l 833 93 l 1154 593 l 869 593 l 869 715 l 1355 715 l 1355 634 l 1036 132 l 1367 132 l 1367 0 l 833 0 m 254 136 l 351 136 q 570 239 493 136 q 645 507 645 340 q 442 880 645 823 q 351 891 401 891 l 254 891 l 254 136 m 92 0 l 92 1027 l 334 1027 q 783 728 705 1027 q 807 527 807 633 q 792 349 807 421 q 743 211 778 276 q 654 100 707 146 q 334 0 538 0 l 92 0 z "},"ǳ":{"ha":1198,"x_min":44,"x_max":1207,"o":"m 673 0 l 673 93 l 994 593 l 709 593 l 709 715 l 1195 715 l 1195 634 l 876 132 l 1207 132 l 1207 0 l 673 0 m 486 535 q 340 605 419 605 q 221 534 257 605 q 189 347 189 471 q 234 156 189 209 q 347 111 272 111 q 477 180 425 111 q 486 193 486 193 l 486 535 m 631 97 q 650 0 631 50 l 497 0 q 493 9 495 3 l 486 54 q 336 -12 435 -12 q 87 146 165 -12 q 44 345 44 234 q 172 684 44 603 q 345 728 239 728 q 436 707 397 728 q 486 668 474 686 l 486 1027 l 631 1027 l 631 97 z "},"Ǵ":{"ha":856,"x_min":42,"x_max":775,"o":"m 684 1326 l 442 1122 l 383 1180 l 605 1409 l 684 1326 m 630 702 q 446 910 586 910 q 237 741 297 910 q 204 520 204 647 q 334 140 204 215 q 414 119 372 119 q 487 127 457 119 q 536 149 516 136 q 571 183 556 162 q 594 225 586 204 q 607 275 602 246 q 616 382 614 319 l 418 382 l 418 519 l 775 519 l 775 0 l 644 0 l 644 81 q 549 6 600 28 q 420 -18 493 -18 q 288 12 348 -18 q 183 93 227 41 q 106 213 139 144 q 42 522 42 349 q 104 817 42 686 q 293 1017 172 962 q 419 1046 359 1046 q 516 1038 480 1046 q 590 1007 553 1029 q 659 950 628 985 q 768 727 726 873 l 630 702 z "},"ǵ":{"ha":684,"x_min":14,"x_max":673,"o":"m 585 1011 l 344 807 l 285 865 l 507 1095 l 585 1011 m 532 277 q 514 259 532 277 q 443 221 496 241 q 336 201 390 201 q 247 214 281 201 q 224 197 241 208 q 193 152 193 176 q 295 108 193 120 q 319 105 314 105 q 343 104 323 104 q 374 103 363 104 q 409 100 385 103 q 454 93 433 98 q 604 37 571 66 q 671 -110 671 -24 q 338 -307 671 -307 q 109 -260 199 -307 q 14 -111 14 -212 q 144 28 14 -21 q 75 64 103 34 q 47 136 47 94 q 152 268 47 222 q 87 348 117 286 q 57 479 57 410 q 96 607 57 549 q 201 696 135 665 q 350 728 268 728 q 428 713 388 728 q 486 684 469 699 q 610 728 544 726 q 642 729 620 729 q 673 730 663 730 l 673 608 l 670 608 q 582 603 604 614 q 575 596 575 600 q 583 572 576 593 q 595 539 591 551 q 606 456 606 501 q 587 362 606 411 q 532 277 568 313 m 341 605 q 310 605 341 605 q 240 570 279 605 q 202 468 202 534 q 237 362 202 401 q 340 324 272 324 q 454 419 428 324 q 461 467 461 443 q 454 514 461 491 q 434 558 448 537 q 341 605 404 605 m 183 -53 q 177 -61 183 -53 q 164 -83 170 -68 q 158 -113 158 -97 q 164 -140 158 -129 q 179 -158 170 -151 q 203 -171 188 -165 q 231 -179 218 -176 q 264 -182 244 -181 q 322 -184 291 -184 q 367 -184 353 -184 q 404 -182 380 -184 q 441 -178 427 -181 q 474 -170 456 -175 q 501 -156 492 -164 q 526 -109 526 -137 q 503 -63 526 -81 q 444 -36 479 -45 q 374 -23 409 -28 q 307 -16 338 -18 q 267 -9 275 -13 q 183 -53 196 -38 z "},"Ǹ":{"ha":863,"x_min":78,"x_max":783,"o":"m 199 1325 l 278 1409 l 500 1179 l 441 1121 l 199 1325 m 622 397 l 622 1027 l 783 1027 l 783 0 l 654 0 l 239 788 l 239 0 l 78 0 l 78 1027 l 287 1027 l 622 397 z "},"ǹ":{"ha":670,"x_min":75,"x_max":605,"o":"m 108 1009 l 186 1093 l 408 863 l 349 805 l 108 1009 m 605 536 l 605 0 l 460 0 l 460 498 q 430 576 460 547 q 360 605 401 605 q 279 581 319 605 q 220 533 239 557 l 220 0 l 75 0 l 75 715 l 220 715 l 220 640 q 302 703 259 679 q 403 728 345 728 q 548 680 491 728 q 605 536 605 632 z "},"Ǻ":{"ha":766,"x_min":1,"x_max":765,"o":"m 578 1662 l 337 1458 l 278 1516 l 500 1746 l 578 1662 m 226 1046 q 169 1184 169 1104 q 225 1321 168 1264 q 363 1379 283 1379 q 500 1321 444 1379 q 557 1184 557 1264 q 500 1046 557 1104 q 473 1023 488 1034 l 765 0 l 608 0 l 524 298 l 254 298 l 170 0 l 1 0 l 288 1004 q 226 1046 254 1019 m 297 1250 q 283 1236 297 1250 q 270 1184 270 1223 q 297 1118 270 1145 q 363 1091 324 1091 q 429 1118 401 1091 q 456 1184 456 1145 q 429 1250 456 1223 q 363 1277 401 1277 q 297 1250 324 1277 m 293 434 l 485 434 l 389 766 l 293 434 z "},"ǻ":{"ha":637,"x_min":47,"x_max":598,"o":"m 530 1440 l 289 1236 l 230 1295 l 452 1524 l 530 1440 m 282 1023 q 269 1010 282 1023 q 255 958 255 996 q 282 892 255 919 q 348 865 309 865 q 414 892 387 865 q 441 958 441 919 q 414 1023 441 996 q 348 1050 387 1050 q 282 1023 309 1050 m 211 820 q 182 848 211 820 q 153 958 153 877 q 211 1095 153 1038 q 348 1152 268 1152 q 486 1095 429 1152 q 543 958 543 1038 q 486 820 543 877 q 348 763 429 763 q 211 820 268 763 m 193 184 q 212 126 193 144 q 261 109 232 109 q 305 112 290 109 q 334 122 319 115 l 359 135 q 383 152 370 141 l 403 168 q 420 183 408 172 l 433 195 l 433 362 q 234 286 281 327 q 193 184 193 250 m 453 0 q 433 63 433 12 l 420 48 q 253 -14 361 -14 q 73 79 121 -14 q 47 185 47 125 q 69 293 47 245 q 138 376 90 340 q 433 482 226 441 q 430 541 433 530 q 423 562 427 552 q 414 576 419 571 q 400 587 408 581 q 381 596 392 593 q 322 603 355 603 q 262 593 290 603 q 217 571 234 583 q 187 543 201 559 q 162 505 170 521 l 67 563 q 119 645 97 625 q 161 681 140 666 q 206 705 182 696 q 322 726 263 726 q 416 719 381 726 q 483 696 451 713 q 534 652 514 680 q 578 475 578 591 l 578 101 q 585 47 578 82 q 598 0 592 13 l 453 0 z "},"Ǽ":{"ha":1181,"x_min":1,"x_max":1080,"o":"m 910 1326 l 669 1122 l 610 1180 l 831 1409 l 910 1326 m 466 434 l 466 891 l 427 891 l 296 434 l 466 434 m 466 298 l 258 298 l 173 0 l 1 0 l 294 1027 l 1054 1027 l 1054 891 l 628 891 l 628 607 l 924 607 l 924 470 l 628 470 l 628 146 l 1080 146 l 1080 0 l 466 0 l 466 298 z "},"ǽ":{"ha":1044,"x_min":39,"x_max":983,"o":"m 779 1010 l 538 806 l 479 864 l 701 1093 l 779 1010 m 577 444 l 828 444 q 810 534 828 496 q 712 605 774 605 q 594 526 629 605 q 577 444 577 487 m 327 726 q 522 656 466 726 q 713 728 593 728 q 917 616 847 728 q 979 319 983 511 l 570 319 q 643 135 570 182 q 721 111 680 111 q 789 121 762 111 q 833 144 817 131 q 863 174 849 157 q 888 214 880 196 l 980 155 q 873 29 932 68 q 727 -12 810 -12 q 473 121 549 -12 q 467 112 473 121 q 457 97 462 103 l 443 79 q 424 57 434 66 l 400 37 q 244 -14 339 -14 q 63 79 113 -14 q 39 186 39 125 q 59 295 39 248 q 128 379 80 343 q 424 482 215 443 q 421 541 424 530 q 414 562 418 552 q 405 576 410 571 q 391 587 399 581 q 372 596 383 593 q 314 603 346 603 q 253 593 281 603 q 209 571 225 583 q 178 543 192 559 q 153 505 160 521 l 58 563 q 110 645 88 625 q 152 681 131 666 q 197 705 174 696 q 327 726 254 726 m 184 195 q 267 109 184 109 q 318 119 297 109 q 350 135 339 130 q 374 152 361 141 l 394 168 q 412 183 399 172 l 424 195 l 424 362 q 225 286 272 327 q 184 195 184 250 z "},"Ǿ":{"ha":855,"x_min":39,"x_max":817,"o":"m 680 1337 l 438 1133 l 379 1192 l 601 1421 l 680 1337 m 201 530 q 201 498 201 530 q 205 424 201 466 q 218 336 209 382 q 226 303 222 319 l 552 866 q 434 910 505 910 q 288 840 340 910 q 218 682 235 772 q 201 530 201 593 m 78 271 q 68 300 78 271 q 48 390 58 330 q 39 506 39 450 q 45 612 39 561 q 65 717 51 664 q 100 818 79 770 q 154 908 121 865 q 226 981 186 950 q 435 1046 312 1046 q 625 991 547 1046 l 674 1077 l 800 1004 l 726 876 q 808 628 787 775 q 817 502 817 569 q 806 365 817 435 q 768 224 795 295 q 699 100 741 153 q 589 15 657 48 q 444 -18 522 -18 q 308 5 367 -18 q 241 40 271 19 l 187 -53 l 63 21 l 138 150 l 132 159 q 78 271 98 211 m 632 715 l 311 160 q 434 119 359 119 q 576 184 527 119 q 640 337 625 250 q 654 486 654 425 q 652 582 654 547 q 644 657 650 616 q 632 715 639 688 z "},"ǿ":{"ha":728,"x_min":40,"x_max":626,"o":"m 581 1034 l 340 830 l 281 888 l 503 1118 l 581 1034 m 380 599 q 330 605 359 605 q 274 593 300 605 q 231 561 248 581 q 204 508 214 540 q 185 382 185 451 q 192 273 185 313 l 380 599 m 473 469 l 274 124 q 334 110 300 110 q 395 125 368 110 q 438 164 422 140 q 464 221 454 188 q 481 352 481 279 q 473 469 481 424 m 177 -43 l 51 29 l 96 108 q 40 364 40 200 q 118 628 40 528 q 334 728 197 728 q 443 707 393 728 l 475 765 l 602 692 l 557 615 q 626 357 626 516 q 447 5 626 71 q 330 -13 397 -13 q 208 10 262 -13 l 177 -43 z "},"Ȁ":{"ha":766,"x_min":1,"x_max":765,"o":"m 293 434 l 485 434 l 389 766 l 293 434 m 1 0 l 294 1027 l 472 1027 l 765 0 l 608 0 l 524 298 l 254 298 l 170 0 l 1 0 z "},"ȁ":{"ha":637,"x_min":47,"x_max":599,"o":"m 193 184 q 212 126 193 144 q 261 109 232 109 q 305 112 290 109 q 334 122 319 115 l 359 135 q 383 152 370 141 l 403 168 q 420 183 408 172 l 433 195 l 433 362 q 234 286 281 327 q 193 184 193 250 m 453 0 q 433 63 433 12 l 420 48 q 253 -14 361 -14 q 73 79 121 -14 q 47 185 47 125 q 69 293 47 245 q 138 376 90 340 q 433 482 226 441 q 430 541 433 530 q 423 562 427 552 q 414 576 419 571 q 400 587 408 581 q 381 596 392 593 q 322 603 355 603 q 262 593 290 603 q 217 571 234 583 q 187 543 201 559 q 162 505 170 521 l 67 563 q 119 645 97 625 q 161 681 140 666 q 206 705 182 696 q 322 726 263 726 q 416 719 381 726 q 483 696 451 713 q 534 652 514 680 q 578 475 578 591 l 578 101 q 585 47 578 82 q 598 0 592 13 l 453 0 z "},"Ȃ":{"ha":766,"x_min":1,"x_max":765,"o":"m 289 1250 q 312 1266 289 1250 q 383 1282 335 1282 q 478 1250 431 1282 q 542 1161 524 1217 l 472 1122 q 434 1173 459 1152 q 383 1194 410 1194 q 332 1173 357 1194 q 294 1122 307 1152 l 224 1161 q 289 1250 242 1217 m 293 434 l 485 434 l 389 766 l 293 434 m 1 0 l 294 1027 l 472 1027 l 765 0 l 608 0 l 524 298 l 254 298 l 170 0 l 1 0 z "},"ȃ":{"ha":637,"x_min":47,"x_max":598,"o":"m 189 933 q 212 950 189 933 q 283 966 235 966 q 378 933 332 966 q 442 845 425 901 l 372 806 q 335 857 359 836 q 283 878 310 878 q 232 857 257 878 q 195 806 208 836 l 125 845 q 189 933 142 901 m 193 184 q 212 126 193 144 q 261 109 232 109 q 305 112 290 109 q 334 122 319 115 l 359 135 q 383 152 370 141 l 403 168 q 420 183 408 172 l 433 195 l 433 362 q 234 286 281 327 q 193 184 193 250 m 453 0 q 433 63 433 12 l 420 48 q 253 -14 361 -14 q 73 79 121 -14 q 47 185 47 125 q 69 293 47 245 q 138 376 90 340 q 433 482 226 441 q 430 541 433 530 q 423 562 427 552 q 414 576 419 571 q 400 587 408 581 q 381 596 392 593 q 322 603 355 603 q 262 593 290 603 q 217 571 234 583 q 187 543 201 559 q 162 505 170 521 l 67 563 q 119 645 97 625 q 161 681 140 666 q 206 705 182 696 q 322 726 263 726 q 416 719 381 726 q 483 696 451 713 q 534 652 514 680 q 578 475 578 591 l 578 101 q 585 47 578 82 q 598 0 592 13 l 453 0 z "},"Ȅ":{"ha":732,"x_min":83,"x_max":697,"o":"m 83 0 l 83 1027 l 671 1027 l 671 891 l 245 891 l 245 607 l 542 607 l 542 470 l 245 470 l 245 146 l 697 146 l 697 0 l 83 0 z "},"ȅ":{"ha":635,"x_min":40,"x_max":647,"o":"m 192 442 l 443 442 q 425 534 443 495 q 327 605 389 605 q 261 588 290 605 q 219 545 233 572 q 192 442 192 496 m 78 139 q 68 162 78 139 q 48 234 57 185 q 40 358 40 283 q 58 504 40 433 q 103 616 75 574 q 170 684 131 658 q 328 728 237 728 q 477 677 414 728 q 591 319 597 581 l 185 319 q 258 135 185 182 q 336 111 295 111 q 404 121 377 111 q 448 144 431 131 q 477 174 464 157 q 503 214 496 197 l 595 155 q 488 30 545 67 q 349 -12 425 -12 q 220 7 273 -12 q 133 60 167 27 q 78 139 100 92 z "},"Ȇ":{"ha":732,"x_min":83,"x_max":697,"o":"m 282 1250 q 306 1266 282 1250 q 377 1282 329 1282 q 472 1250 425 1282 q 536 1161 518 1217 l 466 1122 q 428 1173 453 1152 q 377 1194 404 1194 q 326 1173 351 1194 q 288 1122 301 1152 l 218 1161 q 282 1250 236 1217 m 83 0 l 83 1027 l 671 1027 l 671 891 l 245 891 l 245 607 l 542 607 l 542 470 l 245 470 l 245 146 l 697 146 l 697 0 l 83 0 z "},"ȇ":{"ha":635,"x_min":40,"x_max":597,"o":"m 231 933 q 254 950 231 933 q 326 966 277 966 q 420 933 374 966 q 484 845 467 901 l 414 806 q 377 857 401 836 q 326 878 352 878 q 274 857 299 878 q 237 806 250 836 l 167 845 q 231 933 184 901 m 192 442 l 443 442 q 425 534 443 495 q 327 605 389 605 q 261 588 290 605 q 219 545 233 572 q 192 442 192 496 m 78 139 q 68 162 78 139 q 48 234 57 185 q 40 358 40 283 q 58 504 40 433 q 103 616 75 574 q 170 684 131 658 q 328 728 237 728 q 477 677 414 728 q 591 319 597 581 l 185 319 q 258 135 185 182 q 336 111 295 111 q 404 121 377 111 q 448 144 431 131 q 477 174 464 157 q 503 214 496 197 l 595 155 q 488 30 545 67 q 349 -12 425 -12 q 220 7 273 -12 q 133 60 167 27 q 78 139 100 92 z "},"Ȉ":{"ha":296,"x_min":-70,"x_max":470,"o":"m 67 0 l 67 1027 l 229 1027 l 229 0 l 67 0 z "},"ȉ":{"ha":357,"x_min":-115,"x_max":425,"o":"m 65 0 l 65 715 l 210 715 l 210 0 l 65 0 z "},"Ȋ":{"ha":296,"x_min":-10,"x_max":307,"o":"m 54 1250 q 77 1266 54 1250 q 149 1282 100 1282 q 243 1250 197 1282 q 307 1161 290 1217 l 237 1122 q 200 1173 224 1152 q 149 1194 175 1194 q 97 1173 122 1194 q 60 1122 73 1152 l -10 1161 q 54 1250 7 1217 m 67 0 l 67 1027 l 229 1027 l 229 0 l 67 0 z "},"ȋ":{"ha":357,"x_min":-20,"x_max":297,"o":"m 44 933 q 67 950 44 933 q 138 966 90 966 q 233 933 186 966 q 297 845 279 901 l 227 806 q 190 857 214 836 q 138 878 165 878 q 87 857 112 878 q 50 806 62 836 l -20 845 q 44 933 -3 901 m 65 0 l 65 715 l 210 715 l 210 0 l 65 0 z "},"Ȍ":{"ha":864,"x_min":43,"x_max":821,"o":"m 217 657 q 214 637 217 657 q 208 582 210 617 q 205 510 205 547 q 208 437 205 473 q 217 361 210 401 q 235 287 224 321 q 265 221 246 253 q 307 168 283 190 q 438 119 359 119 q 659 511 659 119 q 509 896 659 830 q 437 910 477 910 q 364 896 397 910 q 307 858 330 882 q 265 802 283 835 q 235 733 246 768 q 217 657 224 698 m 50 408 q 43 510 43 459 q 49 612 43 561 q 69 717 55 664 q 104 818 83 770 q 158 908 125 865 q 230 981 190 950 q 439 1046 316 1046 q 711 907 609 1046 q 821 510 821 755 q 715 117 821 260 q 439 -18 616 -18 q 165 117 272 -18 q 50 408 74 231 z "},"ȍ":{"ha":666,"x_min":40,"x_max":656,"o":"m 189 440 q 185 363 185 404 q 189 288 185 321 q 204 222 193 255 q 231 164 214 189 q 334 110 267 110 q 481 357 481 110 q 437 559 481 503 q 334 605 402 605 q 189 440 208 605 m 40 358 q 118 628 40 528 q 334 728 197 728 q 491 682 425 728 q 626 357 626 587 q 447 5 626 71 q 334 -13 397 -13 q 220 5 271 -13 q 137 56 170 24 q 81 136 104 89 q 40 358 40 224 z "},"Ȏ":{"ha":864,"x_min":43,"x_max":821,"o":"m 344 1250 q 367 1266 344 1250 q 439 1282 391 1282 q 533 1250 487 1282 q 597 1161 580 1217 l 528 1122 q 490 1173 515 1152 q 439 1194 465 1194 q 388 1173 412 1194 q 350 1122 363 1152 l 280 1161 q 344 1250 298 1217 m 217 657 q 214 637 217 657 q 208 582 210 617 q 205 510 205 547 q 208 437 205 473 q 217 361 210 401 q 235 287 224 321 q 265 221 246 253 q 307 168 283 190 q 438 119 359 119 q 659 511 659 119 q 509 896 659 830 q 437 910 477 910 q 364 896 397 910 q 307 858 330 882 q 265 802 283 835 q 235 733 246 768 q 217 657 224 698 m 50 408 q 43 510 43 459 q 49 612 43 561 q 69 717 55 664 q 104 818 83 770 q 158 908 125 865 q 230 981 190 950 q 439 1046 316 1046 q 711 907 609 1046 q 821 510 821 755 q 715 117 821 260 q 439 -18 616 -18 q 165 117 272 -18 q 50 408 74 231 z "},"ȏ":{"ha":666,"x_min":40,"x_max":626,"o":"m 239 933 q 262 950 239 933 q 334 966 286 966 q 428 933 382 966 q 492 845 475 901 l 422 806 q 385 857 410 836 q 334 878 360 878 q 282 857 307 878 q 245 806 258 836 l 175 845 q 239 933 193 901 m 189 440 q 185 363 185 404 q 189 288 185 321 q 204 222 193 255 q 231 164 214 189 q 334 110 267 110 q 481 357 481 110 q 437 559 481 503 q 334 605 402 605 q 189 440 208 605 m 40 358 q 118 628 40 528 q 334 728 197 728 q 491 682 425 728 q 626 357 626 587 q 447 5 626 71 q 334 -13 397 -13 q 220 5 271 -13 q 137 56 170 24 q 81 136 104 89 q 40 358 40 224 z "},"Ȑ":{"ha":760,"x_min":83,"x_max":748,"o":"m 245 583 l 417 583 q 536 621 488 583 q 586 748 586 663 q 359 891 586 891 l 245 891 l 245 583 m 83 0 l 83 1027 l 429 1027 q 730 857 667 1027 q 748 755 748 808 q 736 659 748 702 q 701 578 724 615 q 551 475 650 496 l 741 0 l 575 0 l 397 446 l 245 446 l 245 0 l 83 0 z "},"ȑ":{"ha":441,"x_min":18,"x_max":558,"o":"m 75 0 l 75 715 l 220 715 l 220 617 q 232 635 222 621 l 248 659 q 414 728 298 728 q 438 726 426 728 l 438 604 q 260 536 315 602 q 220 459 236 506 l 220 0 l 75 0 z "},"Ȓ":{"ha":760,"x_min":83,"x_max":748,"o":"m 261 1250 q 284 1266 261 1250 q 355 1282 307 1282 q 450 1250 404 1282 q 514 1161 496 1217 l 444 1122 q 407 1173 431 1152 q 355 1194 382 1194 q 304 1173 329 1194 q 267 1122 279 1152 l 197 1161 q 261 1250 214 1217 m 245 583 l 417 583 q 536 621 488 583 q 586 748 586 663 q 359 891 586 891 l 245 891 l 245 583 m 83 0 l 83 1027 l 429 1027 q 730 857 667 1027 q 748 755 748 808 q 736 659 748 702 q 701 578 724 615 q 551 475 650 496 l 741 0 l 575 0 l 397 446 l 245 446 l 245 0 l 83 0 z "},"ȓ":{"ha":441,"x_min":75,"x_max":438,"o":"m 161 933 q 184 950 161 933 q 256 966 208 966 q 350 933 304 966 q 414 845 397 901 l 345 806 q 307 857 332 836 q 256 878 282 878 q 204 857 229 878 q 167 806 180 836 l 97 845 q 161 933 115 901 m 75 0 l 75 715 l 220 715 l 220 617 q 232 635 222 621 l 248 659 q 414 728 298 728 q 438 726 426 728 l 438 604 q 260 536 315 602 q 220 459 236 506 l 220 0 l 75 0 z "},"Ȕ":{"ha":837,"x_min":83,"x_max":759,"o":"m 83 304 l 83 1027 l 245 1027 l 245 342 q 356 130 245 171 q 420 119 385 119 q 484 128 455 119 q 530 152 512 138 q 560 188 547 166 q 579 229 573 210 q 589 272 585 247 q 593 342 593 304 l 593 1027 l 759 1027 l 759 304 q 656 58 759 149 q 420 -18 572 -18 q 115 157 191 -18 q 83 304 83 229 z "},"ȕ":{"ha":677,"x_min":80,"x_max":673,"o":"m 80 179 l 80 715 l 225 715 l 225 217 q 255 139 225 168 q 325 111 284 111 q 405 135 365 111 q 465 182 446 159 l 465 715 l 610 715 l 610 0 l 465 0 l 465 76 q 282 -12 377 -12 q 140 33 197 -12 q 80 179 80 81 z "},"Ȗ":{"ha":837,"x_min":83,"x_max":759,"o":"m 327 1250 q 350 1266 327 1250 q 421 1282 373 1282 q 516 1250 469 1282 q 580 1161 562 1217 l 510 1122 q 472 1173 497 1152 q 421 1194 448 1194 q 370 1173 395 1194 q 332 1122 345 1152 l 262 1161 q 327 1250 280 1217 m 83 304 l 83 1027 l 245 1027 l 245 342 q 356 130 245 171 q 420 119 385 119 q 484 128 455 119 q 530 152 512 138 q 560 188 547 166 q 579 229 573 210 q 589 272 585 247 q 593 342 593 304 l 593 1027 l 759 1027 l 759 304 q 656 58 759 149 q 420 -18 572 -18 q 115 157 191 -18 q 83 304 83 229 z "},"ȗ":{"ha":677,"x_min":80,"x_max":610,"o":"m 251 933 q 274 950 251 933 q 346 966 298 966 q 440 933 394 966 q 505 845 487 901 l 435 806 q 397 857 422 836 q 346 878 372 878 q 295 857 319 878 q 257 806 270 836 l 187 845 q 251 933 205 901 m 80 179 l 80 715 l 225 715 l 225 217 q 255 139 225 168 q 325 111 284 111 q 405 135 365 111 q 465 182 446 159 l 465 715 l 610 715 l 610 0 l 465 0 l 465 76 q 282 -12 377 -12 q 140 33 197 -12 q 80 179 80 81 z "},"Ș":{"ha":706,"x_min":16,"x_max":685,"o":"m 277 -396 l 332 -227 l 281 -227 l 281 -62 l 447 -62 l 447 -195 l 344 -396 l 277 -396 m 16 263 l 146 306 q 149 296 147 306 q 156 269 151 286 q 171 232 161 252 q 197 192 180 212 q 239 156 215 172 q 370 119 292 119 q 486 157 449 119 q 523 249 523 196 q 512 335 523 302 q 474 393 501 368 q 317 466 429 433 q 63 644 119 524 q 34 793 34 707 q 85 933 34 865 q 337 1046 174 1046 q 549 968 467 1046 q 637 830 608 913 l 650 794 q 659 773 656 778 l 526 726 q 387 902 481 869 q 337 910 363 910 q 196 765 196 910 q 235 663 196 699 q 321 615 268 633 l 353 604 q 384 594 381 595 l 414 584 q 570 512 530 543 q 648 427 630 466 q 685 260 685 348 q 646 119 685 191 q 478 -6 593 24 q 382 -18 434 -18 q 284 -8 330 -18 q 205 18 238 1 q 144 55 172 34 q 97 99 116 76 q 64 146 78 123 q 41 191 50 170 q 27 228 33 212 q 19 254 22 244 q 16 263 17 263 z "},"ș":{"ha":604,"x_min":45,"x_max":558,"o":"m 238 -393 l 292 -223 l 242 -223 l 242 -58 l 408 -58 l 408 -192 l 304 -393 l 238 -393 m 45 144 l 146 205 q 190 151 170 171 q 311 103 238 103 q 395 127 370 103 q 418 195 418 150 q 385 273 418 247 q 326 303 355 295 l 262 321 q 103 406 152 353 q 54 547 54 459 q 115 673 54 623 q 302 728 180 728 q 490 653 411 728 q 532 600 524 621 l 448 533 q 353 604 401 591 q 289 612 329 612 q 221 591 250 612 q 193 532 193 571 q 233 461 193 486 q 304 428 269 439 l 366 411 q 544 273 509 370 q 558 180 558 234 q 525 81 558 126 q 436 12 491 37 q 325 -12 381 -12 q 233 -5 269 -12 q 163 18 197 1 q 45 144 97 52 z "},"Ț":{"ha":720,"x_min":1,"x_max":718,"o":"m 284 -385 l 338 -216 l 288 -216 l 288 -51 l 454 -51 l 454 -184 l 351 -385 l 284 -385 m 1 891 l 1 1027 l 718 1027 l 718 891 l 441 891 l 441 0 l 279 0 l 279 891 l 1 891 z "},"ț":{"ha":416,"x_min":12,"x_max":413,"o":"m 165 -394 l 220 -224 l 170 -224 l 170 -60 l 335 -60 l 335 -193 l 232 -394 l 165 -394 m 12 593 l 12 715 l 118 715 l 118 977 l 263 977 l 263 715 l 413 715 l 413 593 l 263 593 l 263 209 q 284 130 263 151 q 353 109 304 109 q 393 111 373 109 q 413 115 413 114 l 413 12 q 356 -9 376 -5 q 308 -14 336 -14 q 265 -14 279 -14 q 231 -9 251 -13 q 196 2 211 -5 q 166 23 182 9 q 140 56 151 37 q 118 168 118 99 l 118 593 l 12 593 z "},"Ȟ":{"ha":865,"x_min":83,"x_max":782,"o":"m 605 1290 l 437 1122 l 268 1291 l 332 1353 l 435 1249 l 541 1354 l 605 1290 m 83 0 l 83 1027 l 245 1027 l 245 608 l 620 608 l 620 1027 l 782 1027 l 782 0 l 620 0 l 620 471 l 245 471 l 245 0 l 83 0 z "},"ȟ":{"ha":676,"x_min":81,"x_max":611,"o":"m 518 1278 l 350 1110 l 181 1279 l 245 1341 l 349 1238 l 454 1343 l 518 1278 m 611 536 l 611 0 l 466 0 l 466 498 q 436 576 466 547 q 366 605 407 605 q 286 581 326 605 q 226 533 245 557 l 226 0 l 81 0 l 81 1027 l 226 1027 l 226 640 q 409 728 314 728 q 551 683 494 728 q 611 536 611 635 z "},"Ȧ":{"ha":766,"x_min":1,"x_max":765,"o":"m 294 1122 l 294 1286 l 459 1286 l 459 1122 l 294 1122 m 293 434 l 485 434 l 389 766 l 293 434 m 1 0 l 294 1027 l 472 1027 l 765 0 l 608 0 l 524 298 l 254 298 l 170 0 l 1 0 z "},"ȧ":{"ha":637,"x_min":47,"x_max":598,"o":"m 194 806 l 194 970 l 359 970 l 359 806 l 194 806 m 193 184 q 212 126 193 144 q 261 109 232 109 q 305 112 290 109 q 334 122 319 115 l 359 135 q 383 152 370 141 l 403 168 q 420 183 408 172 l 433 195 l 433 362 q 234 286 281 327 q 193 184 193 250 m 453 0 q 433 63 433 12 l 420 48 q 253 -14 361 -14 q 73 79 121 -14 q 47 185 47 125 q 69 293 47 245 q 138 376 90 340 q 433 482 226 441 q 430 541 433 530 q 423 562 427 552 q 414 576 419 571 q 400 587 408 581 q 381 596 392 593 q 322 603 355 603 q 262 593 290 603 q 217 571 234 583 q 187 543 201 559 q 162 505 170 521 l 67 563 q 119 645 97 625 q 161 681 140 666 q 206 705 182 696 q 322 726 263 726 q 416 719 381 726 q 483 696 451 713 q 534 652 514 680 q 578 475 578 591 l 578 101 q 585 47 578 82 q 598 0 592 13 l 453 0 z "},"Ȫ":{"ha":864,"x_min":43,"x_max":821,"o":"m 238 1322 l 238 1423 l 651 1423 l 651 1322 l 238 1322 m 488 1129 l 488 1294 l 652 1294 l 652 1129 l 488 1129 m 230 1129 l 230 1294 l 394 1294 l 394 1129 l 230 1129 m 217 657 q 214 637 217 657 q 208 582 210 617 q 205 510 205 547 q 208 437 205 473 q 217 361 210 401 q 235 287 224 321 q 265 221 246 253 q 307 168 283 190 q 438 119 359 119 q 659 511 659 119 q 509 896 659 830 q 437 910 477 910 q 364 896 397 910 q 307 858 330 882 q 265 802 283 835 q 235 733 246 768 q 217 657 224 698 m 50 408 q 43 510 43 459 q 49 612 43 561 q 69 717 55 664 q 104 818 83 770 q 158 908 125 865 q 230 981 190 950 q 439 1046 316 1046 q 711 907 609 1046 q 821 510 821 755 q 715 117 821 260 q 439 -18 616 -18 q 165 117 272 -18 q 50 408 74 231 z "},"ȫ":{"ha":666,"x_min":40,"x_max":626,"o":"m 161 971 l 161 1072 l 574 1072 l 574 971 l 161 971 m 381 810 l 381 975 l 545 975 l 545 810 l 381 810 m 123 810 l 123 975 l 288 975 l 288 810 l 123 810 m 189 440 q 185 363 185 404 q 189 288 185 321 q 204 222 193 255 q 231 164 214 189 q 334 110 267 110 q 481 357 481 110 q 437 559 481 503 q 334 605 402 605 q 189 440 208 605 m 40 358 q 118 628 40 528 q 334 728 197 728 q 491 682 425 728 q 626 357 626 587 q 447 5 626 71 q 334 -13 397 -13 q 220 5 271 -13 q 137 56 170 24 q 81 136 104 89 q 40 358 40 224 z "},"Ȭ":{"ha":864,"x_min":43,"x_max":821,"o":"m 267 1319 l 267 1420 l 680 1420 l 680 1319 l 267 1319 m 217 657 q 214 637 217 657 q 208 582 210 617 q 205 510 205 547 q 208 437 205 473 q 217 361 210 401 q 235 287 224 321 q 265 221 246 253 q 307 168 283 190 q 438 119 359 119 q 659 511 659 119 q 509 896 659 830 q 437 910 477 910 q 364 896 397 910 q 307 858 330 882 q 265 802 283 835 q 235 733 246 768 q 217 657 224 698 m 50 408 q 43 510 43 459 q 49 612 43 561 q 69 717 55 664 q 104 818 83 770 q 158 908 125 865 q 230 981 190 950 q 439 1046 316 1046 q 711 907 609 1046 q 821 510 821 755 q 715 117 821 260 q 439 -18 616 -18 q 165 117 272 -18 q 50 408 74 231 z "},"ȭ":{"ha":666,"x_min":40,"x_max":626,"o":"m 156 1003 l 156 1104 l 569 1104 l 569 1003 l 156 1003 m 189 440 q 185 363 185 404 q 189 288 185 321 q 204 222 193 255 q 231 164 214 189 q 334 110 267 110 q 481 357 481 110 q 437 559 481 503 q 334 605 402 605 q 189 440 208 605 m 40 358 q 118 628 40 528 q 334 728 197 728 q 491 682 425 728 q 626 357 626 587 q 447 5 626 71 q 334 -13 397 -13 q 220 5 271 -13 q 137 56 170 24 q 81 136 104 89 q 40 358 40 224 z "},"Ȯ":{"ha":864,"x_min":43,"x_max":821,"o":"m 349 1122 l 349 1286 l 515 1286 l 515 1122 l 349 1122 m 217 657 q 214 637 217 657 q 208 582 210 617 q 205 510 205 547 q 208 437 205 473 q 217 361 210 401 q 235 287 224 321 q 265 221 246 253 q 307 168 283 190 q 438 119 359 119 q 659 511 659 119 q 509 896 659 830 q 437 910 477 910 q 364 896 397 910 q 307 858 330 882 q 265 802 283 835 q 235 733 246 768 q 217 657 224 698 m 50 408 q 43 510 43 459 q 49 612 43 561 q 69 717 55 664 q 104 818 83 770 q 158 908 125 865 q 230 981 190 950 q 439 1046 316 1046 q 711 907 609 1046 q 821 510 821 755 q 715 117 821 260 q 439 -18 616 -18 q 165 117 272 -18 q 50 408 74 231 z "},"ȯ":{"ha":666,"x_min":40,"x_max":626,"o":"m 244 806 l 244 970 l 410 970 l 410 806 l 244 806 m 189 440 q 185 363 185 404 q 189 288 185 321 q 204 222 193 255 q 231 164 214 189 q 334 110 267 110 q 481 357 481 110 q 437 559 481 503 q 334 605 402 605 q 189 440 208 605 m 40 358 q 118 628 40 528 q 334 728 197 728 q 491 682 425 728 q 626 357 626 587 q 447 5 626 71 q 334 -13 397 -13 q 220 5 271 -13 q 137 56 170 24 q 81 136 104 89 q 40 358 40 224 z "},"Ȱ":{"ha":864,"x_min":43,"x_max":821,"o":"m 267 1287 l 267 1388 l 680 1388 l 680 1287 l 267 1287 m 349 1122 l 349 1286 l 515 1286 l 515 1122 l 349 1122 m 217 657 q 214 637 217 657 q 208 582 210 617 q 205 510 205 547 q 208 437 205 473 q 217 361 210 401 q 235 287 224 321 q 265 221 246 253 q 307 168 283 190 q 438 119 359 119 q 659 511 659 119 q 509 896 659 830 q 437 910 477 910 q 364 896 397 910 q 307 858 330 882 q 265 802 283 835 q 235 733 246 768 q 217 657 224 698 m 50 408 q 43 510 43 459 q 49 612 43 561 q 69 717 55 664 q 104 818 83 770 q 158 908 125 865 q 230 981 190 950 q 439 1046 316 1046 q 711 907 609 1046 q 821 510 821 755 q 715 117 821 260 q 439 -18 616 -18 q 165 117 272 -18 q 50 408 74 231 z "},"ȱ":{"ha":666,"x_min":40,"x_max":626,"o":"m 161 971 l 161 1072 l 574 1072 l 574 971 l 161 971 m 244 806 l 244 970 l 410 970 l 410 806 l 244 806 m 189 440 q 185 363 185 404 q 189 288 185 321 q 204 222 193 255 q 231 164 214 189 q 334 110 267 110 q 481 357 481 110 q 437 559 481 503 q 334 605 402 605 q 189 440 208 605 m 40 358 q 118 628 40 528 q 334 728 197 728 q 491 682 425 728 q 626 357 626 587 q 447 5 626 71 q 334 -13 397 -13 q 220 5 271 -13 q 137 56 170 24 q 81 136 104 89 q 40 358 40 224 z "},"Ȳ":{"ha":761,"x_min":1,"x_max":760,"o":"m 208 1103 l 208 1204 l 621 1204 l 621 1103 l 208 1103 m 461 475 l 461 0 l 300 0 l 300 475 l 1 1027 l 172 1027 l 380 639 l 589 1027 l 760 1027 l 461 475 z "},"ȳ":{"ha":612,"x_min":1,"x_max":609,"o":"m 133 787 l 133 888 l 546 888 l 546 787 l 133 787 m 1 715 l 163 715 l 313 286 l 448 715 l 609 715 l 370 -22 q 311 -168 334 -133 q 268 -224 287 -203 q 226 -256 248 -244 q 16 -275 155 -296 q 9 -275 9 -275 l 16 -140 q 82 -151 41 -151 q 148 -140 123 -151 q 188 -112 173 -129 q 214 -74 203 -95 q 231 -33 225 -54 q 241 43 241 9 l 1 715 z "},"Ʌ":{"ha":749,"x_min":1,"x_max":747,"o":"m 374 677 l 173 0 l 1 0 l 307 1027 l 442 1027 l 747 0 l 576 0 l 374 677 z "},"ɐ":{"ha":637,"x_min":23,"x_max":574,"o":"m 429 531 q 409 589 429 571 q 360 607 389 607 q 316 604 331 607 q 288 593 302 600 l 262 581 q 238 564 252 574 l 218 548 q 201 532 213 543 l 189 521 l 189 353 q 387 429 340 389 q 429 531 429 466 m 168 715 q 189 652 189 703 l 201 667 q 368 730 260 730 q 549 637 500 730 q 574 530 574 591 q 552 423 574 470 q 483 340 531 376 q 189 233 395 275 q 192 174 189 185 q 198 154 195 163 q 208 139 202 144 q 221 128 213 134 q 240 119 229 122 q 299 113 267 113 q 359 122 331 113 q 404 144 387 132 q 434 173 420 157 q 459 211 452 195 l 554 153 q 503 70 524 91 q 460 35 481 50 q 415 11 439 20 q 299 -10 358 -10 q 205 -4 240 -10 q 139 19 170 3 q 87 64 107 36 q 43 240 43 124 l 43 614 q 36 668 43 633 q 23 715 29 703 l 168 715 z "},"ɔ":{"ha":635,"x_min":32,"x_max":584,"o":"m 584 363 q 491 60 584 150 q 286 -12 418 -12 q 79 99 154 -12 q 45 166 55 135 l 168 220 q 214 132 174 165 q 281 111 241 111 q 439 357 439 111 q 397 542 439 478 q 277 605 356 605 q 186 564 221 605 q 143 489 157 529 l 32 538 q 98 652 47 598 q 281 728 170 728 q 584 363 584 728 z "},"ə":{"ha":635,"x_min":26,"x_max":583,"o":"m 431 273 l 180 273 q 199 182 180 220 q 296 111 234 111 q 362 127 334 111 q 404 170 390 144 q 431 273 431 220 m 545 577 q 556 554 545 577 q 575 481 566 530 q 583 357 583 432 q 566 212 583 282 q 520 99 548 141 q 453 32 492 58 q 295 -12 386 -12 q 146 39 210 -12 q 32 396 26 135 l 438 396 q 366 581 438 533 q 287 605 328 605 q 219 595 246 605 q 176 572 192 585 q 146 542 159 559 q 121 501 127 518 l 28 561 q 136 686 79 648 q 274 728 199 728 q 403 708 350 728 q 490 656 456 688 q 545 577 524 623 z "},"ʹ":{"ha":307,"x_min":47,"x_max":243,"o":"m 47 746 l 168 1002 l 243 967 l 105 720 l 47 746 z "},"ʺ":{"ha":392,"x_min":16,"x_max":396,"o":"m 227 709 l 281 878 l 231 878 l 231 1043 l 396 1043 l 396 909 l 293 709 l 227 709 m 16 709 l 70 878 l 20 878 l 20 1043 l 185 1043 l 185 909 l 82 709 l 16 709 z "},"ʼ":{"ha":227,"x_min":30,"x_max":199,"o":"m 30 709 l 84 878 l 34 878 l 34 1043 l 199 1043 l 199 909 l 96 709 l 30 709 z "},"˄":{"ha":431,"x_min":46,"x_max":383,"o":"m 46 833 l 214 1002 l 383 833 l 319 770 l 216 874 l 111 769 l 46 833 z "},"ˆ":{"ha":431,"x_min":46,"x_max":383,"o":"m 46 833 l 214 1002 l 383 833 l 319 770 l 216 874 l 111 769 l 46 833 z "},"ˇ":{"ha":551,"x_min":47,"x_max":384,"o":"m 384 936 l 216 768 l 47 937 l 111 999 l 214 895 l 319 1000 l 384 936 z "},"ˈ":{"ha":227,"x_min":30,"x_max":199,"o":"m 30 709 l 84 878 l 34 878 l 34 1043 l 199 1043 l 199 909 l 96 709 l 30 709 z "},"˘":{"ha":363,"x_min":23,"x_max":340,"o":"m 276 788 q 253 772 276 788 q 182 756 230 756 q 87 788 134 756 q 23 877 41 821 l 93 916 q 131 865 106 886 q 182 844 155 844 q 233 865 209 844 q 271 916 258 886 l 340 877 q 276 788 323 821 z "},"˙":{"ha":338,"x_min":-90,"x_max":76,"o":"m -90 83 l -90 248 l 76 248 l 76 83 l -90 83 z "},"˚":{"ha":931,"x_min":-214,"x_max":176,"o":"m -85 326 q -98 312 -85 326 q -112 260 -112 298 q -85 194 -112 221 q -19 167 -58 167 q 47 194 20 167 q 74 260 74 221 q 47 326 74 298 q -19 353 20 353 q -85 326 -58 353 m -156 122 q -185 151 -156 122 q -214 260 -214 179 q -156 397 -214 340 q -19 454 -99 454 q 119 397 62 454 q 176 260 176 340 q 119 122 176 179 q -19 65 62 65 q -156 122 -99 65 z "},"˛":{"ha":284,"x_min":12,"x_max":219,"o":"m 134 -101 q 219 -132 134 -132 l 219 -235 q 118 -230 147 -239 q 74 -214 89 -221 q 49 -198 58 -208 q 34 -92 12 -163 q 92 0 50 -41 l 172 0 q 134 -101 134 -47 z "},"˜":{"ha":307,"x_min":-259,"x_max":218,"o":"m 218 216 q 67 81 170 81 q -34 111 10 81 q -105 142 -79 142 q -146 127 -132 142 q -171 85 -159 113 l -259 126 q -198 224 -243 188 q -116 261 -153 261 q -52 251 -79 261 q -9 230 -26 241 q 66 199 34 199 q 104 214 92 199 q 127 258 119 235 l 218 216 z "},"˝":{"ha":316,"x_min":-150,"x_max":231,"o":"m 61 83 l 115 252 l 65 252 l 65 417 l 231 417 l 231 283 l 127 83 l 61 83 m -150 83 l -96 252 l -146 252 l -146 417 l 20 417 l 20 283 l -83 83 l -150 83 z "},"̀":{"ha":479,"x_min":115,"x_max":415,"o":"m 115 946 l 193 1029 l 415 800 l 356 742 l 115 946 z "},"́":{"ha":451,"x_min":75,"x_max":376,"o":"m 376 947 l 134 743 l 75 801 l 297 1030 l 376 947 z "},"̂":{"ha":431,"x_min":47,"x_max":384,"o":"m 47 812 l 215 981 l 384 812 l 320 749 l 216 853 l 111 748 l 47 812 z "},"̃":{"ha":541,"x_min":32,"x_max":509,"o":"m 509 890 q 358 754 461 754 q 257 785 301 754 q 185 815 212 815 q 145 801 159 815 q 120 759 132 787 l 32 800 q 93 898 47 861 q 175 935 138 935 q 239 925 212 935 q 281 903 265 915 q 357 872 325 872 q 395 888 383 872 q 418 932 410 909 l 509 890 z "},"̅":{"ha":635,"x_min":0,"x_max":635,"o":"m 0 1112 l 0 1175 l 635 1175 l 635 1112 l 0 1112 z "},"̈":{"ha":444,"x_min":11,"x_max":433,"o":"m 269 816 l 269 981 l 433 981 l 433 816 l 269 816 m 11 816 l 11 981 l 175 981 l 175 816 l 11 816 z "},"̊":{"ha":541,"x_min":76,"x_max":465,"o":"m 205 907 q 191 894 205 907 q 178 842 178 880 q 205 776 178 803 q 271 749 232 749 q 336 776 309 749 q 363 842 363 803 q 336 907 363 880 q 271 935 309 935 q 205 907 232 935 m 133 704 q 105 732 133 704 q 76 842 76 761 q 133 979 76 922 q 271 1036 191 1036 q 408 979 351 1036 q 465 842 465 922 q 408 704 465 761 q 271 647 351 647 q 133 704 191 647 z "},"̋":{"ha":392,"x_min":16,"x_max":396,"o":"m 227 678 l 281 848 l 231 848 l 231 1013 l 396 1013 l 396 879 l 293 678 l 227 678 m 16 678 l 70 848 l 20 848 l 20 1013 l 185 1013 l 185 879 l 82 678 l 16 678 z "},"̌":{"ha":431,"x_min":52,"x_max":389,"o":"m 389 936 l 220 768 l 52 937 l 115 999 l 219 895 l 324 1000 l 389 936 z "},"̎":{"ha":392,"x_min":16,"x_max":396,"o":"m 227 709 l 281 878 l 231 878 l 231 1043 l 396 1043 l 396 909 l 293 709 l 227 709 m 16 709 l 70 878 l 20 878 l 20 1043 l 185 1043 l 185 909 l 82 709 l 16 709 z "},"̏":{"ha":719,"x_min":115,"x_max":654,"o":"m 354 946 l 433 1029 l 654 800 l 595 742 l 354 946 m 115 946 l 193 1029 l 415 800 l 356 742 l 115 946 z "},"̐":{"ha":363,"x_min":25,"x_max":342,"o":"m 94 972 l 94 1137 l 259 1137 l 259 972 l 94 972 m 278 788 q 255 772 278 788 q 184 756 232 756 q 89 788 136 756 q 25 877 43 821 l 95 916 q 133 865 108 886 q 184 844 157 844 q 235 865 211 844 q 273 916 260 886 l 342 877 q 278 788 325 821 z "},"̑":{"ha":359,"x_min":21,"x_max":338,"o":"m 85 884 q 108 900 85 884 q 180 916 132 916 q 274 884 228 916 q 338 795 321 852 l 269 756 q 231 807 256 786 q 180 829 206 829 q 129 807 153 829 q 91 756 104 786 l 21 795 q 85 884 39 852 z "},"̒":{"ha":232,"x_min":14,"x_max":183,"o":"m 183 1053 l 129 883 l 179 883 l 179 718 l 14 718 l 14 852 l 117 1053 l 183 1053 z "},"̓":{"ha":232,"x_min":33,"x_max":202,"o":"m 33 719 l 87 888 l 37 888 l 37 1053 l 202 1053 l 202 920 l 99 719 l 33 719 z "},"̕":{"ha":232,"x_min":50,"x_max":219,"o":"m 50 719 l 104 888 l 54 888 l 54 1053 l 219 1053 l 219 920 l 116 719 l 50 719 z "},"̣":{"ha":227,"x_min":34,"x_max":199,"o":"m 34 -177 l 34 -12 l 199 -12 l 199 -177 l 34 -177 z "},"̤":{"ha":444,"x_min":11,"x_max":433,"o":"m 269 -161 l 269 4 l 433 4 l 433 -161 l 269 -161 m 11 -161 l 11 4 l 175 4 l 175 -161 l 11 -161 z "},"̧":{"ha":231,"x_min":4,"x_max":197,"o":"m 132 0 q 197 -146 197 -65 q 121 -225 197 -202 q 4 -235 76 -239 l 4 -132 q 89 -101 89 -132 q 51 0 89 -47 l 132 0 z "},"́":{"ha":451,"x_min":75,"x_max":376,"o":"m 376 947 l 134 743 l 75 801 l 297 1030 l 376 947 z "},"̈́":{"ha":444,"x_min":11,"x_max":469,"o":"m 469 1204 l 228 1000 l 169 1059 l 391 1288 l 469 1204 m 269 816 l 269 981 l 433 981 l 433 816 l 269 816 m 11 816 l 11 981 l 175 981 l 175 816 l 11 816 z "},"Ḁ":{"ha":766,"x_min":1,"x_max":765,"o":"m 298 -191 q 284 -204 298 -191 q 271 -256 271 -218 q 298 -322 271 -295 q 363 -349 325 -349 q 429 -322 402 -349 q 456 -256 456 -295 q 429 -191 456 -218 q 363 -163 402 -163 q 298 -191 325 -163 m 226 -394 q 198 -366 226 -394 q 169 -256 169 -337 q 226 -119 169 -176 q 364 -62 283 -62 q 501 -119 444 -62 q 558 -256 558 -176 q 501 -394 558 -337 q 364 -451 444 -451 q 226 -394 283 -451 m 293 434 l 485 434 l 389 766 l 293 434 m 1 0 l 294 1027 l 472 1027 l 765 0 l 608 0 l 524 298 l 254 298 l 170 0 l 1 0 z "},"ḁ":{"ha":637,"x_min":47,"x_max":598,"o":"m 188 -198 q 174 -212 188 -198 q 161 -264 161 -225 q 188 -330 161 -302 q 254 -357 215 -357 q 319 -330 292 -357 q 347 -264 347 -302 q 319 -198 347 -225 q 254 -171 292 -171 q 188 -198 215 -171 m 116 -401 q 88 -373 116 -401 q 59 -264 59 -345 q 116 -126 59 -183 q 254 -69 174 -69 q 391 -126 334 -69 q 448 -264 448 -183 q 391 -401 448 -345 q 254 -458 334 -458 q 116 -401 174 -458 m 193 184 q 212 126 193 144 q 261 109 232 109 q 305 112 290 109 q 334 122 319 115 l 359 135 q 383 152 370 141 l 403 168 q 420 183 408 172 l 433 195 l 433 362 q 234 286 281 327 q 193 184 193 250 m 453 0 q 433 63 433 12 l 420 48 q 253 -14 361 -14 q 73 79 121 -14 q 47 185 47 125 q 69 293 47 245 q 138 376 90 340 q 433 482 226 441 q 430 541 433 530 q 423 562 427 552 q 414 576 419 571 q 400 587 408 581 q 381 596 392 593 q 322 603 355 603 q 262 593 290 603 q 217 571 234 583 q 187 543 201 559 q 162 505 170 521 l 67 563 q 119 645 97 625 q 161 681 140 666 q 206 705 182 696 q 322 726 263 726 q 416 719 381 726 q 483 696 451 713 q 534 652 514 680 q 578 475 578 591 l 578 101 q 585 47 578 82 q 598 0 592 13 l 453 0 z "},"Ḃ":{"ha":779,"x_min":83,"x_max":741,"o":"m 269 1122 l 269 1286 l 435 1286 l 435 1122 l 269 1122 m 245 602 l 412 602 q 531 655 481 602 q 570 763 570 696 q 412 891 570 891 l 245 891 l 245 602 m 245 136 l 419 136 q 553 181 514 136 q 587 292 587 218 q 541 406 587 352 q 419 463 493 463 l 245 463 l 245 136 m 83 0 l 83 1027 l 414 1027 q 640 956 559 1027 q 718 782 718 888 q 591 559 718 608 q 541 544 570 551 q 682 462 626 528 q 741 279 741 392 q 639 50 741 117 q 419 0 561 0 l 83 0 z "},"ḃ":{"ha":681,"x_min":43,"x_max":649,"o":"m 248 925 l 248 1090 l 414 1090 l 414 925 l 248 925 m 353 605 q 207 535 274 605 l 207 193 q 216 181 208 193 q 235 159 225 169 q 261 137 245 149 q 340 111 295 111 q 414 123 385 111 q 459 156 442 136 q 486 208 476 176 q 504 336 504 261 q 495 459 504 411 q 472 534 486 507 q 437 578 458 562 q 353 605 404 605 m 207 54 q 196 0 201 0 l 43 0 q 62 97 62 43 l 62 1027 l 207 1027 l 207 668 q 258 707 219 686 q 349 728 296 728 q 446 716 402 728 q 521 684 490 704 q 575 635 552 665 q 612 574 599 606 q 635 501 626 542 q 649 363 649 433 q 639 242 649 292 q 606 146 629 193 q 550 64 583 100 q 357 -12 477 -12 q 207 54 258 -12 z "},"Ḅ":{"ha":779,"x_min":83,"x_max":741,"o":"m 253 -184 l 253 -20 l 418 -20 l 418 -184 l 253 -184 m 245 602 l 412 602 q 531 655 481 602 q 570 763 570 696 q 412 891 570 891 l 245 891 l 245 602 m 245 136 l 419 136 q 553 181 514 136 q 587 292 587 218 q 541 406 587 352 q 419 463 493 463 l 245 463 l 245 136 m 83 0 l 83 1027 l 414 1027 q 640 956 559 1027 q 718 782 718 888 q 591 559 718 608 q 541 544 570 551 q 682 462 626 528 q 741 279 741 392 q 639 50 741 117 q 419 0 561 0 l 83 0 z "},"ḅ":{"ha":681,"x_min":43,"x_max":649,"o":"m 197 -192 l 197 -27 l 363 -27 l 363 -192 l 197 -192 m 353 605 q 207 535 274 605 l 207 193 q 216 181 208 193 q 235 159 225 169 q 261 137 245 149 q 340 111 295 111 q 414 123 385 111 q 459 156 442 136 q 486 208 476 176 q 504 336 504 261 q 495 459 504 411 q 472 534 486 507 q 437 578 458 562 q 353 605 404 605 m 207 54 q 196 0 201 0 l 43 0 q 62 97 62 43 l 62 1027 l 207 1027 l 207 668 q 258 707 219 686 q 349 728 296 728 q 446 716 402 728 q 521 684 490 704 q 575 635 552 665 q 612 574 599 606 q 635 501 626 542 q 649 363 649 433 q 639 242 649 292 q 606 146 629 193 q 550 64 583 100 q 357 -12 477 -12 q 207 54 258 -12 z "},"Ḇ":{"ha":779,"x_min":83,"x_max":741,"o":"m 174 -164 l 174 -63 l 587 -63 l 587 -164 l 174 -164 m 245 602 l 412 602 q 531 655 481 602 q 570 763 570 696 q 412 891 570 891 l 245 891 l 245 602 m 245 136 l 419 136 q 553 181 514 136 q 587 292 587 218 q 541 406 587 352 q 419 463 493 463 l 245 463 l 245 136 m 83 0 l 83 1027 l 414 1027 q 640 956 559 1027 q 718 782 718 888 q 591 559 718 608 q 541 544 570 551 q 682 462 626 528 q 741 279 741 392 q 639 50 741 117 q 419 0 561 0 l 83 0 z "},"ḇ":{"ha":681,"x_min":43,"x_max":649,"o":"m 135 -172 l 135 -71 l 548 -71 l 548 -172 l 135 -172 m 353 605 q 207 535 274 605 l 207 193 q 216 181 208 193 q 235 159 225 169 q 261 137 245 149 q 340 111 295 111 q 414 123 385 111 q 459 156 442 136 q 486 208 476 176 q 504 336 504 261 q 495 459 504 411 q 472 534 486 507 q 437 578 458 562 q 353 605 404 605 m 207 54 q 196 0 201 0 l 43 0 q 62 97 62 43 l 62 1027 l 207 1027 l 207 668 q 258 707 219 686 q 349 728 296 728 q 446 716 402 728 q 521 684 490 704 q 575 635 552 665 q 612 574 599 606 q 635 501 626 542 q 649 363 649 433 q 639 242 649 292 q 606 146 629 193 q 550 64 583 100 q 357 -12 477 -12 q 207 54 258 -12 z "},"Ḉ":{"ha":802,"x_min":43,"x_max":775,"o":"m 672 1326 l 431 1122 l 372 1180 l 593 1409 l 672 1326 m 54 387 q 43 515 43 450 q 53 644 43 581 q 83 767 63 707 q 135 877 103 827 q 209 966 168 928 q 428 1046 297 1046 q 690 880 594 1046 q 753 714 737 800 l 753 713 l 612 675 q 587 782 602 748 q 557 838 572 815 q 524 876 542 861 q 429 910 482 910 q 338 886 376 910 q 275 823 300 862 q 235 732 251 784 q 205 515 205 635 q 357 132 205 195 q 426 119 389 119 q 491 128 463 119 q 540 153 520 138 q 575 189 559 168 q 599 232 590 210 q 614 275 608 253 q 624 349 624 315 l 775 328 q 669 102 745 197 q 472 -14 588 1 q 532 -155 532 -78 q 456 -235 532 -212 q 340 -245 412 -249 l 340 -142 q 425 -111 425 -142 q 391 -16 425 -60 q 138 153 237 -1 q 54 387 77 248 z "},"ḉ":{"ha":635,"x_min":40,"x_max":592,"o":"m 591 1010 l 349 806 l 290 864 l 512 1093 l 591 1010 m 40 353 q 133 656 40 566 q 338 728 206 728 q 545 616 470 728 q 578 549 569 581 l 456 495 q 410 583 450 551 q 343 605 383 605 q 185 359 185 605 q 227 174 185 237 q 347 111 268 111 q 437 151 403 111 q 481 227 467 186 l 592 178 q 526 63 576 117 q 389 -9 469 3 q 449 -150 450 -73 q 374 -230 449 -207 q 256 -239 329 -243 l 256 -136 q 342 -105 342 -136 q 309 -11 342 -55 q 40 353 40 9 z "},"Ḋ":{"ha":833,"x_min":83,"x_max":799,"o":"m 283 1122 l 283 1286 l 448 1286 l 448 1122 l 283 1122 m 245 136 l 343 136 q 562 239 485 136 q 637 507 637 340 q 434 880 637 823 q 343 891 393 891 l 245 891 l 245 136 m 83 0 l 83 1027 l 326 1027 q 774 728 697 1027 q 799 527 799 633 q 784 349 799 421 q 734 211 770 276 q 646 100 699 146 q 326 0 530 0 l 83 0 z "},"ḋ":{"ha":673,"x_min":40,"x_max":646,"o":"m 219 923 l 219 1088 l 385 1088 l 385 923 l 219 923 m 482 535 q 336 605 415 605 q 217 534 253 605 q 185 347 185 471 q 230 156 185 209 q 342 111 268 111 q 473 180 421 111 q 482 193 481 193 l 482 535 m 627 97 q 646 0 627 50 l 493 0 q 489 9 491 3 l 482 54 q 332 -12 431 -12 q 83 146 161 -12 q 40 345 40 234 q 168 684 40 603 q 341 728 235 728 q 432 707 393 728 q 482 668 470 686 l 482 1027 l 627 1027 l 627 97 z "},"Ḍ":{"ha":833,"x_min":83,"x_max":799,"o":"m 275 -184 l 275 -20 l 440 -20 l 440 -184 l 275 -184 m 245 136 l 343 136 q 562 239 485 136 q 637 507 637 340 q 434 880 637 823 q 343 891 393 891 l 245 891 l 245 136 m 83 0 l 83 1027 l 326 1027 q 774 728 697 1027 q 799 527 799 633 q 784 349 799 421 q 734 211 770 276 q 646 100 699 146 q 326 0 530 0 l 83 0 z "},"ḍ":{"ha":673,"x_min":40,"x_max":646,"o":"m 248 -192 l 248 -27 l 413 -27 l 413 -192 l 248 -192 m 482 535 q 336 605 415 605 q 217 534 253 605 q 185 347 185 471 q 230 156 185 209 q 342 111 268 111 q 473 180 421 111 q 482 193 481 193 l 482 535 m 627 97 q 646 0 627 50 l 493 0 q 489 9 491 3 l 482 54 q 332 -12 431 -12 q 83 146 161 -12 q 40 345 40 234 q 168 684 40 603 q 341 728 235 728 q 432 707 393 728 q 482 668 470 686 l 482 1027 l 627 1027 l 627 97 z "},"Ḏ":{"ha":833,"x_min":83,"x_max":799,"o":"m 220 -164 l 220 -63 l 633 -63 l 633 -164 l 220 -164 m 245 136 l 343 136 q 562 239 485 136 q 637 507 637 340 q 434 880 637 823 q 343 891 393 891 l 245 891 l 245 136 m 83 0 l 83 1027 l 326 1027 q 774 728 697 1027 q 799 527 799 633 q 784 349 799 421 q 734 211 770 276 q 646 100 699 146 q 326 0 530 0 l 83 0 z "},"ḏ":{"ha":673,"x_min":40,"x_max":646,"o":"m 159 -172 l 159 -71 l 572 -71 l 572 -172 l 159 -172 m 482 535 q 336 605 415 605 q 217 534 253 605 q 185 347 185 471 q 230 156 185 209 q 342 111 268 111 q 473 180 421 111 q 482 193 481 193 l 482 535 m 627 97 q 646 0 627 50 l 493 0 q 489 9 491 3 l 482 54 q 332 -12 431 -12 q 83 146 161 -12 q 40 345 40 234 q 168 684 40 603 q 341 728 235 728 q 432 707 393 728 q 482 668 470 686 l 482 1027 l 627 1027 l 627 97 z "},"Ḑ":{"ha":833,"x_min":83,"x_max":799,"o":"m 245 8 q 310 -138 310 -57 q 234 -217 310 -194 q 117 -227 189 -231 l 117 -124 q 202 -93 202 -124 q 164 8 202 -39 l 245 8 m 245 136 l 343 136 q 562 239 485 136 q 637 507 637 340 q 434 880 637 823 q 343 891 393 891 l 245 891 l 245 136 m 83 0 l 83 1027 l 326 1027 q 774 728 697 1027 q 799 527 799 633 q 784 349 799 421 q 734 211 770 276 q 646 100 699 146 q 326 0 530 0 l 83 0 z "},"ḑ":{"ha":673,"x_min":40,"x_max":646,"o":"m 372 -4 q 437 -150 437 -69 q 361 -229 437 -206 q 244 -239 316 -243 l 244 -136 q 329 -105 329 -136 q 291 -4 329 -51 l 372 -4 m 482 535 q 336 605 415 605 q 217 534 253 605 q 185 347 185 471 q 230 156 185 209 q 342 111 268 111 q 473 180 421 111 q 482 193 481 193 l 482 535 m 627 97 q 646 0 627 50 l 493 0 q 489 9 491 3 l 482 54 q 332 -12 431 -12 q 83 146 161 -12 q 40 345 40 234 q 168 684 40 603 q 341 728 235 728 q 432 707 393 728 q 482 668 470 686 l 482 1027 l 627 1027 l 627 97 z "},"Ḓ":{"ha":833,"x_min":83,"x_max":799,"o":"m 203 -233 l 372 -64 l 541 -233 l 477 -296 l 373 -192 l 268 -297 l 203 -233 m 245 136 l 343 136 q 562 239 485 136 q 637 507 637 340 q 434 880 637 823 q 343 891 393 891 l 245 891 l 245 136 m 83 0 l 83 1027 l 326 1027 q 774 728 697 1027 q 799 527 799 633 q 784 349 799 421 q 734 211 770 276 q 646 100 699 146 q 326 0 530 0 l 83 0 z "},"ḓ":{"ha":673,"x_min":40,"x_max":646,"o":"m 123 -240 l 292 -72 l 460 -241 l 397 -303 l 293 -199 l 188 -304 l 123 -240 m 482 535 q 336 605 415 605 q 217 534 253 605 q 185 347 185 471 q 230 156 185 209 q 342 111 268 111 q 473 180 421 111 q 482 193 481 193 l 482 535 m 627 97 q 646 0 627 50 l 493 0 q 489 9 491 3 l 482 54 q 332 -12 431 -12 q 83 146 161 -12 q 40 345 40 234 q 168 684 40 603 q 341 728 235 728 q 432 707 393 728 q 482 668 470 686 l 482 1027 l 627 1027 l 627 97 z "},"Ḕ":{"ha":732,"x_min":83,"x_max":697,"o":"m 146 1470 l 224 1554 l 446 1324 l 387 1266 l 146 1470 m 205 1103 l 205 1204 l 618 1204 l 618 1103 l 205 1103 m 83 0 l 83 1027 l 671 1027 l 671 891 l 245 891 l 245 607 l 542 607 l 542 470 l 245 470 l 245 146 l 697 146 l 697 0 l 83 0 z "},"ḕ":{"ha":635,"x_min":40,"x_max":597,"o":"m 94 1154 l 173 1238 l 395 1008 l 336 950 l 94 1154 m 153 787 l 153 888 l 566 888 l 566 787 l 153 787 m 192 442 l 443 442 q 425 534 443 495 q 327 605 389 605 q 261 588 290 605 q 219 545 233 572 q 192 442 192 496 m 78 139 q 68 162 78 139 q 48 234 57 185 q 40 358 40 283 q 58 504 40 433 q 103 616 75 574 q 170 684 131 658 q 328 728 237 728 q 477 677 414 728 q 591 319 597 581 l 185 319 q 258 135 185 182 q 336 111 295 111 q 404 121 377 111 q 448 144 431 131 q 477 174 464 157 q 503 214 496 197 l 595 155 q 488 30 545 67 q 349 -12 425 -12 q 220 7 273 -12 q 133 60 167 27 q 78 139 100 92 z "},"Ḗ":{"ha":732,"x_min":83,"x_max":697,"o":"m 626 1471 l 385 1267 l 326 1325 l 547 1554 l 626 1471 m 205 1103 l 205 1204 l 618 1204 l 618 1103 l 205 1103 m 83 0 l 83 1027 l 671 1027 l 671 891 l 245 891 l 245 607 l 542 607 l 542 470 l 245 470 l 245 146 l 697 146 l 697 0 l 83 0 z "},"ḗ":{"ha":635,"x_min":40,"x_max":597,"o":"m 574 1155 l 332 951 l 273 1009 l 495 1238 l 574 1155 m 153 787 l 153 888 l 566 888 l 566 787 l 153 787 m 192 442 l 443 442 q 425 534 443 495 q 327 605 389 605 q 261 588 290 605 q 219 545 233 572 q 192 442 192 496 m 78 139 q 68 162 78 139 q 48 234 57 185 q 40 358 40 283 q 58 504 40 433 q 103 616 75 574 q 170 684 131 658 q 328 728 237 728 q 477 677 414 728 q 591 319 597 581 l 185 319 q 258 135 185 182 q 336 111 295 111 q 404 121 377 111 q 448 144 431 131 q 477 174 464 157 q 503 214 496 197 l 595 155 q 488 30 545 67 q 349 -12 425 -12 q 220 7 273 -12 q 133 60 167 27 q 78 139 100 92 z "},"Ḙ":{"ha":732,"x_min":83,"x_max":697,"o":"m 225 -233 l 393 -64 l 562 -233 l 498 -296 l 395 -192 l 290 -297 l 225 -233 m 83 0 l 83 1027 l 671 1027 l 671 891 l 245 891 l 245 607 l 542 607 l 542 470 l 245 470 l 245 146 l 697 146 l 697 0 l 83 0 z "},"ḙ":{"ha":635,"x_min":40,"x_max":597,"o":"m 172 -240 l 340 -72 l 509 -241 l 445 -303 l 341 -199 l 236 -304 l 172 -240 m 192 442 l 443 442 q 425 534 443 495 q 327 605 389 605 q 261 588 290 605 q 219 545 233 572 q 192 442 192 496 m 78 139 q 68 162 78 139 q 48 234 57 185 q 40 358 40 283 q 58 504 40 433 q 103 616 75 574 q 170 684 131 658 q 328 728 237 728 q 477 677 414 728 q 591 319 597 581 l 185 319 q 258 135 185 182 q 336 111 295 111 q 404 121 377 111 q 448 144 431 131 q 477 174 464 157 q 503 214 496 197 l 595 155 q 488 30 545 67 q 349 -12 425 -12 q 220 7 273 -12 q 133 60 167 27 q 78 139 100 92 z "},"Ḛ":{"ha":732,"x_min":83,"x_max":697,"o":"m 608 -83 q 457 -218 560 -218 q 356 -188 400 -218 q 284 -157 311 -157 q 244 -172 258 -157 q 219 -214 231 -186 l 131 -173 q 192 -75 146 -111 q 274 -38 237 -38 q 338 -48 311 -38 q 380 -69 364 -58 q 456 -100 424 -100 q 494 -85 482 -100 q 517 -41 509 -64 l 608 -83 m 83 0 l 83 1027 l 671 1027 l 671 891 l 245 891 l 245 607 l 542 607 l 542 470 l 245 470 l 245 146 l 697 146 l 697 0 l 83 0 z "},"ḛ":{"ha":635,"x_min":40,"x_max":597,"o":"m 555 -90 q 404 -226 507 -226 q 302 -195 347 -226 q 231 -165 258 -165 q 191 -179 204 -165 q 165 -221 177 -193 l 77 -180 q 138 -82 93 -119 q 220 -45 183 -45 q 284 -55 258 -45 q 327 -77 311 -65 q 403 -108 370 -108 q 440 -92 429 -108 q 464 -48 455 -71 l 555 -90 m 192 442 l 443 442 q 425 534 443 495 q 327 605 389 605 q 261 588 290 605 q 219 545 233 572 q 192 442 192 496 m 78 139 q 68 162 78 139 q 48 234 57 185 q 40 358 40 283 q 58 504 40 433 q 103 616 75 574 q 170 684 131 658 q 328 728 237 728 q 477 677 414 728 q 591 319 597 581 l 185 319 q 258 135 185 182 q 336 111 295 111 q 404 121 377 111 q 448 144 431 131 q 477 174 464 157 q 503 214 496 197 l 595 155 q 488 30 545 67 q 349 -12 425 -12 q 220 7 273 -12 q 133 60 167 27 q 78 139 100 92 z "},"Ḝ":{"ha":720,"x_min":92,"x_max":674,"o":"m 302 -148 q 383 -137 363 -148 q 403 -116 403 -126 q 350 0 403 -65 l 92 0 l 92 1027 l 648 1027 l 648 943 l 192 943 l 192 582 l 519 582 l 519 498 l 192 498 l 192 90 l 674 90 l 674 0 l 416 0 q 465 -134 465 -68 q 452 -175 465 -163 q 428 -193 438 -187 q 404 -203 418 -199 q 379 -208 390 -206 q 353 -211 368 -210 q 331 -212 339 -212 q 313 -212 323 -212 q 302 -212 303 -212 l 302 -148 m 465 1161 q 441 1145 465 1161 q 370 1129 418 1129 q 275 1161 321 1129 q 212 1250 229 1194 l 281 1289 q 319 1238 294 1259 q 370 1217 343 1217 q 421 1238 397 1217 q 458 1289 446 1259 l 529 1250 q 465 1161 511 1194 z "},"ḝ":{"ha":627,"x_min":51,"x_max":572,"o":"m 144 424 l 481 424 q 434 591 481 525 q 322 647 395 647 q 163 537 203 647 q 144 424 144 486 m 252 -149 q 333 -138 313 -149 q 353 -117 353 -127 q 304 -6 353 -66 q 192 31 241 -1 q 113 110 142 62 q 51 340 51 209 q 221 703 51 631 q 313 723 269 723 q 387 715 356 723 q 452 683 417 707 q 512 620 487 659 q 570 348 570 528 l 140 348 q 232 101 140 167 q 333 68 277 68 q 511 198 437 68 l 572 155 q 463 36 536 87 q 369 -4 418 4 q 416 -135 416 -70 q 402 -176 416 -164 q 378 -194 388 -188 q 354 -203 368 -200 q 329 -209 340 -207 q 304 -212 318 -211 l 281 -213 q 263 -213 273 -213 q 252 -212 253 -212 l 252 -149 m 407 843 q 384 827 407 843 q 313 810 361 810 q 218 843 264 810 q 154 931 172 875 l 224 970 q 261 919 237 941 q 313 898 286 898 q 364 919 339 898 q 401 970 389 941 l 471 931 q 407 843 454 875 z "},"Ḟ":{"ha":706,"x_min":83,"x_max":671,"o":"m 288 1122 l 288 1286 l 454 1286 l 454 1122 l 288 1122 m 83 0 l 83 1027 l 671 1027 l 671 891 l 245 891 l 245 607 l 542 607 l 542 470 l 245 470 l 245 0 l 83 0 z "},"ḟ":{"ha":401,"x_min":1,"x_max":397,"o":"m 134 1116 l 134 1281 l 299 1281 l 299 1116 l 134 1116 m 344 1038 q 397 1027 394 1038 l 397 906 l 351 906 q 279 893 296 905 q 250 838 250 871 l 250 715 l 397 715 l 397 593 l 250 593 l 250 0 l 104 0 l 104 593 l 1 593 l 1 715 l 104 715 l 104 869 q 344 1038 104 1038 z "},"Ḡ":{"ha":856,"x_min":42,"x_max":775,"o":"m 262 1103 l 262 1204 l 675 1204 l 675 1103 l 262 1103 m 630 702 q 446 910 586 910 q 237 741 297 910 q 204 520 204 647 q 334 140 204 215 q 414 119 372 119 q 487 127 457 119 q 536 149 516 136 q 571 183 556 162 q 594 225 586 204 q 607 275 602 246 q 616 382 614 319 l 418 382 l 418 519 l 775 519 l 775 0 l 644 0 l 644 81 q 549 6 600 28 q 420 -18 493 -18 q 288 12 348 -18 q 183 93 227 41 q 106 213 139 144 q 42 522 42 349 q 104 817 42 686 q 293 1017 172 962 q 419 1046 359 1046 q 516 1038 480 1046 q 590 1007 553 1029 q 659 950 628 985 q 768 727 726 873 l 630 702 z "},"ḡ":{"ha":684,"x_min":14,"x_max":673,"o":"m 148 788 l 148 889 l 561 889 l 561 788 l 148 788 m 532 277 q 514 259 532 277 q 443 221 496 241 q 336 201 390 201 q 247 214 281 201 q 224 197 241 208 q 193 152 193 176 q 295 108 193 120 q 319 105 314 105 q 343 104 323 104 q 374 103 363 104 q 409 100 385 103 q 454 93 433 98 q 604 37 571 66 q 671 -110 671 -24 q 338 -307 671 -307 q 109 -260 199 -307 q 14 -111 14 -212 q 144 28 14 -21 q 75 64 103 34 q 47 136 47 94 q 152 268 47 222 q 87 348 117 286 q 57 479 57 410 q 96 607 57 549 q 201 696 135 665 q 350 728 268 728 q 428 713 388 728 q 486 684 469 699 q 610 728 544 726 q 642 729 620 729 q 673 730 663 730 l 673 608 l 670 608 q 582 603 604 614 q 575 596 575 600 q 583 572 576 593 q 595 539 591 551 q 606 456 606 501 q 587 362 606 411 q 532 277 568 313 m 341 605 q 310 605 341 605 q 240 570 279 605 q 202 468 202 534 q 237 362 202 401 q 340 324 272 324 q 454 419 428 324 q 461 467 461 443 q 454 514 461 491 q 434 558 448 537 q 341 605 404 605 m 183 -53 q 177 -61 183 -53 q 164 -83 170 -68 q 158 -113 158 -97 q 164 -140 158 -129 q 179 -158 170 -151 q 203 -171 188 -165 q 231 -179 218 -176 q 264 -182 244 -181 q 322 -184 291 -184 q 367 -184 353 -184 q 404 -182 380 -184 q 441 -178 427 -181 q 474 -170 456 -175 q 501 -156 492 -164 q 526 -109 526 -137 q 503 -63 526 -81 q 444 -36 479 -45 q 374 -23 409 -28 q 307 -16 338 -18 q 267 -9 275 -13 q 183 -53 196 -38 z "},"Ḣ":{"ha":865,"x_min":83,"x_max":782,"o":"m 343 1122 l 343 1286 l 509 1286 l 509 1122 l 343 1122 m 83 0 l 83 1027 l 245 1027 l 245 608 l 620 608 l 620 1027 l 782 1027 l 782 0 l 620 0 l 620 471 l 245 471 l 245 0 l 83 0 z "},"ḣ":{"ha":676,"x_min":50,"x_max":611,"o":"m 50 1110 l 50 1275 l 216 1275 l 216 1110 l 50 1110 m 611 536 l 611 0 l 466 0 l 466 498 q 436 576 466 547 q 366 605 407 605 q 286 581 326 605 q 226 533 245 557 l 226 0 l 81 0 l 81 1027 l 226 1027 l 226 640 q 409 728 314 728 q 551 683 494 728 q 611 536 611 635 z "},"Ḥ":{"ha":865,"x_min":83,"x_max":782,"o":"m 343 -184 l 343 -20 l 509 -20 l 509 -184 l 343 -184 m 83 0 l 83 1027 l 245 1027 l 245 608 l 620 608 l 620 1027 l 782 1027 l 782 0 l 620 0 l 620 471 l 245 471 l 245 0 l 83 0 z "},"ḥ":{"ha":676,"x_min":81,"x_max":611,"o":"m 256 -184 l 256 -20 l 422 -20 l 422 -184 l 256 -184 m 611 536 l 611 0 l 466 0 l 466 498 q 436 576 466 547 q 366 605 407 605 q 286 581 326 605 q 226 533 245 557 l 226 0 l 81 0 l 81 1027 l 226 1027 l 226 640 q 409 728 314 728 q 551 683 494 728 q 611 536 611 635 z "},"Ḧ":{"ha":865,"x_min":83,"x_max":782,"o":"m 479 1122 l 479 1286 l 644 1286 l 644 1122 l 479 1122 m 222 1122 l 222 1286 l 386 1286 l 386 1122 l 222 1122 m 83 0 l 83 1027 l 245 1027 l 245 608 l 620 608 l 620 1027 l 782 1027 l 782 0 l 620 0 l 620 471 l 245 471 l 245 0 l 83 0 z "},"ḧ":{"ha":676,"x_min":81,"x_max":611,"o":"m 393 1110 l 393 1275 l 557 1275 l 557 1110 l 393 1110 m 135 1110 l 135 1275 l 299 1275 l 299 1110 l 135 1110 m 611 536 l 611 0 l 466 0 l 466 498 q 436 576 466 547 q 366 605 407 605 q 286 581 326 605 q 226 533 245 557 l 226 0 l 81 0 l 81 1027 l 226 1027 l 226 640 q 409 728 314 728 q 551 683 494 728 q 611 536 611 635 z "},"Ḩ":{"ha":865,"x_min":77,"x_max":782,"o":"m 204 8 q 269 -138 269 -57 q 193 -217 269 -194 q 77 -227 149 -231 l 77 -124 q 161 -93 161 -124 q 123 8 161 -39 l 204 8 m 83 0 l 83 1027 l 245 1027 l 245 608 l 620 608 l 620 1027 l 782 1027 l 782 0 l 620 0 l 620 471 l 245 471 l 245 0 l 83 0 z "},"ḩ":{"ha":676,"x_min":66,"x_max":611,"o":"m 193 8 q 258 -138 258 -57 q 182 -217 258 -194 q 66 -227 138 -231 l 66 -124 q 151 -93 151 -124 q 113 8 151 -39 l 193 8 m 611 536 l 611 0 l 466 0 l 466 498 q 436 576 466 547 q 366 605 407 605 q 286 581 326 605 q 226 533 245 557 l 226 0 l 81 0 l 81 1027 l 226 1027 l 226 640 q 409 728 314 728 q 551 683 494 728 q 611 536 611 635 z "},"Ḫ":{"ha":865,"x_min":83,"x_max":782,"o":"m 529 -169 q 506 -185 529 -169 q 435 -201 483 -201 q 340 -169 387 -201 q 276 -81 294 -137 l 346 -41 q 384 -93 359 -71 q 435 -114 408 -114 q 486 -93 462 -114 q 524 -41 511 -71 l 593 -81 q 529 -169 576 -137 m 83 0 l 83 1027 l 245 1027 l 245 608 l 620 608 l 620 1027 l 782 1027 l 782 0 l 620 0 l 620 471 l 245 471 l 245 0 l 83 0 z "},"ḫ":{"ha":676,"x_min":81,"x_max":611,"o":"m 443 -169 q 419 -185 443 -169 q 348 -201 396 -201 q 253 -169 300 -201 q 189 -81 207 -137 l 259 -41 q 297 -93 272 -71 q 348 -114 321 -114 q 399 -93 375 -114 q 437 -41 424 -71 l 507 -81 q 443 -169 489 -137 m 611 536 l 611 0 l 466 0 l 466 498 q 436 576 466 547 q 366 605 407 605 q 286 581 326 605 q 226 533 245 557 l 226 0 l 81 0 l 81 1027 l 226 1027 l 226 640 q 409 728 314 728 q 551 683 494 728 q 611 536 611 635 z "},"Ḭ":{"ha":296,"x_min":-111,"x_max":367,"o":"m 367 -83 q 216 -218 319 -218 q 114 -188 159 -218 q 43 -157 70 -157 q 3 -172 16 -157 q -22 -214 -11 -186 l -111 -173 q -50 -75 -95 -111 q 33 -38 -5 -38 q 96 -48 70 -38 q 139 -69 123 -58 q 215 -100 182 -100 q 252 -85 241 -100 q 276 -41 267 -64 l 367 -83 m 67 0 l 67 1027 l 229 1027 l 229 0 l 67 0 z "},"ḭ":{"ha":294,"x_min":-115,"x_max":363,"o":"m 363 -84 q 212 -220 315 -220 q 110 -189 155 -220 q 39 -159 66 -159 q -1 -173 12 -159 q -26 -215 -15 -187 l -115 -174 q -54 -76 -99 -113 q 28 -39 -9 -39 q 92 -49 66 -39 q 135 -71 119 -59 q 211 -102 178 -102 q 248 -86 237 -102 q 272 -42 263 -65 l 363 -84 m 72 0 l 72 715 l 217 715 l 217 0 l 72 0 m 62 778 l 62 943 l 227 943 l 227 778 l 62 778 z "},"Ḯ":{"ha":296,"x_min":-62,"x_max":397,"o":"m 397 1510 l 155 1306 l 96 1364 l 318 1594 l 397 1510 m 195 1129 l 195 1294 l 359 1294 l 359 1129 l 195 1129 m -62 1129 l -62 1294 l 102 1294 l 102 1129 l -62 1129 m 67 0 l 67 1027 l 229 1027 l 229 0 l 67 0 z "},"ḯ":{"ha":357,"x_min":-72,"x_max":387,"o":"m 387 1194 l 145 990 l 86 1048 l 308 1278 l 387 1194 m 186 810 l 186 975 l 350 975 l 350 810 l 186 810 m -72 810 l -72 975 l 92 975 l 92 810 l -72 810 m 65 0 l 65 715 l 210 715 l 210 0 l 65 0 z "},"Ḱ":{"ha":781,"x_min":83,"x_max":779,"o":"m 661 1326 l 420 1122 l 361 1180 l 583 1409 l 661 1326 m 83 0 l 83 1027 l 247 1027 l 247 570 l 589 1027 l 760 1027 l 456 627 l 779 0 l 601 0 l 352 490 l 247 352 l 247 0 l 83 0 z "},"ḱ":{"ha":627,"x_min":84,"x_max":624,"o":"m 393 1314 l 152 1110 l 93 1168 l 315 1398 l 393 1314 m 84 0 l 84 1027 l 229 1027 l 229 449 l 435 715 l 612 715 l 404 451 l 624 0 l 460 0 l 304 323 l 229 229 l 229 0 l 84 0 z "},"Ḳ":{"ha":781,"x_min":83,"x_max":779,"o":"m 342 -184 l 342 -20 l 507 -20 l 507 -184 l 342 -184 m 83 0 l 83 1027 l 247 1027 l 247 570 l 589 1027 l 760 1027 l 456 627 l 779 0 l 601 0 l 352 490 l 247 352 l 247 0 l 83 0 z "}}}
